<svg xmlns="http://www.w3.org/2000/svg" width="1920.366" height="1080" viewBox="0 0 508.097 285.75"><path d="M508 62.177V33.073H0v29.104z" fill="#8f220b"/><path d="M0 60.854v116.417h508V60.854z" fill="#c32b03"/><path d="M421.44 93.906c-48.642.08-97.093 27.946-96.33 83.365H508v-41.075c-17.108-28.277-51.882-42.346-86.56-42.29z" fill="#db4600"/><path d="M370.565 177.27H473.46c0-59.18-103.704-58.844-102.894 0z" fill="#e36400"/><path d="M412.81 177.27h18.4c0-10.582-18.545-10.522-18.4 0z" fill="#ec8600"/><path d="M508 34.396V0H0v34.396z" fill="#371318"/><g><path fill="#d05d42" paint-order="stroke markers fill" d="M.097 177.271h508V285.75h-508z"/><path d="M508.097 174.74l-95.871 27.858c-8.092 1.584-6.755 3.578-1.69 5.922 2.353 1.09.938 2.654-.032 2.719 0 0-17.378 2.735-14.79 3.745 6.949 2.713-1.475 3.496-9.814 3.659-6.025.117-33.594 2.052-26.264 3.524 20.742 4.168-62.05 9.233-79.986 14.606C252.148 245.013-1.472 275.475.097 285.75h508zM366.545 173.302l2.646-10.583 2.645 10.583z" fill="#220c0f"/><path d="M109 82.62C85.296 74.164.096 139.443.096 139.443c-.218 49.043 0 89.476 0 89.476s73.817-3.018 172.775-15.564c49.352-6.257 101.841-11.882 158.043-19.118 31.166-2.487 34.377-1.843 40.504-3.146 6.127-1.304-41.59-13.557-8.071-12.61 8.704.247 39.985 1.289 26.722-2.65-38.774-11.518-59.931-13.589-77.966-21.771-29.527-13.397-41.204-11.813-69.636-20.378C198.07 120.307 197.053 114.028 109 82.619z" fill="#3c1a1a"/><path d="M291.955 160.46S203.69 118.237 156.4 118.777c-60.383 6.74-99.578 56.226-156.303 71.247v77.793s69.939-5.393 168.897-17.94c49.352-6.256 108.452-17.112 164.653-24.348 2.308-.297 21.296-.875 23.017-2.005 1.776-1.165-10.464-3.72.334-5.06 7.826-.971 16.452-1.326 24.266-1.572 2.901-.09 6.764-.416 10.02-.307 4.486.15-5.227-3.081-1.954-3.485 8.643-1.065 24.99-3.527 11.727-7.467-38.774-11.517-73.49-27.836-109.102-45.173z" fill="#220c0f"/><path d="M277.248 174.625l2.646-10.583 2.645 10.583zM271.295 195.792l2.646-10.584 2.645 10.584zM284.524 187.854l2.646-10.583 2.646 10.583zM348.024 201.083l2.646-10.583 2.646 10.583zM338.763 214.312l2.646-10.583 2.646 10.583zM366.545 209.02l2.646-10.583 2.645 10.584zM259.388 164.042l2.646-10.584 2.646 10.584zM276.586 216.958l2.646-10.583 2.646 10.583zM165.461 140.23l2.646-10.584 2.646 10.583zM144.295 137.583L146.94 127l2.645 10.583zM170.753 156.104l2.646-10.583 2.646 10.583z" fill="#561f26"/><path d="M70.211 121.708l2.646-10.583 2.646 10.583zM121.805 103.187l2.646-10.583 2.646 10.583zM152.232 111.125l2.646-10.583 2.646 10.583zM70.211 97.896l2.646-10.584 2.646 10.584zM91.378 100.542l2.646-10.584 2.646 10.584zM345.378 174.625l2.646-10.583 2.646 10.583zM330.826 165.365l2.646-10.584 2.646 10.584zM296.43 157.427l2.646-10.583 2.646 10.583zM271.295 145.52l2.646-10.583 2.645 10.584zM190.597 119.062l2.646-10.583 2.645 10.583zM115.19 89.958l2.646-10.583 2.646 10.583z" fill="#220c0f"/></g></svg>