<svg xmlns="http://www.w3.org/2000/svg" width="100" height="100" viewBox="0 0 26.458 26.458"><circle cx="17.95" cy="8.667" r="1.091" fill="#ff3400"/><circle cx="19.32" cy="10.347" r="1.984" fill="#ff3400"/><circle r="1.984" cy="18.605" cx="16.404" fill="#ff3400"/><circle r="1.091" cy="17.195" cx="4.176" fill="#ff3400"/><circle r="1.984" cy="15.871" cx="2.48" fill="#ff3400"/><circle r="1.091" cy="20.327" cx="20.258" fill="#ff3400"/><circle r="1.984" cy="18.016" cx="19.71" fill="#ff3400"/><circle r="1.984" cy="8.923" cx="22.648" fill="#ff3400"/><circle r="1.091" cy="6.542" cx="13.821" fill="#ff3400"/><circle cx="11.245" cy="6.615" r="1.984" fill="#ff3400"/><path d="M1.213 5.577L1.147 7.13 0 10.395l.768 4.018 1.225.76.123.805 1.388.362 1.786.96 1.404.197.186-.321.86.133.564.718.283.238.03.286.117.194.61.343.16-.048.184-.353.525.032 1.148 1.448.338.782.791.169.2-.164-.172-.451.114-.48 1.838-1.238.812-.067.443.309 1.05.042.163-.127-.116-.207-.01-.207.277-.282 1.478-.091.446.27.193-.032.323-.127.197-.137.806.413.33 1.33.837.951.542.105-.015-.947-1.026-1.963-.099-1.005.796-1.268 1.268-1.03-.014-.458.217-.284-.442-.989-.001-.188.27-.05.168-.492-.181-.295.017-.154.216-.011.22-.503-.079-.152-.015-.181-.044-.064-.003-.162.07-.123 1.305-.929-.317-.644.05-.707.48-.193.017-.3.775-.514-.293-.437-.528-.969-.744.032-.113 1.387-2.15 1.12.008.611-.282.225-1.116.125.112.9-.918.566-.659-.066.291-.664-.301-.726-.318.182-.005-.914-1.019-.05-.498.89.27.944-.186.32.023.226-.48-.35.252-1.693-.393.06.169-.464-.888-.46-.557.004-.266-.23-.205-.003.082-.253.404-.149-.027-.258-.973-.247-.797-.462-.347-.016-.164.27L7.48 6.59 2.048 5.272l-.376.366-.365-.202z" fill="#ff3400"/><path d="M1.906 5.695l-.065 1.537-1.136 3.233.76 3.978 1.214.753.121.797 1.375.358 1.768.95 1.39.196.184-.318.852.132.559.71.28.236.029.284.117.192.603.34.158-.048.183-.35.52.032 1.137 1.433.334.775.783.167.199-.162-.17-.447.112-.476 1.82-1.224.804-.067.438.306 1.04.041.161-.125-.114-.205-.01-.206.274-.279 1.463-.09.442.267.19-.03.321-.126.195-.136.798.409.328 1.317.828.942.536.103-.014-.937-1.016-1.944-.099-.996.789-1.255 1.255-1.019-.014-.454.215-.281-.437-.98-.001-.185.267-.051.166-.486-.18-.293.018-.152.214-.011.217-.498-.078-.15-.015-.18-.043-.063-.003-.16.07-.123 1.292-.919-.315-.638.05-.7.476-.191.016-.296.767-.51-.29-.433-.522-.96-.737.032-.112 1.374-2.128 1.108.007.606-.279.223-1.105.123.11.891-.908.56-.652-.064.288-.658-.299-.72-.315.182-.005-.906-1.008-.049-.493.881.267.935-.185.316.023.224-.475-.346.25-1.676-.39.058.168-.458-.88-.456-.551.004-.264-.227-.203-.004.082-.25.4-.148-.027-.255-.964-.244-.789-.458-.343-.016-.163.267-5.72-.181-5.379-1.305-.373.362-.36-.2z" fill="#fff" stroke="#ff3400" stroke-width=".193"/><g transform="translate(.265 1.852)"><path d="M25.135 3.704c-.466 0-.747.42-.467.887l.467.7.468-.7c.28-.466 0-.887-.468-.887z" fill="#0055d4"/><path d="M25.135 3.704c-.466 0-.747.42-.467.887l.467.7z" fill="#00112b"/><circle r=".187" cy="4.218" cx="25.122" fill="#fff"/></g><g transform="translate(-1.588 5.027)"><path d="M25.135 3.704c-.466 0-.747.42-.467.887l.467.7.468-.7c.28-.466 0-.887-.468-.887z" fill="#0055d4"/><path d="M25.135 3.704c-.466 0-.747.42-.467.887l.467.7z" fill="#00112b"/><circle cx="25.122" cy="4.218" r=".187" fill="#fff"/></g><g transform="translate(-2.381 7.673)"><path d="M25.135 3.704c-.466 0-.747.42-.467.887l.467.7.468-.7c.28-.466 0-.887-.468-.887z" fill="#0055d4"/><path d="M25.135 3.704c-.466 0-.747.42-.467.887l.467.7z" fill="#00112b"/><circle r=".187" cy="4.218" cx="25.122" fill="#fff"/></g><g transform="translate(-5.292 6.35)"><path d="M25.135 3.704c-.466 0-.747.42-.467.887l.467.7.468-.7c.28-.466 0-.887-.468-.887z" fill="#0055d4"/><path d="M25.135 3.704c-.466 0-.747.42-.467.887l.467.7z" fill="#00112b"/><circle cx="25.122" cy="4.218" r=".187" fill="#fff"/></g><g transform="translate(-3.969 10.583)"><path d="M25.135 3.704c-.466 0-.747.42-.467.887l.467.7.468-.7c.28-.466 0-.887-.468-.887z" fill="#0055d4"/><path d="M25.135 3.704c-.466 0-.747.42-.467.887l.467.7z" fill="#00112b"/><circle r=".187" cy="4.218" cx="25.122" fill="#fff"/></g><g transform="translate(-2.91 14.552)"><path d="M25.135 3.704c-.466 0-.747.42-.467.887l.467.7.468-.7c.28-.466 0-.887-.468-.887z" fill="#0055d4"/><path d="M25.135 3.704c-.466 0-.747.42-.467.887l.467.7z" fill="#00112b"/><circle cx="25.122" cy="4.218" r=".187" fill="#fff"/></g><g transform="translate(-7.938 11.113)"><path d="M25.135 3.704c-.466 0-.747.42-.467.887l.467.7.468-.7c.28-.466 0-.887-.468-.887z" fill="#0055d4"/><path d="M25.135 3.704c-.466 0-.747.42-.467.887l.467.7z" fill="#00112b"/><circle cx="25.122" cy="4.218" r=".187" fill="#fff"/></g><g transform="translate(-11.906 13.494)"><path d="M25.135 3.704c-.466 0-.747.42-.467.887l.467.7.468-.7c.28-.466 0-.887-.468-.887z" fill="#0055d4"/><path d="M25.135 3.704c-.466 0-.747.42-.467.887l.467.7z" fill="#00112b"/><circle r=".187" cy="4.218" cx="25.122" fill="#fff"/></g><g transform="translate(-11.906 9.26)"><path d="M25.135 3.704c-.466 0-.747.42-.467.887l.467.7.468-.7c.28-.466 0-.887-.468-.887z" fill="#0055d4"/><path d="M25.135 3.704c-.466 0-.747.42-.467.887l.467.7z" fill="#00112b"/><circle cx="25.122" cy="4.218" r=".187" fill="#fff"/></g><g transform="translate(-10.583 6.085)"><path d="M25.135 3.704c-.466 0-.747.42-.467.887l.467.7.468-.7c.28-.466 0-.887-.468-.887z" fill="#0055d4"/><path d="M25.135 3.704c-.466 0-.747.42-.467.887l.467.7z" fill="#00112b"/><circle r=".187" cy="4.218" cx="25.122" fill="#fff"/></g><g transform="translate(-14.023 3.969)"><path d="M25.135 3.704c-.466 0-.747.42-.467.887l.467.7.468-.7c.28-.466 0-.887-.468-.887z" fill="#0055d4"/><path d="M25.135 3.704c-.466 0-.747.42-.467.887l.467.7z" fill="#00112b"/><circle cx="25.122" cy="4.218" r=".187" fill="#fff"/></g><g transform="translate(-7.938 7.408)"><path d="M25.135 3.704c-.466 0-.747.42-.467.887l.467.7.468-.7c.28-.466 0-.887-.468-.887z" fill="#0055d4"/><path d="M25.135 3.704c-.466 0-.747.42-.467.887l.467.7z" fill="#00112b"/><circle r=".187" cy="4.218" cx="25.122" fill="#fff"/></g><g transform="translate(-17.992 1.852)"><path d="M25.135 3.704c-.466 0-.747.42-.467.887l.467.7.468-.7c.28-.466 0-.887-.468-.887z" fill="#0055d4"/><path d="M25.135 3.704c-.466 0-.747.42-.467.887l.467.7z" fill="#00112b"/><circle r=".187" cy="4.218" cx="25.122" fill="#fff"/></g><g transform="translate(-21.167 1.058)"><path d="M25.135 3.704c-.466 0-.747.42-.467.887l.467.7.468-.7c.28-.466 0-.887-.468-.887z" fill="#0055d4"/><path d="M25.135 3.704c-.466 0-.747.42-.467.887l.467.7z" fill="#00112b"/><circle cx="25.122" cy="4.218" r=".187" fill="#fff"/></g><g transform="translate(-23.283 2.91)"><path d="M25.135 3.704c-.466 0-.747.42-.467.887l.467.7.468-.7c.28-.466 0-.887-.468-.887z" fill="#0055d4"/><path d="M25.135 3.704c-.466 0-.747.42-.467.887l.467.7z" fill="#00112b"/><circle r=".187" cy="4.218" cx="25.122" fill="#fff"/></g><g transform="translate(-21.167 3.969)"><path d="M25.135 3.704c-.466 0-.747.42-.467.887l.467.7.468-.7c.28-.466 0-.887-.468-.887z" fill="#0055d4"/><path d="M25.135 3.704c-.466 0-.747.42-.467.887l.467.7z" fill="#00112b"/><circle cx="25.122" cy="4.218" r=".187" fill="#fff"/></g><g transform="translate(-18.52 4.498)"><path d="M25.135 3.704c-.466 0-.747.42-.467.887l.467.7.468-.7c.28-.466 0-.887-.468-.887z" fill="#0055d4"/><path d="M25.135 3.704c-.466 0-.747.42-.467.887l.467.7z" fill="#00112b"/><circle r=".187" cy="4.218" cx="25.122" fill="#fff"/></g><g transform="translate(-15.875 6.085)"><path d="M25.135 3.704c-.466 0-.747.42-.467.887l.467.7.468-.7c.28-.466 0-.887-.468-.887z" fill="#0055d4"/><path d="M25.135 3.704c-.466 0-.747.42-.467.887l.467.7z" fill="#00112b"/><circle cx="25.122" cy="4.218" r=".187" fill="#fff"/></g><g transform="translate(-20.108 6.88)"><path d="M25.135 3.704c-.466 0-.747.42-.467.887l.467.7.468-.7c.28-.466 0-.887-.468-.887z" fill="#0055d4"/><path d="M25.135 3.704c-.466 0-.747.42-.467.887l.467.7z" fill="#00112b"/><circle cx="25.122" cy="4.218" r=".187" fill="#fff"/></g><g transform="translate(-23.813 6.615)"><path d="M25.135 3.704c-.466 0-.747.42-.467.887l.467.7.468-.7c.28-.466 0-.887-.468-.887z" fill="#0055d4"/><path d="M25.135 3.704c-.466 0-.747.42-.467.887l.467.7z" fill="#00112b"/><circle r=".187" cy="4.218" cx="25.122" fill="#fff"/></g><g transform="translate(-22.754 8.731)"><path d="M25.135 3.704c-.466 0-.747.42-.467.887l.467.7.468-.7c.28-.466 0-.887-.468-.887z" fill="#0055d4"/><path d="M25.135 3.704c-.466 0-.747.42-.467.887l.467.7z" fill="#00112b"/><circle cx="25.122" cy="4.218" r=".187" fill="#fff"/></g><g transform="translate(-20.902 10.054)"><path d="M25.135 3.704c-.466 0-.747.42-.467.887l.467.7.468-.7c.28-.466 0-.887-.468-.887z" fill="#0055d4"/><path d="M25.135 3.704c-.466 0-.747.42-.467.887l.467.7z" fill="#00112b"/><circle r=".187" cy="4.218" cx="25.122" fill="#fff"/></g><g transform="translate(-17.727 9.26)"><path d="M25.135 3.704c-.466 0-.747.42-.467.887l.467.7.468-.7c.28-.466 0-.887-.468-.887z" fill="#0055d4"/><path d="M25.135 3.704c-.466 0-.747.42-.467.887l.467.7z" fill="#00112b"/><circle cx="25.122" cy="4.218" r=".187" fill="#fff"/></g><g transform="translate(-15.346 11.377)"><path d="M25.135 3.704c-.466 0-.747.42-.467.887l.467.7.468-.7c.28-.466 0-.887-.468-.887z" fill="#0055d4"/><path d="M25.135 3.704c-.466 0-.747.42-.467.887l.467.7z" fill="#00112b"/><circle r=".187" cy="4.218" cx="25.122" fill="#fff"/></g><g transform="translate(-10.583 2.381)"><path d="M25.135 3.704c-.466 0-.747.42-.467.887l.467.7.468-.7c.28-.466 0-.887-.468-.887z" fill="#0055d4"/><path d="M25.135 3.704c-.466 0-.747.42-.467.887l.467.7z" fill="#00112b"/><circle r=".187" cy="4.218" cx="25.122" fill="#fff"/></g><circle cx="9.644" cy="5.336" r="1.091" fill="#ff3400"/><circle r=".423" cy="4.242" cx="13.433" fill="#ff3400"/><circle cx="9.341" cy="2.7" r=".32" fill="#ff3400"/><circle cx="11.416" cy="3.3" r=".922" fill="#ff3400"/><circle r=".32" cy="1.986" cx="13.406" fill="#ff3400"/><circle cx="21.244" cy="7.559" r="1.091" fill="#ff3400"/><circle cx="22.918" cy="5.784" r=".423" fill="#ff3400"/><circle cx="20.819" cy="4.606" r=".32" fill="#ff3400"/><circle r=".32" cy="6.454" cx="19.583" fill="#ff3400"/><circle r=".922" cy="21.698" cx="18.226" fill="#ff3400"/><circle cx="20.084" cy="22.655" r=".423" fill="#ff3400"/><circle r=".32" cy="23.974" cx="18.77" fill="#ff3400"/><circle r=".922" cy="17.414" cx="1.503" fill="#ff3400"/><circle r=".32" cy="19.677" cx="1.652" fill="#ff3400"/><circle cx="2.982" cy="20.289" r=".32" fill="#ff3400"/><circle cx="3.034" cy="18.815" r=".423" fill="#ff3400"/><circle cx="17.081" cy="5.808" r=".32" fill="#ff3400"/><circle cx="17.774" cy="3.589" r=".423" fill="#ff3400"/><circle r=".32" cy="3.841" cx="6.577" fill="#ff3400"/><circle cx="4.642" cy="2.823" r=".423" fill="#ff3400"/></svg>