<svg xmlns="http://www.w3.org/2000/svg" viewBox="0 0 508 285.75" height="1080" width="1920"><defs><path id="d" d="M731.708 580.018h445.902v99.455H731.708z"/><path id="a" d="M731.708 580.018h445.902v99.455H731.708z"/><path id="b" d="M731.708 580.018h445.902v99.455H731.708z"/><path id="e" d="M731.708 580.018h445.902v99.455H731.708z"/><path id="c" d="M731.708 580.018h445.902v99.455H731.708z"/><path id="f" d="M731.708 580.018h445.902v99.455H731.708z"/><path id="g" d="M731.708 580.018h445.902v99.455H731.708z"/></defs><path fill="#a73108" paint-order="stroke markers fill" d="M0 0h508v285.75H0z"/><g paint-order="stroke markers fill"><path d="M417.464 118.209l2.69 1.824-3.224 5.418-4.208 3.902-1.08-.733 1.983-5.41z" fill="#ccc"/><path d="M413.625 123.21l-1.983 5.41.448.305-18.862 28.037-.81-.577 18.532-27.945z" fill="gray"/><path d="M416.93 125.45l-4.292 3.846-.548-.371-18.862 28.037.732.47 19.101-27.56z" fill="#b3b3b3"/><path d="M387.374 154.441c.847.503 1.704.991 2.44 1.642l-1.567 2.292-2.536-1.672z" fill="#162d50"/><path d="M389.815 156.083c1.732.866 3.453 1.708 5.744 3.954-.4 1.403-1.07 1.673-1.663 2.262l-5.649-3.924z" fill="#214478"/><path d="M395.559 160.037c.36-.424 1.47.811 2.358 1.552l-1.486 2.382-2.535-1.671z" fill="#2c5aa0"/><path d="M388.247 158.375c1.36.773 4.146 2.291 5.649 3.924-1.209 1.177-2.246 2.902-3.626 3.53l-4.202-2.85z" fill="#1c3d72"/><path d="M385.711 156.703c.819.27 1.665.832 2.536 1.672-.73 1.548-1.47 3.124-2.18 4.604l-1.66-1.213z" fill="#162d50"/><path d="M396.431 163.971c-.895-.805-1.788-1.287-2.535-1.671l-3.626 3.528 1.94 1.229z" fill="#214478"/><path d="M384.408 161.766s.788.372 1.66 1.213l-.163.24-1.467-1.002z" fill="#162d50"/><path d="M386.068 162.98l4.202 2.848-.163.24c-1.475-.827-2.891-1.75-4.202-2.849z" fill="#1c3d72"/><path d="M392.21 167.057s-.837-.73-1.94-1.229l-.163.24 1.68 1.14zM378.976 169.562l8.284 5.616c1.287-2.772 1.898-6.073 2.847-9.11l-4.202-2.849z" fill="#214478"/><path d="M388.324 175.89l-1.064-.712 2.847-9.11 1.68 1.14z" fill="#2c5aa0"/><path d="M377.64 168.646l1.336.916 6.929-6.343a8.37 8.37 0 00-1.467-1.002z" fill="#162d50"/><path d="M378.976 169.562l8.284 5.616c-3.766 6.313-6.875 13.06-12.104 18.11l-8.404-5.698z" fill="#1c3d72"/><path d="M364.937 187.133l1.815.457 12.224-18.028-1.335-.916z" fill="#162d50"/><path d="M375.17 193.269l.683 1.265 12.471-18.645-1.064-.71z" fill="#214478"/><path d="M364.937 187.133c.13.68.313 1.426 1.331 3.193 2.077 1.844 4.109 3.101 6.126 4.153 1.267.197 2.453.268 3.459.055-.046-.432-.203-.858-.683-1.265-3.01-2.32-7.334-5.153-8.418-5.679l-1.815-.457z" fill="#214478"/><path d="M388.844 154.733c.71.36 1.409.84 2.093 1.35h-1.122l-2.44-1.642z" fill="#162d50"/><path d="M390.937 156.083c1.356.923 3.14 2.13 4.859 3.294l-.237.66-5.744-3.954z" fill="#214478"/><path d="M397.102 160.332c-.617-.5-.61-.48-1.306-.955l-.237.66 2.358 1.552z" fill="#2c5aa0"/><path d="M391.982 156.09l2.4 1.628-.326.482-2.4-1.629z" fill="#1c3d72"/></g><g paint-order="stroke markers fill" transform="scale(1.20363) rotate(21.398 1356.871 -279.57)"><path d="M550.125 391.916l.142.258 1.341-.602.388.506-.095 1.367.273.377 1.156-.86.452.334-.268 1.607.48.328 1.096-.663.587.417-.395 1.433.365.339 1.385-.819.38.416-.248 1.414.402.345 1.265-.725.427.429-.287 1.596.347.298 1.257-.792.42.47-.163 1.466.354.245 1.08-.622.622.52-.522 1.309.675.268.802-.724.59.459-.305 1.117c5.656 4.346-.988 11.053-4.617 7.525l-.877.145-.342-.281-.037-.83-.332-.225-1.083.196-.29-.407-.04-.985-.495-.445-1.006.307-.399-.28.1-.904-.42-.4-.894.382-.486-.326-.079-1.3-.452-.316-.842.416-.458-.432-.034-.969-.555-.483c-1.304-1.045-6.897-5.118-7.524-5.643 2.925-2.385 4.773-4.17 7.16-6.256z" fill="#b3b3b3"/><path d="M543.352 385.576l.271.316 1.206-.678 1.293-.164-2.482 1.524-5.158 6.697c-.18-.77-.075-1.87.532-2.523 1.172-1.488 2.892-3.447 4.338-5.172z" fill="#999"/><rect width="25.485" height="6.39" x="659.579" y="-39.886" ry="3.195" transform="rotate(38.968)" fill="#666"/><path d="M531.858 369.926a4.13 4.13 0 00-2.006.447l-3.018 1.906-8.048 6.98-.034 1.032-10.874 14.518 16.755 10.932c24.514 18.011 47.018 35.315 70.524 55.182l11.087 9.538c6.602 5.097 14.813-2.97 8.843-8.686-5.725-4.76-11.76-9.499-11.76-9.499L550.39 404.96l.1-1.144-4.312-3.455c-2.642-2.044-10.428-5.774-6.852-10.023l4.026-4.76c1.12-1.84 2.497-4.077.467-6.023-1.57-1.874-7.14-9.507-11.96-9.628zm64.253 80.88a3.185 3.185 0 012.04.713l14.846 12.008a3.188 3.188 0 01.475 4.494 3.188 3.188 0 01-4.494.474l-14.846-12.008a3.188 3.188 0 01-.475-4.493 3.186 3.186 0 012.454-1.188z" fill="#7e0e0e"/><path d="M538.482 393.271c2.339-3.109 4.513-7.272 7.64-8.22.748.185 1.467.195 1.787 2.169-1.057.48-7.107 8.039-7.95 8.497 0 0-1.522-1.612-1.477-2.446z" fill="#1a1a1a"/><path d="M545.804 385.159c.077-.03.163-.06.318-.109 1.111-.115 1.72 1.077 1.787 2.17l-.366.258c.094-.075-.478-2.443-1.739-2.319z" fill="#292929"/><path d="M540.359 390.611c-.033.075-1.822 2.508-1.877 2.66-.088.483.852 1.955 1.476 2.446.352-.223 2.326-2.503 2.678-2.844-.245-.107-2.357 1.144-2.277-2.262z" fill="#101010"/><path d="M539.958 395.717c.574-.25 5.332-6.798 7.951-8.497l.789.68c-1.057.482-7.135 8.09-7.978 8.548 0 0-.57-.484-.762-.731z" fill="#252525"/><path d="M542.65 392.627c-.033.075-2.637 2.937-2.692 3.09.3.457.592.579.762.731.388-.16 2.371-2.489 2.675-2.846-.245-.107-.503-.22-.745-.975z" fill="#1b1b1b"/><path d="M546.77 388.125c.149-.142.984-.857 1.14-.905.196.17.487.384.788.68l-2.48 2.474c.052-.588.071-1.463.552-2.25z" fill="#333"/><rect transform="rotate(38.968)" ry="3.195" y="-39.886" x="670.322" height="6.39" width="25.485" fill="#666"/><path d="M540.72 396.448c2.339-3.109 6.097-6.706 7.978-8.547 1.19.023 2.628 1.784 2.535 2.949-1.129 1.161-7.424 6.864-8.267 7.322 0 0-1.59-1.063-2.246-1.724z" fill="#1a1a1a"/><path d="M548.246 388.343c.051-.043.297-.394.452-.442 1.96-.545 3.354 1.869 2.535 2.949l-1.108 1.066c.094-.074 1.757-3.803-1.88-3.573z" fill="#292929"/><path d="M543.31 393.37c-.033.075-2.535 2.925-2.59 3.078.57.507 1.46 1.237 2.246 1.724.896-.332 3.232-2.689 3.585-3.03-.245-.107-3.322 1.633-3.242-1.772z" fill="#101010"/><path d="M507.613 391.178l.59-1.522 1.178-.198-.414-.843 1.043-.232-.425-.837 1.149-.355-.362-.888 1.044-.245-.277-.994 1.136-.186-.524-.892 1.28-.23-.461-.949 1.296-.178-.549-.981 1.282-.173-.581-.97 1.13-.265-.124-.817.694-.937 3.034 1.805-8.903 11.886z" fill="#b3b3b3"/><path d="M506.743 394.095l.87-2.917 2.236 1-1.97 2.631z" fill="gray"/><path d="M507.878 394.809l1.971-2.632c35.223 26.015 68.2 52.61 100.805 79.875-.954-.095-1.888-.11-2.962-.687-.176.208-4.364-3.403-12.09-10.059-28.712-22.888-56.586-46.88-87.724-66.497zM525.113 398.79c-4.526-3.544.718-10.595 6.38-5.65l66.021 57.977c-4.33-.295-5.132 2.3-4.206 4.369zM609.123 468.606c4.275 1.898 6.422-2.48 4.13-4.848l1.611 1.134c1.844 1.571.162 6.651-4.145 5.245z" fill="#630a0b"/><path d="M502.895 373.471l-6.946 12.695 1.958-.295.234-.99.997-.201-.097-1.016 1.11-.115-.1-.986.938-.095-.096-.99 1.122-.045-.278-1.043 1.109-.068-.29-.898 1.214-.193-.252-.904 1.002-.13-.07-.947 1.071-.069.062-.91.671-.127.117-.303z" fill="#666"/><path d="M507.51 372.337l-1.325 1.933-.402 1.048-.671.125-.062.911-1.072.069.07.947-1.001.13.252.904-1.215.194.29.897-1.108.068.277 1.043-1.121.045.095.99-.938.095.1.986-1.11.115.097 1.016-.997.201-2.825-2.103 10.308-12.657c1.185-1.892 4.981-.253 2.357 3.043z" fill="#b3b3b3"/><path d="M494.303 384.827l-.71-1.34-.71-3.14c.698-10.872 8.854-19.99 15.054-19.775 2.076-.018 3.925.581 5.61 1.627l13.287 10.08-8.048 6.98c-3.932-3.747-7-5.488-12.13-4.163l-.285.745-.729-.497.13-.024c.089-.138.311-.901.402-1.048.55-.886 1.06-1.585 1.325-1.932.388-.549 1.083-1.466.86-2.524-.6-1.886-2.753-1.395-3.218-.52l-10.297 12.655 2.42 1.81-1.315 2.405z" fill="#4d4d4d"/></g><g paint-order="stroke markers fill"><path d="M450.033 34.405c-.407-1.938 2.656-4.475 3.818-5.486l.534 1.033 1.006-.504-.466-1.039c2.432-1.19 5.45-1.241 6.235-.455.224.089 1.12 1.465.582 2.122l-2.844 1.93-4.31 2.327-.466.252-.331-.144-2.25 1.257c-.795-.151-1.419-.798-1.508-1.293z" fill="#4d4d4d"/><path d="M454.738 35.737c-.13-.217-.467-.802-.616-1.152 1.886-1.032 3.098-1.704 4.776-2.58.032.064.047.098.057.12l.297-.025.455.924-4.714 3.452-.08-.175.144-.218-.102-.183a5.76 5.76 0 01-.177.008l-.04-.17z" fill="#4d4d4d"/><path d="M454.122 34.585c1.59-.884 3.183-1.728 4.776-2.58l.057.12c-1.065.765-3.267 1.921-4.217 3.612-.154-.269-.327-.494-.616-1.152z" fill="#333"/><path d="M454.993 36.476c.62-.457 3.38-2.485 4.714-3.452l.474.246c-1.066.766-5.08 3.633-5.08 3.633a.863.863 0 01-.076-.17c-.014-.083-.031-.256-.032-.257z" fill="#666"/><path d="M455.785 36.845c.191-.179 2.995-2.179 4.169-2.978l.227-.597c-1.116.786-5.08 3.633-5.08 3.633.164-.006.5-.042.684-.058z" fill="#333"/><path d="M455.785 36.845c.387-.332 2.703-1.981 4.169-2.978l.055.302c-1.09.744-2.854 1.947-4.163 2.82-.039-.083-.06-.143-.061-.144z" fill="#4d4d4d"/><path d="M455.82 37.006c.617-.42 2.829-1.91 4.19-2.837l.053-.037c.052.007.301.03.98.138-1.368 1.189-3.977 2.938-5.38 3.952-.018-.03-.231-.381-.235-.415-.014-.084.393-.8.392-.801z" fill="#666"/><path d="M456.251 38.214c.191-.179 3.217-2.307 4.39-3.107l.401-.837c-1.116.785-5.38 3.952-5.38 3.952.085-.003.406.008.59-.008z" fill="#333"/><path d="M456.251 38.214c.758-.587 2.976-2.142 4.336-3.07l.054-.037c.052.008.27.026.948.134-1.367 1.189-3.976 2.938-5.38 3.952-.017-.031-.23-.381-.234-.415-.014-.084.21-.44.276-.564z" fill="#666"/><path d="M456.832 39.185c.191-.18 3.155-2.25 4.329-3.05l.428-.894c-1.116.785-5.38 3.952-5.38 3.952.164-.006.44.007.623-.008z" fill="#333"/><path d="M456.832 39.185c.444-.397 2.876-2.058 4.329-3.05.051.008.3.031.979.138-1.368 1.19-3.977 2.939-5.38 3.953-.017-.031-.23-.381-.235-.416.047-.094.241-.501.307-.625z" fill="#666"/><path d="M457.348 40.218c.192-.179 3.217-2.308 4.39-3.107l.402-.838c-1.116.786-5.38 3.953-5.38 3.953.092-.003.405.007.588-.008z" fill="#333"/><path d="M457.348 40.218c.445-.396 2.938-2.116 4.39-3.107.052.007.27.026.949.133-1.368 1.19-3.977 2.938-5.38 3.952-.017-.03-.23-.38-.235-.415.047-.094.21-.439.276-.563z" fill="#666"/><path d="M457.93 41.188c.19-.179 3.155-2.25 4.328-3.049l.429-.895c-1.116.785-5.38 3.952-5.38 3.952.164-.006.44.008.623-.008z" fill="#333"/><path d="M457.93 41.188c.444-.396 2.876-2.057 4.328-3.049.052.008.301.03.979.138-1.367 1.19-3.976 2.938-5.38 3.952-.017-.03-.23-.38-.234-.415.046-.094.24-.502.307-.626z" fill="#666"/><path d="M458.446 42.221c.191-.178 3.217-2.307 4.39-3.106l.401-.838c-1.116.785-5.38 3.952-5.38 3.952.164-.006.406.008.589-.008z" fill="#333"/><path d="M458.446 42.221c.444-.396 2.938-2.115 4.39-3.106.051.007.27.026.948.133-1.367 1.19-3.976 2.938-5.38 3.952-.017-.03-.23-.38-.234-.415.046-.094.21-.44.276-.564z" fill="#666"/><path d="M459.027 43.192c.191-.179 3.155-2.25 4.329-3.049l.428-.895c-1.116.785-5.38 3.952-5.38 3.952.164-.006.44.007.623-.008z" fill="#333"/><path d="M459.027 43.192c.444-.396 2.876-2.057 4.329-3.049.051.007.3.03.978.138-1.367 1.189-3.976 2.938-5.379 3.952-.017-.03-.23-.381-.235-.415.047-.094.241-.502.307-.626z" fill="#666"/><path d="M459.544 44.225c.191-.179 3.216-2.308 4.39-3.107l.4-.837c-1.115.785-5.379 3.952-5.379 3.952.164-.007.405.008.589-.008z" fill="#333"/><path d="M459.544 44.225c.444-.396 2.937-2.115 4.39-3.107.051.007.27.026.948.134-1.499 1.164-4.003 2.933-5.38 3.952-.017-.031-.23-.381-.235-.415.047-.094.21-.44.277-.564z" fill="#666"/><path d="M460.125 45.196c.19-.18 3.155-2.25 4.328-3.05l.429-.894c-1.116.785-5.38 3.952-5.38 3.952.135-.003.44.007.623-.008z" fill="#333"/><path d="M460.124 45.196c.445-.397 2.877-2.058 4.33-3.05.05.008.3.031.978.138-1.498 1.165-4.002 2.934-5.38 3.953-.017-.031-.23-.381-.234-.415.046-.094.24-.502.307-.626z" fill="#666"/><path d="M460.64 46.229c.192-.179 3.218-2.308 4.391-3.107l.401-.838c-1.116.786-5.38 3.953-5.38 3.953.136-.003.406.007.589-.008z" fill="#333"/><path d="M460.64 46.229c.445-.396 2.939-2.115 4.391-3.107.051.007.27.026.948.133-1.498 1.165-4.002 2.934-5.38 3.953-.017-.031-.23-.382-.234-.416.046-.094.21-.439.276-.563z" fill="#666"/><path d="M461.222 47.2c.191-.18 3.155-2.25 4.329-3.05l.428-.895c-1.116.785-5.38 3.953-5.38 3.953.136-.003.44.007.623-.009z" fill="#333"/><path d="M461.222 47.2c.444-.397 2.876-2.058 4.329-3.05.05.008.3.03.978.138-1.498 1.165-4.002 2.933-5.379 3.952-.017-.03-.23-.38-.235-.415.047-.094.241-.502.307-.626z" fill="#666"/><path d="M461.739 48.232c.19-.179 3.216-2.307 4.39-3.106l.4-.838c-1.115.785-5.379 3.952-5.379 3.952.135-.003.405.008.589-.008z" fill="#333"/><path d="M461.739 48.232c.444-.396 2.937-2.115 4.39-3.106.05.007.27.026.947.133-1.498 1.165-4.002 2.933-5.379 3.952-.017-.03-.23-.38-.235-.415.047-.094.21-.44.277-.564z" fill="#666"/><path d="M462.32 49.203c.19-.179 3.155-2.25 4.328-3.049l.428-.895c-1.115.785-5.379 3.952-5.379 3.952.135-.003.44.007.622-.008z" fill="#333"/><path d="M462.32 49.203c.444-.396 2.876-2.057 4.328-3.049.051.007.3.03.979.138-1.498 1.165-4.002 2.933-5.38 3.952-.017-.03-.23-.381-.234-.415.046-.094.24-.502.306-.626z" fill="#666"/><path d="M462.836 50.236c.191-.179 3.217-2.307 4.39-3.107l.4-.837c-1.115.785-5.378 3.952-5.378 3.952.134-.003.405.008.588-.008z" fill="#333"/><path d="M462.836 50.236c.444-.396 2.938-2.115 4.39-3.107.051.008.27.026.948.134-1.499 1.164-4.002 2.933-5.38 3.952-.017-.031-.23-.381-.234-.415.046-.094.21-.44.276-.564z" fill="#666"/><path d="M463.686 51.203c.263-.17 2.833-2.131 4.06-3.045l.428-.895c-1.116.785-5.38 3.952-5.38 3.952.136-.003.71.003.892-.012z" fill="#333"/><path d="M467.99 48.632l-4.304 2.57c1.353-1.014 2.697-2.016 4.06-3.044z" fill="#4d4d4d"/><path d="M461.16 27.954c-.372-.497-3.003-1.228-6.235.455 5.653-.333 4.738 2.67 4.603 3.169l2.214-1.502c.51-.878-.142-1.55-.582-2.122z" fill="#666"/><path d="M450.04 34.44c-.234-.612.303-1.83.668-2.285-.26 3.442 2.597 2.111 3.083 2.286l-2.25 1.257c-.83-.159-1.33-.537-1.5-1.257z" fill="#3c3c3c"/></g><g paint-order="stroke markers fill"><path d="M24.093 182.351c1.17-.698 3.063-1.827 4.593-2.769l16.698 28.066-4.467 2.67z" fill="#cf9429"/><path d="M16.398 175.981c3.531-1.459 6.78-3.469 9.828-5.873 1.324 1.5 3.612 5.415 4.573 8.06a82.271 82.271 0 01-9.47 5.659c-.56-.025-4.31-5.494-4.931-7.846z" fill="#999"/><path d="M16.398 175.981s1.647-.754 2.575-1.184c.48 2.057 1.895 6.238 5.553 7.31l-3.198 1.72c-1.06-.234-4.813-6.728-4.93-7.846z" fill="#707070"/><path d="M18.375 168.13s4.8-2.892 5.662-1.685c.34.508-9.04 6.814-9.829 5.873-.613-.716 1.698-2.788 4.167-4.188z" fill="#a95353"/><path d="M14.208 172.318c.236.315 9.133-4.767 9.83-5.873.795 1.158 1.04 1.681 2.188 3.663-3.026 2.444-5.84 4.386-9.828 5.873-.497-.739-1.724-2.856-2.19-3.663z" fill="#8a4241"/><path d="M14.208 172.318c.709-.076 2.945-1.397 3.094-1.464-.297.732.75 3.094 2.17 3.786-1.237.629-2.154.983-3.074 1.341-.497-.739-2.34-3.261-2.19-3.663z" fill="#703637"/><path d="M21.328 183.827s1.328-.691 2.89-1.575l16.699 28.065-3.037 1.209z" fill="#bb7c1a"/><path d="M30.8 178.167s-.737.482-2.114 1.415l16.698 28.066 1.967-1.782z" fill="#dca439"/><path d="M40.917 210.317c.477-.326.29-1.516.757-1.816.942-.061 1.614-.549 2.179-.999.656-.39.933.417 1.531.146.089-.25-.092-.804.367-1.102.405-.5.694-.937.694-.937.254-.118.906.257.906.257s1.785 10.236 2.259 14.535c-3.491-3.295-11.73-8.875-11.73-8.875.357-.354-.09-.961.184-1.039.732-.308.8-.754.95-.816.558-.23 1.316.827 1.903.646z" fill="#ab7242"/><path d="M37.88 211.526c.087.018-.076-1.002.184-1.039.233-.077.52-.311.837-.7 3.1 4.315 10.442 6.545 10.709 10.614-3.7-3.2-8.31-6.55-11.73-8.875z" fill="#926541"/><path d="M47.274 218.453c.197-.117-.05-.221.136-.347.248-.187.591.03.857-.084.145-.05.256-.62.434-.67.184-.079.217.256.518.07.099.637.343 2.353.39 2.979-.447-.304-2.149-1.787-2.335-1.948z" fill="#1a1a1a"/></g><path d="M197.962 19.137L72.961 7.151c-.583-.11-2.187.466-2.355 1.163l-1.675 14.09.015.005.32 2.93 1.88-2.227.259 2.764 1.823-2.094.428 2.727 1.646-2.146.011.003.45 2.869 1.658-2.162.448 2.858 1.7-2.218.453 2.885 1.701-2.218.448 2.855 1.672-2.181.443 2.82 1.664-2.17.446 2.84 1.689-2.202.444 2.833 1.671-2.18.428 2.724 1.602-2.09.42 2.675 1.532-2 .403 2.565 1.532-1.998.39 2.49 1.541-2.009.03.01.416 2.647 1.488-1.942.363 2.314 1.404-1.83.361 2.306 1.238-1.614.364 2.32 1.388-1.81.363 2.309 1.41-1.84.354 2.248 1.325-1.728.35 2.231 1.418-1.85.01.003.37 2.358L112 35.792l.32 2.04 1.186-1.548.314 2.005 1.269-1.655.324 2.066 1.234-1.609.357 2.28 1.246-1.624.317 2.023 1.267-1.653.352 2.239 1.282-1.672.347 2.211 1.349-1.76.373 2.38 1.298-1.694.346 2.206 1.342-1.75.337 2.147 1.232-1.607.31 1.977 1.227-1.6.335 2.132 1.243-1.62.34 2.171 1.242-1.619.358 2.28 1.266-1.651.34 2.16 1.239-1.616.322 2.054 1.208-1.576.308 1.959 1.29-1.683.354 2.257 1.394-1.817.336 2.144 1.253-1.633.379 2.412 1.268-1.654.326 2.08 1.218-1.588.285 1.82 1.142-1.49.344 2.19 1.203-1.57.33 2.095 1.377-1.797.376 2.4 1.41-1.84.351 2.233 1.272-1.66.345 2.197 1.313-1.711.37 2.356 1.415-1.846.367 2.335 1.344-1.752.382 2.434 1.45-1.891.358 2.28 1.275-1.662.371 2.364 1.376-1.794.357 2.278 1.326-1.73.352 2.244 1.442-1.88.348 2.214 1.338-1.746.328 2.088 1.232-1.605.338 2.16 1.195-1.559.331 2.112 1.211-1.58.331 2.11 1.298-1.693.33 2.098 1.133-1.478.285 1.813 1.157-1.508.316 2.013 1.256-1.638.334 2.127 1.23-1.606.352 2.242 1.258-1.64.336 2.143 1.344-1.753.343 2.19 1.297-1.693.372 2.367 1.317-1.718.357 2.273 1.45-1.89.367 2.341 1.413-1.843.394 2.514 1.357-1.769.336 2.142 1.281-1.67.342 2.182 1.27-1.656.308 1.963 1.19-1.55.36 2.3 1.104-1.44.268 1.706 1.26-1.643.326 2.081 1.302-1.699.339 2.155 1.254-1.636.346 2.205 1.278-1.666.36 2.3 1.209-1.575.332 2.117 1.31-1.708.363 2.316 1.164-1.519.283 1.802 1.274-1.662-3.755-8.81-4.365-38.425z" fill="#b1cac7"/><path d="M243.825 23.172c-14.682-1.537-26.371-2.324-39.557-3.487l-1.342 25.034 9.461 22.2c.905 1.15 2.202 2.155 3.415 3.192 1.972.223 18.6 1.794 25.973 2.41 1.137-.032 3.735.411 4.506-3.7l.686-6.763c.568-4.98-.194-11.044-1.306-17.394l-3.468-10.337c-.105-.721-.732-2.587 2.867-6.443 1.665-2.472-.37-4.42-1.235-4.712zm-20.547 4.833c.666.13 1.364.457 2.09.97 1.374 1.134 2.617 2.401 2.866 4.68.632 9.029 3.34 16.005 6.11 24.27.433 5.437-10.171 9.2-12.52 3.442-2.882-9.724-5.807-21.136-6.475-29.875.258-1.586 2.945-4.646 7.929-3.487z" fill="#aa6138" paint-order="stroke markers fill"/><path d="M204.268 19.685l5.88.512c-10.577 4.014 7.112 44.695 11.652 50.504-1.05-.1-5.35-.53-5.997-.59-1.211-.982-2.4-1.989-3.416-3.191l-9.461-22.2z" fill="#9a532c" paint-order="stroke markers fill"/><path d="M72.961 7.15c-.583-.109-2.187.467-2.355 1.164l-1.674 14.091.014.004.32 2.93 1.88-2.227.259 2.764 1.823-2.094.428 2.727 1.646-2.146.011.003.45 2.869 1.658-2.162.448 2.858 1.7-2.218.453 2.885 1.701-2.218.448 2.855 1.672-2.181.443 2.82 1.664-2.17.446 2.84 1.689-2.202.444 2.833 1.671-2.18.428 2.724 1.602-2.09.42 2.675 1.532-2 .403 2.565 1.532-1.998.39 2.49 1.541-2.009.03.01.416 2.647 1.488-1.942.363 2.314 1.403-1.83.362 2.306 1.238-1.614.364 2.32 1.388-1.81.363 2.309 1.41-1.84.353 2.248 1.326-1.728.35 2.231 1.418-1.85.01.003.37 2.358L112 35.792l.32 2.04 1.186-1.548.314 2.005 1.269-1.655.323 2.066 1.235-1.609.357 2.28 1.246-1.624.317 2.023 1.267-1.653.352 2.239 1.282-1.672c-8.62-8.015-38.46-16.256-39.543-30.674l-8.963-.86z" fill="#93b0b2"/><path d="M223.278 28.005c14.904.989 16.475 38.168 7.358 35.224 4.234-2.585 3.708-5.305 3.708-5.305-3.145-9.397-5.05-13.36-6.11-24.27-.241-2.263-1.485-3.539-2.866-4.68z" fill="#9a532c" paint-order="stroke markers fill"/><path d="M84.319 86.04l2.386-2.715-2.165-1.823 1.999-2.275c-3.854-1.626-7.01-6.654-11.745-11.245-5.58-5.41-14.844-8.601-16.475-13.558.65-1.542.277-1.518-.57-2.261-3.363 2.327-10.35 10.276-12.226 13.911.846.744.87 1.117 2.316.274 5.125.982 9.48 9.76 15.56 14.599 5.16 4.107 10.552 6.59 12.66 10.204l2.27-2.583 1.863 1.88 2.71-3.024z" fill="#247c92"/><path d="M117.3 87.835l-36.745 41.821c-.986 4.69 9.944 14.296 14.413 13.393l37.79-42.475c.323-.467.42-.76.032-1.106-2.083-2.584-3.589-3.764-5.953-5.689l-1.728-1.26c-1.173-.937-5.146-4.511-6.385-5.24-.582-.275-1.098.233-1.424.556z" fill="#e3e2db"/><path d="M82.902 87.425l1.133.894c.813.555 1.792 1.085 2.647.92 9.862-3.035 21.99-7.783 29.189-9.21 2.79.054 9.263 5.888 11.684 8.053.64.539.277.971-.345 1.854l-2.102 2.583 1.73 1.26 2.774-3.49c.857-1.03.212-2.302-.113-2.675-3.69-3.241-11.026-9.956-13.941-9.5L86.47 87.706c-1.331-.49-2.009-1.432-2.151-1.666z" fill="#b3b3b3"/><path d="M57.75 52.163c1.234.825 1.073 1.395.569 2.261 1.162 4.311 10.384 7.799 16.475 13.558 2.566 2.364 9.057 10.396 11.745 11.245l-2 2.275 2.166 1.823-2.386 2.715C69.456 62.62 61.952 65.96 51.41 58.253c.855-1.334 4.884-5.041 6.34-6.09z" fill="#137186" paint-order="stroke markers fill"/><path d="M45.523 66.074c.977 1.118 1.522.886 2.316.274 4.424.599 9.067 9.297 15.56 14.599 2.674 2.241 11.473 7.648 12.66 10.204l2.27-2.583 1.863 1.88 1.078-1.204C56.455 74.285 56.503 68.688 47.845 62.571c-.946 1.283-1.465 1.928-2.322 3.503z" fill="#3684a0" paint-order="stroke markers fill"/><path d="M132.79 99.468c.26.227.419.507-.033 1.106-17.378-6.57-24.74 5.323-35.794 10.407l20.35-23.162c.391-.383.792-.803 1.411-.54.624.329 10.716 7.841 14.066 12.19z" fill="#c8c4b7" paint-order="stroke markers fill"/><path d="M19.749 79.117c3.456 3.427 8.45 7.581 10.53 12.804.658 1.185-1.62 3.295-4.315 4.889-2.75 1.496-6.029 3.633-6.707 2.46-2.83-3.166-6.702-8.213-9.364-14.166-4.351 7.456-.798 12.92 4.504 20.411 2.658 3.747 6.132 2.157 9.199 3.063 1.45.453 4.213 1.925 6.763 6.253l22.433 40.237 23.034 39.896c2.408 4.408 2.254 7.537 1.9 9.013-.796 3.097-3.942 5.264-2.09 9.467 3.711 8.394 6.58 14.247 15.212 14.336-3.745-5.339-6.426-12.127-7.358-15.304-.66-1.184 2.858-2.903 5.553-4.496 2.75-1.496 5.73-2.369 6.408-1.196 3.418 4.464 4.422 10.881 5.591 15.607 4.352-7.457 4.87-15.626-.432-23.117-2.659-3.746-6.133-2.156-9.2-3.062-1.449-.453-4.213-1.925-6.762-6.253l-22.434-40.237-23.034-39.896c-2.408-4.409-2.254-7.537-1.899-9.013.795-3.097 3.942-5.264 2.09-9.468-3.712-8.393-10.99-12.139-19.622-12.228z" fill="#b1cac7"/><path d="M9.893 85.104c.42 10.269 4.524 21.418 13.703 23.474l-4.383-.443c-2.475.001-4.148-1.547-4.816-2.62-7.545-8.946-7.628-15.217-4.504-20.411zM19.749 79.117c5.513 5.262 8.633 7.998 10.53 12.804.095.11.334.638-.288 1.535 0 0-10.221-11.78-10.889-12.852z" fill="#93b0b2" paint-order="stroke markers fill"/><path d="M37.281 100.813c-12.468 26.2 31.428 60.558 38.545 94.151-4.517-4.777-34.392-60.924-45.467-80.133-1.464-1.621-3.245-5.074-6.763-6.253 4.195-2.448 9.922-4.247 13.685-7.765zM77.726 203.977c.42 10.269 3.943 21.747 13.122 23.803l-2.847-.165c-5.824-.713-10.61-8.475-12.365-14.17-1.66-3.974.823-5.873 2.09-9.468zM99.722 222.809l-7.123-16.289c-.087-.173 2.46-.67 2.852.264 1.342-.605 5.937 14.077 5.591 15.607z" fill="#93b0b2" paint-order="stroke markers fill"/><g paint-order="stroke markers fill"><path d="M29.817 21.613l-3.367 5.684 3.24 5.758 6.605.074 3.367-5.684-3.239-5.758zm3.235 1.71a4.049 4.049 0 01.004 0 4.049 4.049 0 014.049 4.048 4.049 4.049 0 01-4.049 4.049 4.049 4.049 0 01-4.048-4.049 4.049 4.049 0 014.044-4.048z" fill="#b1cac7"/><path d="M33.056 21.976a5.395 5.395 0 00-5.395 5.395 5.395 5.395 0 005.395 5.395 5.395 5.395 0 005.395-5.395 5.395 5.395 0 00-5.395-5.395zm0 1.333a4.062 4.062 0 014.062 4.062 4.062 4.062 0 01-4.062 4.062 4.062 4.062 0 01-4.062-4.062 4.062 4.062 0 014.062-4.062z" fill="#cadbd7"/><path d="M33.056 22.77a4.602 4.602 0 00-4.601 4.601 4.602 4.602 0 004.601 4.602 4.602 4.602 0 004.602-4.602 4.602 4.602 0 00-4.602-4.601zm0 .54a4.062 4.062 0 014.062 4.061 4.062 4.062 0 01-4.062 4.062 4.062 4.062 0 01-4.062-4.062 4.062 4.062 0 014.062-4.062z" fill="#93b0b2"/></g><g paint-order="stroke markers fill"><path d="M438.421 178.376l-4.426-2.9-2.827 3.965-8.97-5.827c-6.387.87-13.743 12.918-12.073 17.516 2.935 2.225 5.942 4.34 8.992 6.395-.59 1.52-30.35 45.54-45.524 68.31l9.063 6.04c15.174-22.77 44.458-67.107 45.524-68.31 3.069 2.023 6.179 3.984 9.361 5.836 4.888-.228 13.175-11.655 11.52-17.886l-8.832-6.035 2.572-4.135z"/><path d="M449.06 191.515c-3.545-2.53-5.409-3.756-8.83-6.035-2.416-.715-6.962-3.322-9.062-6.039l-8.97-5.827c-8.553 1.864-13.426 13.847-12.073 17.516 8.594 6.57 21.423 14.797 27.416 18.27 5.64-.278 13.56-13.33 11.52-17.885z" fill="#141414"/><path d="M419.117 197.525l9.063 6.04-45.524 68.31-9.063-6.04zM433.995 175.476c2.888 1.566 5.783 3.508 8.806 5.869l-2.57 4.136c-3.084-.99-6.665-3.114-9.063-6.04z" fill="#af7548"/><path d="M419.117 197.525l2.76 1.952c-20.3 28.649-34.345 51.941-42.514 70.203l-5.77-3.844zM433.995 175.476c.888.466 1.886 1.08 2.87 1.677-2.568 2.605-2.619 4.063-1.007 6.296-1.306-.884-2.447-1.476-4.69-4.008z" fill="#a1643b"/><path d="M423.037 200.137c-4.509-2.727-8.7-5.89-12.912-9.007-1.813-7.524 7.125-17.259 12.074-17.516-4.808 9.67-1.522 17.986.838 26.523z" fill="#0c0c0c"/></g><path d="M403.37-59.714v-.006h-.006l.005.006z"/><g><path d="M300.11 15.565c-2.674 5.389-9.016 7.362-13.812 6.948-2.605 1.518-4.46 3.562-6.201 5.513-.902.528 5.143 11.134 6.342 10.997 2.5-.49 5.078-1.094 7.827-2.595 5.4-5.456 8.337-9.578 14.897-7.855.742.09 3.217 4.997 4.825 7.496l.429-.045c-.195.413-.771.719-.53 1.355 11.217 15.957 13.367 24.203 18.061 32.477 7.029 12.388 18.498 28.016 27.668 47.634l7.801-4.471 7.802-4.471c-12.29-17.83-19.976-35.625-27.112-47.952-4.766-8.234-11.145-14.055-19.241-31.8-.46-.57-1.177-.109-1.526-.178l.254-.495.436-.976c-1.512-1.99-2.594-4.257-3.796-6.44-1.575-2.984 4.154-3.697 6.514-3.555 6.67.434 15.048 6.757 22.656 6.669-31.949-19.479-42.323-17.286-53.293-8.256z"/><path d="M280.097 28.026c2.198-2.545 4.276-4.44 6.2-5.513 1.546-.267 8.357 1.274 13.814-6.948 13.046-12.168 29.843-7.212 53.293 8.256-5.2.384-19.068-5.983-22.656-6.67-4.941.07-7.39 1.143-6.514 3.557 1.254 2.368 2.487 4.557 3.796 6.439l-.69 1.471-12.923 7.406-.429.045c-1.783-2.79-3.722-6.636-4.825-7.496-6.418-1.679-9.673 2.458-14.897 7.855-3.055 1.633-5.444 2.12-7.827 2.596-1.22.133-7.29-10.43-6.343-10.998z" fill="#999" paint-order="stroke markers fill"/><path d="M280.193 28.499l6.641-5.05.895 1.56-6.641 5.05c0-.003-.728-1.268-.895-1.56zM281.445 30.683l6.641-5.05.537.937-6.82 4.737z" fill="#bebfbf" paint-order="stroke markers fill"/><path d="M298.83 19.062c-3.563 1.893-6.718 4.188-11.996 4.387l.895 1.56c3.473-1.212 7.59-3.152 11.637-5.01-.003-.002-.369-.645-.536-.937z" fill="#bebfbf" paint-order="stroke markers fill"/><path d="M296.067 21.475l-7.98 4.159.536.936c3.5-1.939 6.176-4.068 11.28-5.635l-.537-.936zM298.83 19.062l1.073 1.873c1.664-7.882 15.241-12.466 22.738-10.958l-.179-.312C312.2 7.67 303.69 12.3 298.83 19.062z" fill="#bebfbf" paint-order="stroke markers fill"/><path d="M285.022 36.924l7.714-3.177-.537-.936-7.535 3.49z" fill="#a9a9a8" paint-order="stroke markers fill"/><path d="M302.764 25.928c-3.402 2.793-6.96 6.077-10.028 7.82l-.537-.937c3.577-1.853 6.924-4.797 10.386-7.195z" fill="#a9a9a8" paint-order="stroke markers fill"/><path d="M280.01 28.199c-.503.862 5.195 10.927 6.429 10.824l-.011-.019c.002.004.009.016.014.018-.028.032 5.733-1.096 7.826-2.596 3.189-2.517 7.104-9.9 14.897-7.854.737.237 4.487 7.164 4.823 7.497l.429-.045c-4.154-10.654-6.794-10.624-13.858-6.462-1.592.98-3.016 2.246-4.111 3.471-2.185 2.56-8.481 3.131-10.63 5.023-1.8-2.877-5.326-9.027-5.806-9.859z" fill="#747574" paint-order="stroke markers fill"/><path d="M327.34 28.618l-12.923 7.406c-.195.413-.771.719-.53 1.356 11.217 15.957 13.367 24.202 18.061 32.476 7.029 12.388 18.498 28.016 27.668 47.634l7.801-4.471 7.802-4.471c-12.29-17.83-19.976-35.625-27.112-47.952-4.766-8.234-11.144-14.055-19.241-31.8-.46-.57-1.177-.109-1.526-.178z" fill="#af7548"/><path d="M318.339 33.776l-3.922 2.248c-.195.413-.771.719-.53 1.356 11.217 15.957 13.367 24.202 18.061 32.476 7.029 12.388 18.498 28.016 27.668 47.634l7.801-4.471c-16.216-23.677-36.43-51.072-49.078-79.243z" fill="#a1643b"/></g><g><path fill="#cf8c20" paint-order="stroke markers fill" d="M28.386 254.767l278.05-45.706 3.862 23.497-278.05 45.706z"/><path d="M28.386 254.767c50.323 16.02 125.85-2.974 192.144-7.453l-188.281 30.95z" fill="#cd7812" paint-order="stroke markers fill"/><g paint-order="stroke markers fill"><path fill="#1a1a1a" d="M29.17 254.638l.49-.081.743 4.52-.49.08zM30.605 254.402l.49-.081.293 1.777-.49.08zM32.04 254.166l.49-.08.49 2.972-.491.08zM33.476 253.93l.49-.08.292 1.776-.49.08zM34.912 253.694l.49-.08.61 3.707-.49.081zM36.347 253.458l.49-.08.293 1.776-.49.08zM37.782 253.222l.49-.08.49 2.972-.491.081zM39.218 252.986l.49-.08.292 1.776-.49.081zM40.654 252.75l.49-.08.743 4.52-.49.08zM42.088 252.514l.49-.08.293 1.777-.49.08zM43.524 252.278l.49-.08.49 2.972-.491.081zM44.96 252.042l.49-.08.292 1.777-.49.08zM46.396 251.806l.49-.08.61 3.708-.49.08zM47.83 251.57l.49-.08.293 1.777-.49.08zM49.266 251.334l.49-.08.49 2.973-.491.08zM50.702 251.098l.49-.08.292 1.777-.49.08zM52.137 250.862l.49-.08.744 4.52-.49.08zM53.572 250.626l.49-.08.293 1.777-.49.08zM55.008 250.39l.49-.08.49 2.973-.491.08zM56.444 250.154l.49-.08.292 1.777-.49.08zM57.878 249.918l.49-.08.61 3.708-.49.08zM59.314 249.682l.49-.08.293 1.777-.49.08zM60.75 249.446l.49-.08.489 2.973-.49.08zM63.62 248.975l.49-.081.744 4.52-.49.08zM62.186 249.21l.49-.08.292 1.777-.49.08zM65.056 248.739l.49-.081.293 1.777-.49.08zM66.492 248.503l.49-.081.489 2.973-.49.08zM67.928 248.267l.49-.081.292 1.777-.49.08zM69.362 248.03l.49-.08.61 3.708-.49.08zM70.798 247.795l.49-.08.293 1.776-.49.08zM72.234 247.559l.49-.08.489 2.972-.49.08zM73.67 247.323l.49-.081.292 1.777-.49.08zM75.104 247.087l.49-.08.744 4.52-.49.08zM76.54 246.85l.49-.08.293 1.777-.49.081zM77.976 246.615l.49-.08.489 2.972-.49.08zM79.41 246.379l.49-.08.293 1.776-.49.081zM80.846 246.143l.49-.08.61 3.708-.49.08zM82.282 245.907l.49-.08.292 1.776-.49.081zM83.718 245.67l.49-.08.489 2.973-.49.081zM86.588 245.2l.49-.082.744 4.52-.49.081zM85.152 245.435l.49-.08.293 1.777-.49.08zM88.024 244.963l.49-.08.292 1.777-.49.08zM89.46 244.727l.49-.08.489 2.973-.49.08zM90.894 244.491l.49-.08.293 1.777-.49.08zM92.33 244.255l.49-.08.61 3.708-.49.08zM93.766 244.02l.49-.081.292 1.777-.49.08zM95.202 243.783l.49-.08.489 2.973-.49.08zM96.636 243.547l.49-.08.293 1.777-.49.08zM98.072 243.311l.49-.08.743 4.52-.49.08zM99.508 243.075l.49-.08.292 1.777-.49.08zM100.942 242.84l.49-.081.49 2.973-.49.08zM102.378 242.603l.49-.08.293 1.777-.49.08zM103.814 242.367l.49-.08.61 3.708-.49.08zM105.25 242.131l.49-.08.292 1.777-.49.08zM106.684 241.896l.49-.081.49 2.973-.49.08zM109.556 241.424l.49-.081.743 4.52-.49.08zM108.12 241.66l.49-.081.293 1.777-.49.08zM110.992 241.188l.49-.081.292 1.777-.49.08zM112.426 240.952l.49-.08.49 2.972-.49.08zM113.862 240.716l.49-.08.293 1.776-.49.08zM115.298 240.48l.49-.08.61 3.707-.49.081zM116.733 240.244l.49-.08.292 1.776-.49.081zM118.168 240.008l.49-.08.49 2.972-.491.081zM119.604 239.772l.49-.08.293 1.776-.49.081zM121.04 239.536l.49-.08.743 4.52-.49.08zM122.475 239.3l.49-.08.292 1.777-.49.08zM123.91 239.064l.49-.08.49 2.973-.491.08zM125.346 238.828l.49-.08.293 1.777-.49.08zM126.782 238.592l.49-.08.61 3.708-.49.08zM128.216 238.356l.49-.08.293 1.777-.49.08zM129.652 238.12l.49-.08.49 2.973-.491.08zM132.524 237.648l.49-.08.743 4.52-.49.08zM131.088 237.884l.49-.08.292 1.777-.49.08zM133.958 237.412l.49-.08.293 1.777-.49.08zM135.394 237.176l.49-.08.49 2.973-.491.08zM136.83 236.94l.49-.08.292 1.777-.49.08zM138.265 236.704l.49-.08.61 3.708-.49.08zM139.7 236.468l.49-.08.293 1.777-.49.08zM141.136 236.232l.49-.08.49 2.973-.491.08zM142.572 235.996l.49-.08.292 1.777-.49.08zM144.007 235.76l.49-.08.743 4.52-.49.08zM145.442 235.525l.49-.081.293 1.777-.49.08zM146.878 235.289l.49-.081.49 2.973-.491.08zM148.314 235.053l.49-.081.292 1.777-.49.08zM149.748 234.817l.49-.08.61 3.707-.49.08zM151.184 234.58l.49-.08.293 1.777-.49.08zM152.62 234.345l.49-.08.49 2.972-.491.08zM155.49 233.873l.49-.08.744 4.52-.49.08zM154.055 234.109l.49-.08.292 1.776-.49.081zM156.926 233.637l.49-.08.293 1.776-.49.081zM158.362 233.4l.49-.08.489 2.973-.49.08zM159.797 233.165l.49-.08.292 1.777-.49.08zM161.232 232.929l.49-.08.61 3.708-.49.08zM162.668 232.693l.49-.08.293 1.777-.49.08zM164.104 232.457l.49-.08.489 2.972-.49.081zM165.539 232.221l.49-.08.292 1.777-.49.08z"/><path fill="#a40" d="M166.974 231.985l.49-.08.744 4.52-.49.08z"/><g fill="#1a1a1a"><path d="M166.975 231.985l.49-.08.743 4.52-.49.08zM168.41 231.75l.49-.082.293 1.778-.49.08zM169.845 231.513l.49-.08.49 2.973-.491.08zM171.28 231.277l.491-.08.292 1.777-.49.08zM172.716 231.041l.49-.08.61 3.708-.49.08zM174.152 230.805l.49-.08.293 1.777-.49.08zM175.587 230.57l.49-.081.49 2.973-.491.08zM177.023 230.333l.49-.08.292 1.777-.49.08zM178.458 230.097l.49-.08.744 4.52-.49.08zM179.893 229.861l.49-.08.293 1.777-.49.08zM181.329 229.625l.49-.08.489 2.973-.49.08zM182.765 229.39l.49-.081.292 1.777-.49.08zM184.2 229.153l.49-.08.61 3.708-.49.08zM185.635 228.918l.49-.081.293 1.777-.49.08zM187.07 228.682l.491-.081.489 2.973-.49.08zM188.507 228.446l.49-.081.292 1.777-.49.08zM189.942 228.21l.49-.081.744 4.52-.49.08zM191.377 227.974l.49-.08.293 1.776-.49.08zM192.813 227.738l.49-.08.489 2.972-.49.08zM194.248 227.502l.49-.08.293 1.776-.49.08zM195.683 227.266l.49-.08.61 3.708-.49.08zM197.119 227.03l.49-.08.293 1.776-.49.081zM198.555 226.794l.49-.08.489 2.972-.49.081zM201.425 226.322l.49-.08.744 4.52-.49.08zM199.99 226.558l.49-.08.293 1.776-.49.081zM202.86 226.086l.491-.08.292 1.777-.49.08zM204.297 225.85l.49-.08.489 2.973-.49.08zM205.732 225.614l.49-.08.293 1.777-.49.08zM207.167 225.378l.49-.08.61 3.708-.49.08zM208.603 225.142l.49-.08.292 1.777-.49.08zM210.039 224.906l.49-.08.489 2.973-.49.08zM211.474 224.67l.49-.08.293 1.777-.49.08zM212.91 224.434l.49-.08.743 4.52-.49.08zM214.345 224.198l.49-.08.292 1.777-.49.08zM215.78 223.962l.49-.08.49 2.973-.49.08zM217.215 223.726l.49-.08.293 1.777-.49.08zM218.651 223.49l.49-.08.61 3.708-.49.08zM220.087 223.254l.49-.08.292 1.777-.49.08zM221.522 223.018l.49-.08.49 2.973-.49.08zM224.393 222.547l.49-.081.743 4.52-.49.08zM222.957 222.783l.49-.081.293 1.777-.49.08zM225.829 222.31l.49-.08.292 1.777-.49.08zM227.264 222.075l.49-.081.49 2.973-.49.08zM228.7 221.839l.49-.08.292 1.776-.49.08zM230.135 221.603l.49-.08.61 3.707-.49.08zM231.57 221.367l.491-.08.292 1.776-.49.08zM233.006 221.13l.49-.08.49 2.973-.49.08zM234.441 220.895l.49-.08.293 1.776-.49.081zM235.877 220.659l.49-.08.743 4.52-.49.08zM237.313 220.423l.49-.08.292 1.776-.49.081zM238.747 220.187l.49-.08.49 2.972-.491.081zM240.183 219.951l.49-.08.293 1.777-.49.08zM241.619 219.715l.49-.08.61 3.708-.49.08zM243.054 219.479l.49-.08.293 1.776-.49.081zM244.49 219.243l.49-.08.488 2.973-.49.08zM247.36 218.771l.491-.08.743 4.52-.49.08zM245.925 219.007l.49-.08.293 1.777-.49.08zM248.796 218.535l.49-.08.293 1.777-.49.08zM250.231 218.3l.49-.081.49 2.973-.491.08zM251.667 218.063l.49-.08.292 1.777-.49.08zM253.103 217.827l.49-.08.61 3.708-.49.08zM254.537 217.591l.49-.08.293 1.777-.49.08zM255.973 217.355l.49-.08.49 2.973-.491.08zM257.409 217.12l.49-.081.292 1.777-.49.08zM258.845 216.883l.49-.08.743 4.52-.49.08zM260.28 216.648l.49-.081.292 1.777-.49.08zM261.715 216.412l.49-.081.49 2.973-.491.08zM263.15 216.176l.491-.081.292 1.777-.49.08zM264.587 215.94l.49-.081.61 3.708-.49.08zM266.021 215.704l.49-.081.293 1.777-.49.08zM267.457 215.468l.49-.081.49 2.973-.491.08zM270.328 214.996l.49-.081.744 4.52-.49.081zM268.893 215.232l.49-.081.292 1.777-.49.08zM271.763 214.76l.49-.08.293 1.776-.49.08zM273.199 214.524l.49-.08.49 2.972-.491.08zM274.635 214.288l.49-.08.292 1.776-.49.08zM276.07 214.052l.49-.08.61 3.708-.491.08zM277.505 213.816l.49-.08.293 1.776-.49.081zM278.94 213.58l.491-.08.489 2.972-.49.081zM280.377 213.344l.49-.08.292 1.776-.49.081zM281.811 213.108l.49-.08.744 4.52-.49.08zM283.247 212.872l.49-.08.293 1.777-.49.08zM284.683 212.636l.49-.08.489 2.973-.49.08zM286.119 212.4l.49-.08.292 1.777-.49.08zM287.553 212.164l.49-.08.61 3.708-.49.08zM288.989 211.928l.49-.08.293 1.777-.49.08zM290.425 211.692l.49-.08.489 2.973-.49.08zM293.295 211.22l.49-.08.744 4.52-.49.08zM291.86 211.456l.49-.08.292 1.777-.49.08zM294.731 210.984l.49-.08.293 1.777-.49.08zM296.167 210.748l.49-.08.489 2.973-.49.08zM297.601 210.512l.49-.08.293 1.777-.49.08zM299.037 210.276l.49-.08.61 3.708-.49.08zM300.473 210.04l.49-.08.292 1.777-.49.08zM301.909 209.804l.49-.08.489 2.973-.49.08zM303.343 209.569l.49-.081.293 1.777-.49.08zM304.78 209.333l.49-.081.743 4.52-.49.08z"/></g></g><g fill="#1a1a1a" font-weight="400" font-size="4.586" font-family="DM Sans" letter-spacing="0" word-spacing="0"><text y="589.404" x="731.709" style="line-height:1.25;-inkscape-font-specification:'DM Sans, Normal';font-variant-ligatures:normal;font-variant-caps:normal;font-variant-numeric:normal;font-variant-east-asian:normal;white-space:pre;shape-inside:url(#a)" transform="rotate(-9.335 -1713.957 3161.94)"><tspan x="731.709" y="584.085"><tspan style="-inkscape-font-specification:'DM Sans, Normal';font-variant-ligatures:normal;font-variant-caps:normal;font-variant-numeric:normal;font-variant-east-asian:normal">1</tspan></tspan></text><text transform="rotate(-9.335 -1712.72 3177.1)" style="line-height:1.25;-inkscape-font-specification:'DM Sans, Normal';font-variant-ligatures:normal;font-variant-caps:normal;font-variant-numeric:normal;font-variant-east-asian:normal;white-space:pre;shape-inside:url(#b)" x="731.709" y="589.404"><tspan x="731.709" y="584.085"><tspan style="-inkscape-font-specification:'DM Sans, Normal';font-variant-ligatures:normal;font-variant-caps:normal;font-variant-numeric:normal;font-variant-east-asian:normal">1</tspan></tspan></text></g><text y="589.404" x="731.709" style="line-height:1.25;-inkscape-font-specification:'DM Sans, Normal';font-variant-ligatures:normal;font-variant-caps:normal;font-variant-numeric:normal;font-variant-east-asian:normal;white-space:pre;shape-inside:url(#c)" transform="rotate(-9.335 -1597.445 4589.036)" font-weight="400" font-size="4.586" font-family="DM Sans" letter-spacing="0" word-spacing="0" fill="#1a1a1a"><tspan x="731.709" y="584.085"><tspan style="-inkscape-font-specification:'DM Sans, Normal';font-variant-ligatures:normal;font-variant-caps:normal;font-variant-numeric:normal;font-variant-east-asian:normal">1</tspan></tspan></text><text transform="rotate(-9.335 -1608.32 4451.691)" style="line-height:1.25;-inkscape-font-specification:'DM Sans, Normal';font-variant-ligatures:normal;font-variant-caps:normal;font-variant-numeric:normal;font-variant-east-asian:normal;white-space:pre;shape-inside:url(#d)" x="734.509" y="589.404" font-weight="400" font-size="4.586" font-family="DM Sans" letter-spacing="0" word-spacing="0" fill="#1a1a1a"><tspan x="731.709" y="584.085"><tspan style="-inkscape-font-specification:'DM Sans, Normal';font-variant-ligatures:normal;font-variant-caps:normal;font-variant-numeric:normal;font-variant-east-asian:normal">2</tspan></tspan></text><text transform="rotate(-9.335 -1619.922 4309.57)" style="line-height:1.25;-inkscape-font-specification:'DM Sans, Normal';font-variant-ligatures:normal;font-variant-caps:normal;font-variant-numeric:normal;font-variant-east-asian:normal;white-space:pre;shape-inside:url(#d)" x="737.309" y="589.404" font-weight="400" font-size="4.586" font-family="DM Sans" letter-spacing="0" word-spacing="0" fill="#1a1a1a"><tspan x="731.709" y="584.085"><tspan style="-inkscape-font-specification:'DM Sans, Normal';font-variant-ligatures:normal;font-variant-caps:normal;font-variant-numeric:normal;font-variant-east-asian:normal">3</tspan></tspan></text><text transform="rotate(-9.335 -1631.805 4168.18)" style="line-height:1.25;-inkscape-font-specification:'DM Sans, Normal';font-variant-ligatures:normal;font-variant-caps:normal;font-variant-numeric:normal;font-variant-east-asian:normal;white-space:pre;shape-inside:url(#d)" x="740.11" y="589.404" font-weight="400" font-size="4.586" font-family="DM Sans" letter-spacing="0" word-spacing="0" fill="#1a1a1a"><tspan x="731.709" y="584.085"><tspan style="-inkscape-font-specification:'DM Sans, Normal';font-variant-ligatures:normal;font-variant-caps:normal;font-variant-numeric:normal;font-variant-east-asian:normal">4</tspan></tspan></text><text transform="rotate(-9.335 -1643.389 4026.3)" style="line-height:1.25;-inkscape-font-specification:'DM Sans, Normal';font-variant-ligatures:normal;font-variant-caps:normal;font-variant-numeric:normal;font-variant-east-asian:normal;white-space:pre;shape-inside:url(#d)" x="742.91" y="589.404" font-weight="400" font-size="4.586" font-family="DM Sans" letter-spacing="0" word-spacing="0" fill="#1a1a1a"><tspan x="731.709" y="584.085"><tspan style="-inkscape-font-specification:'DM Sans, Normal';font-variant-ligatures:normal;font-variant-caps:normal;font-variant-numeric:normal;font-variant-east-asian:normal">5</tspan></tspan></text><text transform="rotate(-9.335 -1654.638 3884.362)" style="line-height:1.25;-inkscape-font-specification:'DM Sans, Normal';font-variant-ligatures:normal;font-variant-caps:normal;font-variant-numeric:normal;font-variant-east-asian:normal;white-space:pre;shape-inside:url(#d)" x="745.71" y="589.404" font-weight="400" font-size="4.586" font-family="DM Sans" letter-spacing="0" word-spacing="0" fill="#1a1a1a"><tspan x="731.709" y="584.085"><tspan style="-inkscape-font-specification:'DM Sans, Normal';font-variant-ligatures:normal;font-variant-caps:normal;font-variant-numeric:normal;font-variant-east-asian:normal">6</tspan></tspan></text><text transform="rotate(-9.335 -1666.679 3741.034)" style="line-height:1.25;-inkscape-font-specification:'DM Sans, Normal';font-variant-ligatures:normal;font-variant-caps:normal;font-variant-numeric:normal;font-variant-east-asian:normal;white-space:pre;shape-inside:url(#d)" x="748.51" y="589.404" font-weight="400" font-size="4.586" font-family="DM Sans" letter-spacing="0" word-spacing="0" fill="#1a1a1a"><tspan x="731.709" y="584.085"><tspan style="-inkscape-font-specification:'DM Sans, Normal';font-variant-ligatures:normal;font-variant-caps:normal;font-variant-numeric:normal;font-variant-east-asian:normal">7</tspan></tspan></text><text transform="rotate(-9.335 -1677.83 3600.29)" style="line-height:1.25;-inkscape-font-specification:'DM Sans, Normal';font-variant-ligatures:normal;font-variant-caps:normal;font-variant-numeric:normal;font-variant-east-asian:normal;white-space:pre;shape-inside:url(#d)" x="751.31" y="589.404" font-weight="400" font-size="4.586" font-family="DM Sans" letter-spacing="0" word-spacing="0" fill="#1a1a1a"><tspan x="731.709" y="584.085"><tspan style="-inkscape-font-specification:'DM Sans, Normal';font-variant-ligatures:normal;font-variant-caps:normal;font-variant-numeric:normal;font-variant-east-asian:normal">8</tspan></tspan></text><text transform="rotate(-9.335 -1689.387 3458.733)" style="line-height:1.25;-inkscape-font-specification:'DM Sans, Normal';font-variant-ligatures:normal;font-variant-caps:normal;font-variant-numeric:normal;font-variant-east-asian:normal;white-space:pre;shape-inside:url(#d)" x="754.11" y="589.404" font-weight="400" font-size="4.586" font-family="DM Sans" letter-spacing="0" word-spacing="0" fill="#1a1a1a"><tspan x="731.709" y="584.085"><tspan style="-inkscape-font-specification:'DM Sans, Normal';font-variant-ligatures:normal;font-variant-caps:normal;font-variant-numeric:normal;font-variant-east-asian:normal">9</tspan></tspan></text><g fill="#1a1a1a" font-weight="400" font-size="4.586" font-family="DM Sans" letter-spacing="0" word-spacing="0"><text y="589.404" x="731.709" style="line-height:1.25;-inkscape-font-specification:'DM Sans, Normal';font-variant-ligatures:normal;font-variant-caps:normal;font-variant-numeric:normal;font-variant-east-asian:normal;white-space:pre;shape-inside:url(#e)" transform="rotate(-9.335 -1724.058 3038.222)"><tspan x="731.709" y="584.085"><tspan style="-inkscape-font-specification:'DM Sans, Normal';font-variant-ligatures:normal;font-variant-caps:normal;font-variant-numeric:normal;font-variant-east-asian:normal">1</tspan></tspan></text><text transform="rotate(-9.335 -1724.78 3025.23)" style="line-height:1.25;-inkscape-font-specification:'DM Sans, Normal';font-variant-ligatures:normal;font-variant-caps:normal;font-variant-numeric:normal;font-variant-east-asian:normal;white-space:pre;shape-inside:url(#f)" x="734.509" y="589.404"><tspan x="731.709" y="584.085"><tspan style="-inkscape-font-specification:'DM Sans, Normal';font-variant-ligatures:normal;font-variant-caps:normal;font-variant-numeric:normal;font-variant-east-asian:normal">2</tspan></tspan></text></g><g fill="#1a1a1a" font-weight="400" font-size="4.586" font-family="DM Sans" letter-spacing="0" word-spacing="0"><text y="589.404" x="756.91" style="line-height:1.25;-inkscape-font-specification:'DM Sans, Normal';font-variant-ligatures:normal;font-variant-caps:normal;font-variant-numeric:normal;font-variant-east-asian:normal;white-space:pre;shape-inside:url(#d)" transform="rotate(-9.335 -1701.37 3311.961)"><tspan x="731.709" y="584.085"><tspan style="-inkscape-font-specification:'DM Sans, Normal';font-variant-ligatures:normal;font-variant-caps:normal;font-variant-numeric:normal;font-variant-east-asian:normal">0</tspan></tspan></text><text transform="rotate(-9.335 -1700.833 3322.695)" style="line-height:1.25;-inkscape-font-specification:'DM Sans, Normal';font-variant-ligatures:normal;font-variant-caps:normal;font-variant-numeric:normal;font-variant-east-asian:normal;white-space:pre;shape-inside:url(#g)" x="731.709" y="589.404"><tspan x="731.709" y="584.085"><tspan style="-inkscape-font-specification:'DM Sans, Normal';font-variant-ligatures:normal;font-variant-caps:normal;font-variant-numeric:normal;font-variant-east-asian:normal">1</tspan></tspan></text></g></g><g paint-order="stroke markers fill"><path d="M480.996 46.223c1.437-1.362 5.203-.082 6.673.378l-.6.996.956.593.64-.942c2.289 1.449 3.913 3.991 3.655 5.073.042.237-.66 1.722-1.503 1.607l-3.133-1.411-4.24-2.451-.46-.266-.05-.357-2.25-1.257c-.287-.757-.064-1.627.312-1.963z" fill="#4d4d4d"/><path d="M482.326 50.929c.118-.224.439-.818.659-1.129 1.867 1.066 3.074 1.746 4.7 2.717-.037.06-.06.091-.072.111l.176.24-.548.871-5.41-2.206.106-.16.262.01.102-.184a5.76 5.76 0 01-.1-.147l.125-.123z" fill="#4d4d4d"/><path d="M482.985 49.8c1.586.892 3.14 1.807 4.7 2.717l-.072.111c-1.21-.506-3.349-1.776-5.287-1.7.148-.272.25-.537.659-1.128z" fill="#333"/><path d="M481.83 51.533c.715.29 3.888 1.578 5.41 2.206l.039.533c-1.21-.506-5.755-2.423-5.755-2.423a.863.863 0 01.103-.154c.065-.056.203-.16.204-.162z" fill="#666"/><path d="M481.931 52.4c.253.07 3.425 1.41 4.72 1.992l.628-.12a1220.91 1220.91 0 00-5.755-2.423c.09.136.298.404.407.552z" fill="#333"/><path d="M481.931 52.4c.486.157 3.104 1.265 4.72 1.992l-.227.205a521.985 521.985 0 01-4.583-2.069c.05-.076.09-.126.09-.127z" fill="#4d4d4d"/><path d="M481.813 52.515c.681.306 3.108 1.409 4.611 2.082l.06.027c.02.047.131.272.395.905-1.729-.541-4.586-1.847-6.185-2.51.017-.032.204-.397.23-.418.065-.056.888-.084.889-.086z" fill="#666"/><path d="M481.01 53.515c.252.07 3.65 1.531 4.946 2.112l.923-.098c-1.253-.538-6.185-2.51-6.185-2.51.047.07.206.348.315.496z" fill="#333"/><path d="M481.01 53.515c.897.338 3.383 1.412 4.886 2.085l.06.027c.02.047.119.243.383.877-1.73-.542-4.586-1.847-6.185-2.511.017-.031.203-.396.23-.418.065-.055.485-.05.625-.06z" fill="#666"/><path d="M480.487 54.519c.253.069 3.57 1.509 4.865 2.09l.987-.105c-1.254-.539-6.185-2.511-6.185-2.511.091.136.224.378.333.526z" fill="#333"/><path d="M480.487 54.519c.57.17 3.26 1.372 4.865 2.09.02.047.132.271.395.905-1.729-.542-4.585-1.847-6.184-2.511.017-.031.203-.396.23-.418.105-.01.554-.057.694-.066z" fill="#666"/><path d="M479.878 55.5c.252.07 3.65 1.53 4.946 2.111l.923-.097c-1.253-.539-6.184-2.511-6.184-2.511.05.077.205.349.315.497z" fill="#333"/><path d="M479.878 55.5c.57.17 3.34 1.394 4.946 2.111.021.048.12.244.383.878-1.729-.542-4.586-1.848-6.184-2.511.017-.031.203-.397.23-.418.104-.01.484-.051.625-.06z" fill="#666"/><path d="M479.356 56.503c.252.07 3.569 1.51 4.864 2.09l.987-.104c-1.253-.54-6.184-2.511-6.184-2.511.09.136.223.377.333.525z" fill="#333"/><path d="M479.356 56.503c.57.171 3.259 1.372 4.864 2.09.021.047.132.272.396.906-1.73-.542-4.586-1.848-6.185-2.512.017-.03.204-.396.23-.417.105-.01.554-.058.695-.067z" fill="#666"/><path d="M478.746 57.484c.253.07 3.651 1.532 4.947 2.112l.923-.097c-1.253-.54-6.185-2.512-6.185-2.512.091.136.206.35.315.497z" fill="#333"/><path d="M478.746 57.484c.57.171 3.341 1.395 4.947 2.112.02.048.119.244.383.877-1.73-.541-4.586-1.847-6.185-2.51.017-.032.203-.397.23-.419.105-.01.485-.05.625-.06z" fill="#666"/><path d="M478.224 58.488c.253.07 3.57 1.509 4.865 2.09l.987-.105c-1.254-.539-6.185-2.51-6.185-2.51.09.135.224.377.333.525z" fill="#333"/><path d="M478.224 58.488c.57.17 3.26 1.372 4.865 2.09.02.047.131.271.395.905-1.729-.542-4.586-1.847-6.184-2.51.017-.032.203-.397.23-.419.105-.01.554-.057.694-.066z" fill="#666"/><path d="M477.615 59.47c.252.068 3.65 1.53 4.946 2.11l.923-.097c-1.253-.539-6.184-2.511-6.184-2.511.09.136.205.35.315.497z" fill="#333"/><path d="M477.615 59.47c.57.17 3.34 1.393 4.946 2.11.02.048.12.244.383.878-1.777-.666-4.595-1.872-6.185-2.511.017-.031.204-.396.23-.418.105-.01.485-.05.626-.06z" fill="#666"/><path d="M477.092 60.472c.253.07 3.57 1.51 4.865 2.09l.987-.104c-1.253-.539-6.185-2.511-6.185-2.511.073.113.224.378.333.525z" fill="#333"/><path d="M477.092 60.472c.57.171 3.26 1.372 4.865 2.09.021.047.132.272.396.906-1.777-.666-4.596-1.872-6.185-2.511.017-.031.203-.396.23-.418.105-.01.554-.057.694-.067z" fill="#666"/><path d="M476.483 61.454c.252.069 3.65 1.53 4.946 2.111l.924-.097c-1.253-.539-6.185-2.511-6.185-2.511.073.113.206.349.315.497z" fill="#333"/><path d="M476.483 61.454c.57.17 3.34 1.394 4.946 2.111.021.048.12.244.383.877-1.777-.666-4.595-1.871-6.184-2.51.017-.032.203-.397.23-.418.105-.01.484-.051.625-.06z" fill="#666"/><path d="M475.96 62.457c.253.07 3.57 1.509 4.865 2.09l.987-.105c-1.253-.539-6.184-2.51-6.184-2.51.073.113.224.377.333.525z" fill="#333"/><path d="M475.96 62.457c.571.17 3.26 1.372 4.865 2.09.021.047.132.272.396.905-1.777-.666-4.595-1.871-6.185-2.51.018-.032.204-.397.23-.418.105-.01.554-.058.695-.067z" fill="#666"/><path d="M475.352 63.438c.252.07 3.65 1.531 4.946 2.112l.923-.098c-1.253-.539-6.185-2.51-6.185-2.51.073.113.206.348.316.496z" fill="#333"/><path d="M475.352 63.438c.57.171 3.34 1.394 4.946 2.112.02.047.119.243.383.877-1.777-.666-4.596-1.872-6.185-2.511.017-.031.204-.396.23-.418.105-.01.485-.05.626-.06z" fill="#666"/><path d="M474.83 64.442c.252.069 3.568 1.509 4.864 2.09l.987-.105c-1.253-.539-6.185-2.511-6.185-2.511.073.113.224.378.333.526z" fill="#333"/><path d="M474.83 64.442c.57.17 3.259 1.372 4.864 2.09.02.047.132.271.396.905-1.778-.666-4.596-1.872-6.185-2.511.017-.031.203-.396.23-.418.105-.01.554-.057.694-.066z" fill="#666"/><path d="M474.22 65.423c.252.07 3.65 1.53 4.946 2.112l.924-.098c-1.254-.539-6.185-2.511-6.185-2.511.073.113.205.349.315.497z" fill="#333"/><path d="M474.22 65.423c.57.17 3.34 1.394 4.946 2.112.02.047.12.243.383.876-1.777-.665-4.595-1.871-6.184-2.51.017-.032.203-.397.23-.418.104-.01.484-.051.625-.06z" fill="#666"/><path d="M473.842 66.654c.282.135 3.3 1.296 4.72 1.862l.987-.105c-1.253-.538-6.184-2.51-6.184-2.51.073.113.368.605.477.753z" fill="#333"/><path d="M478.287 68.973l-4.445-2.32c1.573.621 3.13 1.24 4.72 1.863z" fill="#4d4d4d"/><path d="M492.32 52.321c.23-.577-.527-3.202-3.654-5.073 3.246 4.641.208 5.435-.287 5.582l2.438 1.098c1.016-.025 1.246-.933 1.503-1.607z" fill="#666"/><path d="M480.97 46.248c.398-.52 1.717-.701 2.296-.63-3.068 1.583-.438 3.32-.333 3.825l-2.248-1.257c-.3-.792-.24-1.415.284-1.938z" fill="#3c3c3c"/></g><g paint-order="stroke markers fill"><path d="M459.567 107.542c-.365-1.946 2.754-4.416 3.937-5.4l.51 1.044 1.018-.482-.443-1.049c2.458-1.136 5.475-1.121 6.244-.317.222.093 1.087 1.489.534 2.134l-2.885 1.866-4.36 2.232-.472.242-.328-.15-2.276 1.206c-.792-.169-1.401-.829-1.48-1.326z" fill="#4d4d4d"/><path d="M464.24 108.977c-.124-.22-.448-.812-.59-1.165 1.91-.99 3.135-1.635 4.832-2.474.031.064.045.099.055.12l.297-.017.434.933-4.788 3.347-.077-.176.15-.215-.099-.185a5.76 5.76 0 01-.177.004l-.036-.172z" fill="#4d4d4d"/><path d="M463.65 107.812c1.61-.85 3.221-1.657 4.832-2.474l.055.12c-1.082.742-3.31 1.85-4.296 3.52-.149-.273-.316-.502-.59-1.166z" fill="#333"/><path d="M464.48 109.721c.63-.442 3.434-2.41 4.788-3.347l.469.257c-1.083.742-5.158 3.52-5.158 3.52a.863.863 0 01-.073-.17c-.012-.085-.025-.259-.026-.26z" fill="#666"/><path d="M465.263 110.108c.195-.175 3.043-2.112 4.234-2.886l.24-.591c-1.133.76-5.158 3.52-5.158 3.52.163-.003.5-.032.684-.043z" fill="#333"/><path d="M465.263 110.108c.395-.323 2.746-1.921 4.234-2.886l.049.303c-1.107.72-2.897 1.884-4.225 2.728-.037-.084-.057-.144-.058-.145z" fill="#4d4d4d"/><path d="M465.295 110.27c.626-.407 2.87-1.847 4.25-2.745l.055-.035c.051.008.3.037.976.159-1.393 1.159-4.04 2.85-5.465 3.833-.017-.031-.223-.386-.226-.42-.012-.085.411-.791.41-.792z" fill="#666"/><path d="M465.7 111.487c.194-.175 3.266-2.236 4.457-3.01l.419-.828c-1.133.76-5.465 3.833-5.465 3.833.084-.001.405.016.588.005z" fill="#333"/><path d="M465.7 111.487c.77-.57 3.021-2.077 4.402-2.974l.055-.035c.05.008.269.032.944.154-1.393 1.158-4.04 2.85-5.465 3.833-.016-.032-.222-.386-.226-.42-.012-.085.22-.435.29-.558z" fill="#666"/><path d="M466.259 112.47c.195-.175 3.204-2.18 4.394-2.953l.448-.885c-1.132.76-5.465 3.833-5.465 3.833.164-.003.44.017.623.005z" fill="#333"/><path d="M466.259 112.47c.453-.386 2.92-1.994 4.394-2.953.052.008.3.037.976.16-1.393 1.158-4.04 2.85-5.465 3.832-.017-.031-.222-.386-.226-.42.049-.093.252-.496.32-.619z" fill="#666"/><path d="M466.752 113.514c.195-.174 3.267-2.236 4.458-3.01l.419-.828c-1.133.76-5.465 3.833-5.465 3.833.092 0 .405.017.588.005z" fill="#333"/><path d="M466.752 113.514c.453-.386 2.984-2.05 4.458-3.01.051.01.269.033.945.155-1.394 1.159-4.04 2.85-5.465 3.833-.017-.031-.223-.386-.226-.42.048-.094.22-.435.288-.558z" fill="#666"/><path d="M467.312 114.497c.195-.174 3.204-2.18 4.395-2.953l.448-.885c-1.133.76-5.465 3.833-5.465 3.833.163-.003.438.017.622.005z" fill="#333"/><path d="M467.312 114.497c.453-.386 2.92-1.993 4.395-2.953.05.009.3.037.975.16-1.393 1.158-4.04 2.85-5.465 3.832-.017-.03-.222-.385-.226-.42.049-.093.252-.496.32-.619z" fill="#666"/><path d="M467.805 115.541c.196-.174 3.267-2.236 4.458-3.009l.42-.828c-1.133.76-5.466 3.832-5.466 3.832.164-.002.405.017.588.005z" fill="#333"/><path d="M467.805 115.541c.453-.386 2.984-2.05 4.458-3.009.051.009.27.032.945.154-1.394 1.16-4.04 2.85-5.465 3.833-.017-.031-.223-.386-.226-.42.048-.093.22-.435.288-.558z" fill="#666"/><path d="M468.365 116.525c.195-.175 3.204-2.18 4.395-2.953l.448-.886c-1.133.76-5.465 3.833-5.465 3.833.163-.003.439.017.622.006z" fill="#333"/><path d="M468.365 116.525c.453-.387 2.92-1.994 4.395-2.953.05.008.3.037.975.159-1.393 1.159-4.04 2.85-5.465 3.833-.016-.031-.222-.386-.226-.42.049-.093.253-.497.321-.62z" fill="#666"/><path d="M468.859 117.569c.195-.175 3.267-2.236 4.457-3.01l.42-.828c-1.134.76-5.466 3.833-5.466 3.833.164-.003.405.016.589.005z" fill="#333"/><path d="M468.859 117.569c.453-.386 2.983-2.05 4.457-3.01.051.009.27.032.945.155-1.524 1.131-4.066 2.844-5.465 3.833-.017-.032-.223-.386-.226-.42.048-.094.22-.435.289-.558z" fill="#666"/><path d="M469.418 118.552c.195-.175 3.204-2.18 4.395-2.953l.448-.885c-1.133.76-5.465 3.832-5.465 3.832.135 0 .439.017.622.006z" fill="#333"/><path d="M469.418 118.552c.453-.386 2.921-1.994 4.395-2.953.05.008.3.037.975.16-1.523 1.13-4.065 2.844-5.465 3.832-.016-.031-.222-.386-.226-.42.049-.093.253-.496.321-.62z" fill="#666"/><path d="M469.912 119.596c.195-.174 3.267-2.236 4.457-3.01l.42-.828c-1.133.76-5.466 3.833-5.466 3.833.135 0 .405.017.589.005z" fill="#333"/><path d="M469.912 119.596c.452-.386 2.983-2.05 4.457-3.01.051.01.27.033.945.155-1.524 1.131-4.066 2.845-5.465 3.833-.017-.031-.222-.386-.226-.42.049-.093.22-.435.289-.558z" fill="#666"/><path d="M470.471 120.58c.195-.175 3.204-2.18 4.395-2.953l.448-.886c-1.133.76-5.465 3.833-5.465 3.833.135 0 .439.017.622.005z" fill="#333"/><path d="M470.471 120.58c.453-.387 2.921-1.994 4.395-2.953.051.008.3.036.975.159-1.523 1.131-4.065 2.844-5.465 3.832-.016-.03-.222-.386-.225-.42.048-.093.252-.496.32-.619z" fill="#666"/><path d="M470.965 121.623c.195-.174 3.267-2.236 4.457-3.009l.42-.828c-1.133.76-5.466 3.832-5.466 3.832.135 0 .405.017.589.005z" fill="#333"/><path d="M470.965 121.623c.453-.386 2.983-2.05 4.457-3.009.051.008.27.032.945.154-1.524 1.132-4.066 2.845-5.465 3.833-.017-.031-.222-.386-.226-.42.049-.093.22-.435.289-.558z" fill="#666"/><path d="M471.524 122.607c.196-.175 3.204-2.18 4.395-2.953l.448-.886c-1.133.76-5.465 3.833-5.465 3.833.135 0 .439.017.622.006z" fill="#333"/><path d="M471.524 122.607c.453-.387 2.921-1.994 4.395-2.953.051.008.3.037.976.159-1.524 1.132-4.066 2.845-5.465 3.833-.017-.031-.223-.386-.226-.42.048-.093.252-.497.32-.62z" fill="#666"/><path d="M472.018 123.65c.195-.174 3.267-2.235 4.457-3.008l.42-.83c-1.133.761-5.465 3.834-5.465 3.834.135 0 .404.016.588.005z" fill="#333"/><path d="M472.018 123.65c.453-.385 2.984-2.05 4.457-3.008.052.008.27.031.945.154-1.524 1.131-4.065 2.844-5.465 3.832-.017-.03-.222-.386-.226-.42.049-.093.22-.434.289-.557z" fill="#666"/><path d="M472.847 124.636c.267-.164 2.879-2.068 4.125-2.955l.448-.885c-1.133.76-5.465 3.832-5.465 3.832.135 0 .708.02.892.008z" fill="#333"/><path d="M477.207 122.16l-4.36 2.476c1.375-.985 2.74-1.957 4.125-2.955z" fill="#4d4d4d"/><path d="M470.833 101.338c-.36-.506-2.976-1.294-6.244.317 5.66-.208 4.678 2.774 4.533 3.27l2.245-1.453c.53-.867-.107-1.552-.534-2.134z" fill="#666"/><path d="M459.573 107.578c-.22-.618.343-1.824.717-2.27-.335 3.435 2.55 2.167 3.032 2.353l-2.276 1.207c-.827-.177-1.318-.566-1.473-1.29z" fill="#3c3c3c"/></g><g paint-order="stroke markers fill"><path d="M459.046 211.614c.103-.19.732-.379 1.02-.241l8.316 4.345c.492.39.412.899.384.975-1.784 1.35-1.843 1.181-3.817 2.511-1.936-1.01-3.885-2.026-5.787-3.024-1.399-1.053-.465-2.93-.116-4.566z" fill="gray"/><path d="M461.235 212.407c1.78.623 3.785 1.608 5.55 2.887l-1.999 3.826-5.542-2.897z" fill="#4d4d4d"/><path d="M459.046 211.614c.306-.271 1.577.196 2.093.739l-1.976 3.827c-.694-.36-1.732-.883-1.944-1.022.606-1.254 1.218-2.363 1.827-3.544z" fill="#333"/><path d="M468.766 216.693c.048-.406-1.061-1.183-1.802-1.297l-2.013 3.809 1.95 1.011z" fill="#999"/><path d="M459.244 216.223c1.672.867 3.668 1.919 5.542 2.897l-.498.92-5.879-2.298z" fill="#4d4d4d"/><path d="M459.244 216.223c.428.198 4.575 2.426 5.542 2.897l-.061.113c-.632-.364-5.15-2.843-5.837-2.362l.357-.648z" fill="#2f2f2f"/><path d="M464.288 220.04c-1.293-.55-5.221-2.107-5.879-2.298l-.625.155 6.864 2.655z" fill="#666"/><path d="M464.008 220.702c-1.299-.511-5.31-2.093-5.868-2.294l-.356-.511c2.27.797 4.49 1.713 6.864 2.655zM463.683 221.347c-1.298-.512-5.272-2.086-5.829-2.287l-.356-.51c2.27.796 4.496 1.722 6.87 2.664z" fill="#333"/><path d="M464.008 220.702c-1.293-.55-5.22-2.107-5.878-2.298l-.626.155 6.864 2.655zM463.683 221.347c-1.293-.55-5.171-2.095-5.829-2.287l-.682.134 6.865 2.655z" fill="#666"/><path d="M463.352 221.982c-1.3-.512-5.272-2.086-5.83-2.286l-.35-.502c2.27.797 4.49 1.713 6.865 2.655z" fill="#333"/><path d="M463.352 221.982c-1.293-.551-5.172-2.095-5.83-2.286l-.681.133 6.864 2.655z" fill="#666"/><path d="M463.02 222.617c-1.299-.512-5.272-2.086-5.829-2.286l-.35-.502c2.27.797 4.49 1.713 6.864 2.655z" fill="#333"/><path d="M463.02 222.617c-1.293-.551-5.172-2.095-5.829-2.286l-.682.133 6.864 2.655z" fill="#666"/><path d="M462.688 223.251c-1.299-.511-5.272-2.085-5.829-2.286l-.35-.501c2.27.796 4.49 1.712 6.864 2.655z" fill="#333"/><path d="M462.688 223.251c-1.293-.55-5.171-2.094-5.829-2.286l-.682.133 6.865 2.656z" fill="#666"/><path d="M462.356 223.886c-1.298-.511-5.271-2.085-5.828-2.286l-.35-.502c2.27.797 4.49 1.713 6.863 2.656z" fill="#333"/><path d="M462.356 223.886c-1.292-.55-5.17-2.095-5.828-2.286l-.682.133 6.864 2.656z" fill="#666"/><path d="M462.025 224.521c-1.3-.511-5.272-2.085-5.83-2.286l-.35-.502c2.27.797 4.49 1.713 6.865 2.656z" fill="#333"/><path d="M462.025 224.521c-1.293-.55-5.172-2.095-5.83-2.286l-.681.133 6.864 2.656z" fill="#666"/><path d="M461.693 225.156c-1.299-.511-5.272-2.085-5.829-2.286l-.35-.502c2.27.797 4.49 1.713 6.864 2.656z" fill="#333"/><path d="M461.693 225.156c-1.293-.55-5.171-2.095-5.829-2.286l-.682.133 6.865 2.656z" fill="#666"/><path d="M461.361 225.79c-1.299-.51-5.272-2.084-5.829-2.285l-.35-.502c2.27.797 4.49 1.713 6.864 2.655z" fill="#333"/><path d="M461.361 225.79c-1.293-.55-5.171-2.094-5.829-2.285l-.682.133 6.865 2.656z" fill="#666"/><path d="M461.03 226.425c-1.3-.511-5.273-2.085-5.83-2.286l-.35-.501c2.27.796 4.49 1.712 6.864 2.655z" fill="#333"/><path d="M461.03 226.425c-1.294-.55-5.172-2.094-5.83-2.286l-.682.133 6.865 2.656z" fill="#666"/><path d="M460.698 227.06c-1.299-.511-5.272-2.085-5.829-2.286l-.35-.501c2.27.796 4.49 1.712 6.864 2.655z" fill="#333"/><path d="M460.698 227.06c-1.293-.55-5.172-2.094-5.829-2.286l-.682.133 6.864 2.656z" fill="#666"/><path d="M460.366 227.695c-1.299-.511-5.272-2.085-5.829-2.286l-.35-.502c2.27.797 4.49 1.713 6.864 2.656z" fill="#333"/><path d="M460.366 227.695c-1.293-.55-5.171-2.094-5.829-2.286l-.682.133 6.865 2.656z" fill="#666"/><path d="M460.034 228.33c-1.298-.511-5.272-2.085-5.828-2.286l-.35-.502c2.27.797 4.49 1.713 6.863 2.656z" fill="#333"/><path d="M460.034 228.33c-1.293-.55-5.171-2.094-5.828-2.286l-.682.133 6.864 2.656z" fill="#666"/><path d="M459.703 228.965c-1.3-.512-5.272-2.085-5.83-2.286l-.35-.502c2.27.797 4.49 1.713 6.865 2.656z" fill="#333"/><path d="M459.703 228.965c-1.293-.55-5.172-2.095-5.83-2.286l-.681.133 6.864 2.656z" fill="#666"/><path d="M459.416 229.617c-1.434-.55-5.28-2.038-5.831-2.242l-.393-.563c2.27.797 4.535 1.73 6.91 2.673z" fill="#333"/><path d="M459.416 229.617l-.15.294-5.682-2.536c1.263.486 4.147 1.55 5.832 2.242z" fill="#4d4d4d"/></g><g paint-order="stroke markers fill"><path d="M484.018 13.29c.16-.141.816-.103 1.04.125l6.316 6.939c.328.535.078.985.026 1.047-2.14.654-2.138.476-4.448 1.047-1.47-1.615-2.952-3.239-4.395-4.83-.952-1.469.57-2.91 1.46-4.327z" fill="gray"/><path d="M485.8 14.787c1.457 1.198 3.002 2.812 4.22 4.62l-3.192 2.905-4.209-4.624z" fill="#4d4d4d"/><path d="M484.018 13.29c.38-.149 1.413.727 1.711 1.414l-3.172 2.915c-.527-.577-1.322-1.425-1.473-1.628 1-.97 1.956-1.8 2.934-2.7z" fill="#333"/><path d="M491.4 21.401c.184-.364-.59-1.475-1.247-1.837l-3.2 2.885 1.483 1.62z" fill="#999"/><path d="M482.62 17.688c1.271 1.388 2.784 3.062 4.208 4.624l-.785.693-4.73-4.178z" fill="#4d4d4d"/><path d="M482.62 17.688c.333.332 3.461 3.85 4.208 4.624l-.097.086c-.468-.56-3.859-4.44-4.669-4.224l.557-.486z" fill="#2f2f2f"/><path d="M486.043 23.005c-1.025-.961-4.178-3.773-4.73-4.178l-.64-.07 5.533 4.853z" fill="#666"/><path d="M485.553 23.53c-1.043-.926-4.268-3.79-4.721-4.17l-.16-.603c1.858 1.529 3.628 3.152 5.534 4.853zM485.027 24.025c-1.044-.927-4.234-3.771-4.688-4.15l-.16-.603c1.858 1.528 3.631 3.163 5.537 4.864z" fill="#333"/><path d="M485.553 23.53c-1.025-.96-4.178-3.772-4.73-4.178l-.64-.07 5.533 4.854zM485.027 24.025c-1.025-.962-4.137-3.745-4.688-4.15l-.686-.11 5.533 4.853z" fill="#666"/><path d="M484.497 24.507c-1.044-.927-4.234-3.77-4.688-4.15l-.156-.592c1.857 1.528 3.628 3.152 5.533 4.853z" fill="#333"/><path d="M484.497 24.507c-1.025-.962-4.136-3.745-4.688-4.15l-.686-.11 5.533 4.854z" fill="#666"/><path d="M483.967 24.99c-1.044-.928-4.234-3.771-4.688-4.151l-.156-.592c1.858 1.529 3.628 3.152 5.533 4.853z" fill="#333"/><path d="M483.967 24.99c-1.025-.962-4.136-3.745-4.688-4.151l-.686-.11 5.534 4.854z" fill="#666"/><path d="M483.438 25.471c-1.044-.927-4.234-3.77-4.688-4.15l-.157-.592c1.858 1.529 3.628 3.152 5.533 4.853z" fill="#333"/><path d="M483.438 25.471c-1.025-.961-4.137-3.744-4.688-4.15l-.687-.11 5.534 4.854z" fill="#666"/><path d="M482.908 25.953c-1.044-.926-4.234-3.77-4.688-4.15l-.157-.591c1.858 1.528 3.628 3.151 5.534 4.852z" fill="#333"/><path d="M482.908 25.953c-1.025-.961-4.136-3.744-4.688-4.15l-.686-.11 5.533 4.854z" fill="#666"/><path d="M482.378 26.436c-1.044-.927-4.234-3.77-4.688-4.15l-.156-.592c1.858 1.528 3.628 3.151 5.533 4.853z" fill="#333"/><path d="M482.378 26.436c-1.025-.962-4.136-3.745-4.688-4.15l-.686-.11 5.533 4.853z" fill="#666"/><path d="M481.848 26.918c-1.043-.927-4.234-3.77-4.688-4.15l-.156-.592c1.858 1.528 3.628 3.152 5.533 4.853z" fill="#333"/><path d="M481.848 26.918c-1.024-.962-4.136-3.745-4.688-4.15l-.686-.11 5.534 4.853z" fill="#666"/><path d="M481.319 27.4c-1.044-.927-4.234-3.77-4.688-4.15l-.157-.592c1.858 1.528 3.628 3.152 5.534 4.853z" fill="#333"/><path d="M481.319 27.4c-1.025-.962-4.137-3.745-4.688-4.15l-.686-.11 5.533 4.853z" fill="#666"/><path d="M480.789 27.882c-1.044-.927-4.234-3.77-4.688-4.15l-.157-.592c1.858 1.528 3.628 3.151 5.534 4.853z" fill="#333"/><path d="M480.789 27.882c-1.025-.962-4.137-3.745-4.688-4.15l-.686-.11 5.533 4.853z" fill="#666"/><path d="M480.26 28.364c-1.045-.927-4.235-3.77-4.689-4.15l-.156-.592c1.858 1.529 3.628 3.152 5.533 4.853z" fill="#333"/><path d="M480.26 28.364c-1.026-.961-4.137-3.744-4.689-4.15l-.686-.11 5.534 4.854z" fill="#666"/><path d="M479.73 28.846c-1.044-.927-4.234-3.77-4.688-4.15l-.157-.592c1.858 1.529 3.628 3.152 5.533 4.853z" fill="#333"/><path d="M479.73 28.846c-1.025-.961-4.137-3.744-4.688-4.15l-.686-.11 5.533 4.854z" fill="#666"/><path d="M479.2 29.329c-1.044-.927-4.234-3.77-4.688-4.15l-.157-.592c1.858 1.528 3.628 3.151 5.534 4.853z" fill="#333"/><path d="M479.2 29.329c-1.025-.962-4.136-3.745-4.688-4.15l-.686-.11 5.533 4.853z" fill="#666"/><path d="M478.67 29.81c-1.044-.926-4.234-3.77-4.688-4.15l-.156-.591c1.858 1.528 3.628 3.151 5.533 4.853z" fill="#333"/><path d="M478.67 29.81c-1.025-.961-4.136-3.744-4.688-4.15l-.686-.11 5.534 4.854z" fill="#666"/><path d="M478.177 30.325c-1.158-1.01-4.259-3.73-4.706-4.11l-.175-.664c1.858 1.528 3.664 3.183 5.57 4.885z" fill="#333"/><path d="M478.177 30.325l-.243.223-4.463-4.334c1.019.89 3.362 2.88 4.706 4.11z" fill="#4d4d4d"/></g><g paint-order="stroke markers fill"><path d="M489.491 95.372c-.13.172-.78.265-1.044.086l-7.573-5.54c-.428-.459-.273-.95-.234-1.021 1.966-1.068 2-.893 4.15-1.913 1.763 1.289 3.538 2.585 5.27 3.856 1.225 1.25.022 2.967-.569 4.532z" fill="gray"/><path d="M487.446 94.261c-1.667-.883-3.502-2.156-5.056-3.685l2.548-3.484 5.047 3.693z" fill="#4d4d4d"/><path d="M489.491 95.372c-.343.223-1.53-.43-1.959-1.043l2.527-3.49c.632.46 1.58 1.133 1.769 1.302-.787 1.15-1.558 2.154-2.337 3.231z" fill="#333"/><path d="M480.64 88.897c-.108.394.873 1.328 1.588 1.551l2.56-3.465-1.776-1.291z" fill="#999"/><path d="M489.985 90.785c-1.523-1.107-3.34-2.446-5.047-3.693l.631-.835 5.468 3.151z" fill="#4d4d4d"/><path d="M489.985 90.785c-.394-.26-4.16-3.083-5.047-3.693l.078-.103c.57.455 4.667 3.582 5.418 3.209l-.45.587z" fill="#2f2f2f"/><path d="M485.569 86.257c1.196.738 4.847 2.864 5.468 3.151l.642-.06-6.39-3.652z" fill="#666"/><path d="M485.944 85.644c1.208.7 4.938 2.864 5.46 3.146l.275.558c-2.125-1.127-4.183-2.364-6.39-3.652zM486.362 85.055c1.207.7 4.9 2.85 5.422 3.133l.276.558c-2.126-1.127-4.189-2.375-6.395-3.662z" fill="#333"/><path d="M485.944 85.644c1.196.738 4.847 2.864 5.469 3.151l.642-.06-6.39-3.651zM486.362 85.055c1.196.738 4.8 2.845 5.422 3.133l.694-.03-6.39-3.653z" fill="#666"/><path d="M486.785 84.477c1.208.7 4.9 2.85 5.421 3.132l.272.548c-2.126-1.127-4.184-2.364-6.39-3.652z" fill="#333"/><path d="M486.785 84.477c1.196.738 4.8 2.844 5.421 3.132l.694-.03-6.39-3.652z" fill="#666"/><path d="M487.208 83.899c1.208.7 4.9 2.85 5.421 3.132l.272.548c-2.126-1.127-4.184-2.365-6.39-3.652z" fill="#333"/><path d="M487.208 83.899c1.196.738 4.8 2.844 5.421 3.132l.694-.03-6.39-3.652z" fill="#666"/><path d="M487.63 83.32c1.208.7 4.901 2.851 5.422 3.133l.271.548c-2.125-1.127-4.183-2.365-6.39-3.652z" fill="#333"/><path d="M487.63 83.32c1.197.739 4.8 2.845 5.422 3.133l.694-.03-6.39-3.652z" fill="#666"/><path d="M488.054 82.743c1.207.7 4.9 2.85 5.421 3.132l.271.548c-2.125-1.127-4.183-2.365-6.39-3.652z" fill="#333"/><path d="M488.054 82.743c1.196.738 4.8 2.844 5.421 3.132l.694-.03-6.39-3.652z" fill="#666"/><path d="M488.477 82.164c1.207.7 4.9 2.85 5.421 3.133l.271.548c-2.125-1.127-4.183-2.365-6.39-3.652z" fill="#333"/><path d="M488.477 82.164c1.196.738 4.8 2.845 5.421 3.133l.694-.03-6.39-3.652z" fill="#666"/><path d="M488.9 81.586c1.207.7 4.9 2.85 5.421 3.132l.271.549c-2.125-1.127-4.183-2.365-6.39-3.652z" fill="#333"/><path d="M488.9 81.586c1.196.738 4.8 2.845 5.421 3.132l.694-.03-6.39-3.652z" fill="#666"/><path d="M489.322 81.008c1.208.7 4.901 2.85 5.422 3.132l.271.549c-2.125-1.127-4.183-2.365-6.39-3.652z" fill="#333"/><path d="M489.322 81.008c1.196.738 4.8 2.845 5.422 3.132l.694-.03-6.39-3.652z" fill="#666"/><path d="M489.746 80.43c1.207.7 4.9 2.85 5.421 3.133l.271.548c-2.125-1.127-4.183-2.365-6.39-3.652z" fill="#333"/><path d="M489.746 80.43c1.196.738 4.8 2.845 5.421 3.133l.694-.03-6.39-3.652z" fill="#666"/><path d="M490.168 79.852c1.208.7 4.901 2.85 5.422 3.132l.271.549c-2.125-1.128-4.184-2.365-6.39-3.652z" fill="#333"/><path d="M490.168 79.852c1.196.738 4.8 2.845 5.422 3.132l.694-.03-6.39-3.652z" fill="#666"/><path d="M490.591 79.274c1.208.7 4.901 2.85 5.422 3.132l.27.549c-2.124-1.128-4.183-2.365-6.389-3.652z" fill="#333"/><path d="M490.591 79.274c1.196.738 4.8 2.845 5.422 3.132l.694-.03-6.39-3.652z" fill="#666"/><path d="M491.014 78.696c1.208.7 4.901 2.85 5.422 3.132l.27.548c-2.124-1.127-4.183-2.364-6.389-3.652z" fill="#333"/><path d="M491.014 78.696c1.196.738 4.8 2.844 5.422 3.132l.694-.03-6.39-3.652z" fill="#666"/><path d="M491.437 78.118c1.208.7 4.9 2.85 5.421 3.132l.272.548c-2.126-1.127-4.184-2.364-6.39-3.652z" fill="#333"/><path d="M491.437 78.118c1.196.738 4.8 2.844 5.421 3.132l.695-.03-6.39-3.652z" fill="#666"/><path d="M491.818 77.516c1.336.758 4.917 2.805 5.43 3.09l.305.614c-2.126-1.127-4.226-2.389-6.432-3.676z" fill="#333"/><path d="M491.818 77.516l.193-.268 5.238 3.357c-1.176-.669-3.869-2.152-5.431-3.09z" fill="#4d4d4d"/></g><g paint-order="stroke markers fill"><path d="M491.802 223.586c-.11.185-.745.35-1.028.202l-8.144-4.66c-.477-.408-.378-.913-.347-.988 1.834-1.28 1.887-1.11 3.91-2.364 1.896 1.083 3.805 2.173 5.667 3.242 1.358 1.106.354 2.946-.058 4.568z" fill="gray"/><path d="M489.646 222.71c-1.756-.691-3.722-1.751-5.437-3.097l2.143-3.747 5.428 3.106z" fill="#4d4d4d"/><path d="M491.802 223.586c-.316.259-1.568-.256-2.063-.818l2.12-3.75c.68.387 1.698.949 1.904 1.096-.653 1.23-1.307 2.315-1.961 3.472z" fill="#333"/><path d="M482.283 218.14c-.064.403 1.015 1.222 1.75 1.364l2.158-3.729-1.91-1.085z" fill="#999"/><path d="M491.78 218.972c-1.637-.93-3.592-2.057-5.428-3.106l.534-.9 5.786 2.52z" fill="#4d4d4d"/><path d="M491.78 218.972c-.42-.214-4.479-2.599-5.428-3.106l.066-.11c.618.387 5.038 3.037 5.742 2.582l-.38.634z" fill="#2f2f2f"/><path d="M486.886 214.966c1.27.6 5.136 2.304 5.786 2.52l.631-.13-6.758-2.916z" fill="#666"/><path d="M487.19 214.315c1.279.56 5.228 2.294 5.776 2.516l.337.524c-2.238-.882-4.421-1.882-6.758-2.915zM487.54 213.683c1.278.56 5.188 2.285 5.737 2.507l.337.524c-2.238-.882-4.428-1.892-6.764-2.925z" fill="#333"/><path d="M487.19 214.315c1.271.6 5.137 2.304 5.787 2.52l.63-.13-6.757-2.916zM487.54 213.683c1.27.6 5.088 2.29 5.737 2.507l.687-.107-6.758-2.916z" fill="#666"/><path d="M487.895 213.061c1.279.56 5.189 2.285 5.738 2.507l.33.515c-2.237-.883-4.421-1.883-6.757-2.916z" fill="#333"/><path d="M487.895 213.061c1.271.6 5.088 2.29 5.738 2.507l.686-.107-6.758-2.916z" fill="#666"/><path d="M488.251 212.44c1.278.56 5.189 2.284 5.737 2.506l.331.515c-2.238-.883-4.421-1.883-6.758-2.916z" fill="#333"/><path d="M488.251 212.44c1.271.599 5.088 2.29 5.737 2.506l.687-.107-6.758-2.916z" fill="#666"/><path d="M488.607 211.818c1.278.56 5.188 2.285 5.737 2.506l.331.515c-2.238-.883-4.422-1.883-6.758-2.915z" fill="#333"/><path d="M488.607 211.818c1.27.6 5.087 2.29 5.737 2.506l.687-.107-6.759-2.915z" fill="#666"/><path d="M488.962 211.196c1.279.56 5.189 2.285 5.738 2.507l.33.514c-2.237-.882-4.421-1.882-6.757-2.915z" fill="#333"/><path d="M488.962 211.196c1.271.6 5.088 2.29 5.738 2.507l.686-.107-6.758-2.916z" fill="#666"/><path d="M489.318 210.574c1.278.56 5.189 2.285 5.737 2.507l.331.515c-2.238-.883-4.421-1.883-6.757-2.916z" fill="#333"/><path d="M489.318 210.574c1.271.6 5.088 2.29 5.737 2.507l.687-.107-6.758-2.916z" fill="#666"/><path d="M489.674 209.952c1.278.561 5.188 2.285 5.737 2.507l.331.515c-2.238-.883-4.422-1.883-6.758-2.915z" fill="#333"/><path d="M489.674 209.952c1.27.6 5.088 2.29 5.737 2.507l.687-.107-6.758-2.916z" fill="#666"/><path d="M490.03 209.33c1.278.561 5.188 2.286 5.737 2.507l.33.515c-2.237-.883-4.42-1.883-6.757-2.915z" fill="#333"/><path d="M490.03 209.33c1.27.6 5.087 2.291 5.737 2.507l.686-.106-6.758-2.916z" fill="#666"/><path d="M490.385 208.71c1.279.56 5.189 2.284 5.738 2.506l.33.515c-2.237-.883-4.42-1.883-6.757-2.916z" fill="#333"/><path d="M490.385 208.71c1.271.599 5.088 2.29 5.738 2.506l.686-.107-6.758-2.916z" fill="#666"/><path d="M490.74 208.087c1.28.56 5.19 2.285 5.738 2.507l.331.515c-2.238-.883-4.421-1.883-6.758-2.916z" fill="#333"/><path d="M490.74 208.087c1.272.6 5.089 2.29 5.738 2.507l.687-.107-6.758-2.916z" fill="#666"/><path d="M491.096 207.466c1.279.56 5.189 2.285 5.738 2.506l.33.515c-2.237-.883-4.42-1.883-6.757-2.915z" fill="#333"/><path d="M491.096 207.466c1.271.6 5.088 2.29 5.738 2.506l.686-.107-6.758-2.915z" fill="#666"/><path d="M491.452 206.844c1.279.56 5.189 2.285 5.738 2.507l.33.514c-2.237-.882-4.421-1.882-6.757-2.915z" fill="#333"/><path d="M491.452 206.844c1.271.6 5.088 2.29 5.738 2.507l.686-.107-6.758-2.916z" fill="#666"/><path d="M491.808 206.222c1.278.56 5.188 2.285 5.737 2.507l.331.515c-2.238-.883-4.421-1.883-6.758-2.916z" fill="#333"/><path d="M491.808 206.222c1.27.6 5.088 2.29 5.737 2.507l.687-.107-6.758-2.916z" fill="#666"/><path d="M492.12 205.581c1.412.604 5.198 2.238 5.741 2.463l.37.578c-2.237-.883-4.465-1.902-6.801-2.935z" fill="#333"/><path d="M492.12 205.581l.161-.287 5.58 2.75c-1.243-.533-4.085-1.706-5.742-2.463z" fill="#4d4d4d"/></g><g paint-order="stroke markers fill"><path d="M471.396 247.718c0 .302.453.755.755.755h12.833c.301 0 .754-.453.754-.755z" fill="#6e6e6e"/><path d="M471.396 243.19c0-.303.453-.756.755-.756h12.833c.301 0 .754.453.754.755v4.53c-2.863 0-11.526.004-14.342 0z" fill="#6e6e6e"/><path d="M474.415 243.19c.302-.303 8.002-.303 8.304 0v4.528c-2.381.423-5.117.383-8.304 0z" fill="#4d4d4d"/><path d="M471.396 243.19c.302-.303 2.567-.303 2.869 0v4.528c-1.186.532-2.616.252-2.88-.008-.058-1.825.02-2.778.011-4.52z" fill="#333"/><path d="M482.882 243.197c.29-.31 2.554-.31 2.856-.008v4.53c-1.08.539-1.967.24-2.868 0-.057-1.826.021-2.779.012-4.522z" fill="#878787"/></g><g paint-order="stroke markers fill"><path d="M441.69 252.8c-.246.173-.358.804-.185 1.051l7.356 10.515c.173.248.804.36 1.05.186z" fill="#6e6e6e"/><path d="M445.402 250.204c.248-.173.878-.062 1.051.185l7.356 10.516c.173.247.062.878-.186 1.051l-3.711 2.596c-1.643-2.346-6.61-9.442-8.221-11.752z" fill="#6e6e6e"/><path d="M447.133 252.678c.42.074 4.834 6.383 4.76 6.804l-3.712 2.596c-1.711-1.709-3.246-3.974-4.76-6.804z" fill="#4d4d4d"/><path d="M445.402 250.204c.42.074 1.719 1.93 1.644 2.35l-3.71 2.596c-1.116-.666-1.706-1.999-1.645-2.365 1.463-1.093 2.289-1.575 3.711-2.581z" fill="#333"/><path d="M451.98 259.62c.42.06 1.718 1.916 1.643 2.336l-3.711 2.596c-1.06-.575-1.324-1.474-1.644-2.35 1.463-1.094 2.288-1.575 3.711-2.582z" fill="#878787"/></g><g paint-order="stroke markers fill"><path d="M412.154 253.204l-3.367 5.683 3.239 5.758 6.606.074 3.367-5.684-3.24-5.757zm3.234 1.709a4.049 4.049 0 01.005 0 4.049 4.049 0 014.048 4.048 4.049 4.049 0 01-4.048 4.049 4.049 4.049 0 01-4.049-4.049 4.049 4.049 0 014.044-4.048z" fill="#b1cac7"/><path d="M415.393 253.566a5.395 5.395 0 00-5.395 5.395 5.395 5.395 0 005.395 5.395 5.395 5.395 0 005.395-5.395 5.395 5.395 0 00-5.395-5.395zm0 1.333a4.062 4.062 0 014.062 4.062 4.062 4.062 0 01-4.062 4.063 4.062 4.062 0 01-4.062-4.063 4.062 4.062 0 014.062-4.062z" fill="#cadbd7"/><path d="M415.393 254.36a4.602 4.602 0 00-4.602 4.601 4.602 4.602 0 004.602 4.602 4.602 4.602 0 004.601-4.602 4.602 4.602 0 00-4.601-4.601zm0 .54a4.062 4.062 0 014.062 4.061 4.062 4.062 0 01-4.062 4.063 4.062 4.062 0 01-4.062-4.063 4.062 4.062 0 014.062-4.062z" fill="#93b0b2"/></g><g paint-order="stroke markers fill"><path d="M450.246 59.308l-3.367 5.684 3.239 5.758 6.606.074 3.367-5.684-3.24-5.758zm3.234 1.71a4.049 4.049 0 01.005 0 4.049 4.049 0 014.048 4.048 4.049 4.049 0 01-4.048 4.049 4.049 4.049 0 01-4.049-4.049 4.049 4.049 0 014.044-4.048z" fill="#b1cac7"/><path d="M453.485 59.671a5.395 5.395 0 00-5.395 5.395 5.395 5.395 0 005.395 5.395 5.395 5.395 0 005.395-5.395 5.395 5.395 0 00-5.395-5.395zm0 1.333a4.062 4.062 0 014.062 4.062 4.062 4.062 0 01-4.062 4.062 4.062 4.062 0 01-4.062-4.062 4.062 4.062 0 014.062-4.062z" fill="#cadbd7"/><path d="M453.485 60.465a4.602 4.602 0 00-4.602 4.601 4.602 4.602 0 004.602 4.602 4.602 4.602 0 004.601-4.602 4.602 4.602 0 00-4.601-4.601zm0 .54a4.062 4.062 0 014.062 4.061 4.062 4.062 0 01-4.062 4.062 4.062 4.062 0 01-4.062-4.062 4.062 4.062 0 014.062-4.062z" fill="#93b0b2"/></g><g paint-order="stroke markers fill"><path d="M17.246 45.18l-3.367 5.683 3.239 5.758 6.606.074 3.367-5.684-3.239-5.758zm3.234 1.709a4.049 4.049 0 01.005 0 4.049 4.049 0 014.049 4.048 4.049 4.049 0 01-4.049 4.049 4.049 4.049 0 01-4.049-4.049 4.049 4.049 0 014.044-4.048z" fill="#b1cac7"/><path d="M20.485 45.542a5.395 5.395 0 00-5.395 5.395 5.395 5.395 0 005.395 5.395 5.395 5.395 0 005.395-5.395 5.395 5.395 0 00-5.395-5.395zm0 1.333a4.062 4.062 0 014.062 4.062A4.062 4.062 0 0120.485 55a4.062 4.062 0 01-4.062-4.062 4.062 4.062 0 014.062-4.062z" fill="#cadbd7"/><path d="M20.485 46.336a4.602 4.602 0 00-4.602 4.601 4.602 4.602 0 004.602 4.602 4.602 4.602 0 004.602-4.602 4.602 4.602 0 00-4.602-4.601zm0 .54a4.062 4.062 0 014.062 4.061A4.062 4.062 0 0120.485 55a4.062 4.062 0 01-4.062-4.062 4.062 4.062 0 014.062-4.062z" fill="#93b0b2"/></g><g paint-order="stroke markers fill"><path d="M92.145 161.166l-3.367 5.684 3.239 5.758 6.606.074 3.367-5.684-3.239-5.758zm3.235 1.71a4.049 4.049 0 01.004 0 4.049 4.049 0 014.049 4.048 4.049 4.049 0 01-4.049 4.049 4.049 4.049 0 01-4.048-4.049 4.049 4.049 0 014.044-4.048z" fill="#b1cac7"/><path d="M95.384 161.53a5.395 5.395 0 00-5.395 5.394 5.395 5.395 0 005.395 5.395 5.395 5.395 0 005.395-5.395 5.395 5.395 0 00-5.395-5.395zm0 1.332a4.062 4.062 0 014.062 4.062 4.062 4.062 0 01-4.062 4.062 4.062 4.062 0 01-4.062-4.062 4.062 4.062 0 014.062-4.062z" fill="#cadbd7"/><path d="M95.384 162.323a4.602 4.602 0 00-4.602 4.601 4.602 4.602 0 004.602 4.602 4.602 4.602 0 004.602-4.602 4.602 4.602 0 00-4.602-4.601zm0 .54a4.062 4.062 0 014.062 4.061 4.062 4.062 0 01-4.062 4.062 4.062 4.062 0 01-4.062-4.062 4.062 4.062 0 014.062-4.062z" fill="#93b0b2"/></g></svg>