<svg xmlns="http://www.w3.org/2000/svg" viewBox="0 0 277.98 285.754" height="1080.016" width="1050.633"><path d="M17.014 262.75v23h25.52v-27.517z" fill="#481b21"/><path d="M25.52 273.25c6.166 3.902 50.818 8.96 59.55 12.5-19.945-3.438-39.967-6.591-59.55-10.5z" fill="#631b1b" paint-order="stroke markers fill"/><path d="M16.99 276.754l-8.489-1.505 8.513-1.499 8.507 1.5z" fill="#631b1b"/><path d="M17.014 285.75H0v-23.019h17.014z" fill="#501616"/><path d="M40.997 258.25l.013 27.5h1.525v-27.5z" fill="#782121"/><path d="M17.014 257.656l152.747 28.067-84.692.027-68.055-12z" fill="#501616" paint-order="stroke markers fill"/><path d="M17 258.25l.014 27.5h1.524v-27.5z" fill="#682021"/><path d="M19.826 276.254l-2.836.5v1l45.394 7.996h6.408z" fill="#501616"/><path d="M68.055 285.754l-51.041-9.004 8.507-1.5 59.548 10.5z" fill="#631b1b"/><path d="M0 258.763l17.014 2.987v2L0 260.75z" fill="#501616" paint-order="stroke markers fill"/><path d="M17.014 262.731c.713.265.713.794 0 1.019-.874-.225-.61-.892 0-1.019z" fill="#782121" paint-order="stroke markers fill"/><path d="M0 0v259.75l17.014 3 25.52-4.5V0h-25.52z" fill="#782121"/><path d="M17.014 0v262.75l25.52-4.5V0z" fill="#481b21"/><path d="M19.85 262.202l-2.836.548v1l124.768 22h11.342z" fill="#5c1616"/><path d="M42.535 258.25L0 259.75l17.014 3c44.827 7.909 89.87 15.847 130.44 23h51.04l-155.96-27.5z" fill="#782121"/><path d="M40.997 0l.013 258.519 1.525-.27V0z" fill="#782121"/><path d="M17.014 262.75L0 259.75V0h17.014z" fill="#501616"/><path d="M16.983 0l.03 262.75 1.508-.266V0zM16.645 277.693c-1.881 2.048-2.626 7.6-.001 8.057h.37v-8z" fill="#782121"/><path d="M0 275.792v7.06l16.644 2.898.001-7.713z" fill="#5c1616"/><path d="M8.467 279.197L0 277.874v.53l8.467 1.26z" fill="#631b1b"/><path d="M14.178 276.25L0 278.75v2l17.014-3v-1z" fill="#782121"/><path d="M0 279.75l17.014-3-17.014-3z" fill="#631b1b"/><path d="M0 263.75v13l8.507-1.5v-13.312z" fill="#682021"/><path d="M14.178 262.25L0 264.75v2l17.014-3v-1z" fill="#782121"/><path d="M0 265.75l17.014-3-17.014-3z" fill="#631b1b"/><path d="M16.669 262.81c-3.336-2.676-1.946-9.433.345-9.06v9z" fill="#782121"/><path d="M0 259.75v-9l16.669 3.06v9z" fill="#5c1616"/><path d="M2.727 259.025c-.045-.422-.249-.84-.373-1.19.7-.066 1.256.823.373 1.19z" fill="#782121"/><path d="M2.354 257.836l.373.07.373.444v.373l-.373.302-.373-.07-.372-.444v-.373z" fill="#631b1b"/><path d="M2.727 259.025l.373-.302v-.373l-.373-.443-.373-.071.2-.063.373.07.373.444v.373l-.373.302z" fill="#782121"/><path d="M0 250.75v-.094l17.014 3.094-.345.06z" fill="#631b1b"/><path d="M2.727 256.866c-.045-.423-.249-.841-.373-1.19.7-.067 1.256.822.373 1.19z" fill="#782121"/><path d="M2.354 255.676l.373.071.373.444v.373l-.373.302-.373-.071-.372-.444v-.373z" fill="#631b1b"/><path d="M2.727 256.866l.373-.302v-.373l-.373-.444-.373-.07.2-.064.373.071.373.444v.373l-.373.302z" fill="#782121"/><path d="M0 262.467v-2.717l16.669 2.717-8.202 1.323z" fill="#631b1b"/><path d="M8.467 263.79l8.202-1.323v.344l-8.202 1.446z" fill="#782121"/><path d="M8.467 263.79L0 262.467v.529l8.467 1.261z" fill="#5c1616"/><path d="M8.663 260.563c-.045-.422-.248-.84-.372-1.19.7-.067 1.255.823.372 1.19z" fill="#782121"/><path d="M8.29 259.374l.373.07.373.444v.373l-.373.302-.372-.071-.373-.444v-.372z" fill="#631b1b"/><path d="M8.663 260.563l.373-.302v-.373l-.373-.443-.372-.071.2-.063.373.07.372.444v.373l-.372.302zM.754 261.797l5.67-1v-6.985z" fill="#782121"/><path d="M.754 261.797l-.564-.1 5.671-7.985.564.1z" fill="#631b1b"/><g><path d="M2.727 254.706c-.045-.422-.249-.84-.373-1.19.7-.066 1.256.823.373 1.19z" fill="#782121"/><path d="M2.354 253.517l.373.07.373.444v.373l-.373.302-.373-.07-.372-.444v-.373z" fill="#631b1b"/><path d="M2.727 254.706l.373-.302v-.373l-.373-.443-.373-.071.2-.063.373.07.373.444v.373l-.373.302z" fill="#782121"/></g><g><path d="M8.663 258.403c-.045-.422-.248-.84-.372-1.189.7-.067 1.255.822.372 1.19z" fill="#782121"/><path d="M8.29 257.214l.373.071.373.444v.373l-.373.301-.372-.07-.373-.444v-.373z" fill="#631b1b"/><path d="M8.663 258.403l.373-.301v-.373l-.373-.444-.372-.07.2-.064.373.07.372.445v.372l-.372.302z" fill="#782121"/></g><g><path d="M8.663 256.244c-.045-.422-.248-.84-.372-1.19.7-.066 1.255.823.372 1.19z" fill="#782121"/><path d="M8.29 255.055l.373.07.373.444v.373l-.373.302-.372-.07-.373-.444v-.373z" fill="#631b1b"/><path d="M8.663 256.244l.373-.302v-.373l-.373-.443-.372-.071.2-.063.373.07.372.444v.373l-.372.302z" fill="#782121"/></g><path d="M8.467 263.79l8.202-1.323v.344l-8.202 1.446zM8.467 279.665l8.178-1.628v-.344l-8.178 1.564z" fill="#782121"/><g><path d="M8.84 283.013c-.046-.422-.25-.84-.373-1.189.7-.067 1.255.822.372 1.19z" fill="#782121"/><path d="M8.467 281.824l.372.07.373.445v.372l-.373.302-.372-.07-.373-.444v-.373z" fill="#631b1b"/><path d="M8.84 283.013l.372-.302v-.372l-.373-.444-.372-.071.2-.063.373.07.372.444v.373l-.372.302z" fill="#782121"/><g><path d="M8.84 280.854c-.046-.422-.25-.84-.373-1.19.7-.067 1.255.823.372 1.19z" fill="#782121"/><path d="M8.467 279.665l.372.07.373.444v.373l-.373.302-.372-.071-.373-.444v-.372z" fill="#631b1b"/><path d="M8.84 280.854l.372-.302v-.373l-.373-.444-.372-.07.2-.064.373.071.372.444v.373l-.372.302z" fill="#782121"/></g></g><g opacity=".999"><path d="M178.877 199.793c-1.916 16.606-5.756 44.91 16.633 63.003l11.349-5.28c-8.003-19.246-6.5-38.284-4.021-54.838z" fill="#d09775"/><path d="M201.915 210.72l-23.038-10.927c1.727-8.234 1.577-18.62 13.319-21.168 10.801-1.683 15.159 4.11 16.753 7.045.371 9.076-5.633 24.283-7.034 25.05z" fill="#6c5d53"/><path d="M84.956 265.7l12.182 2.147 9.544 1.683 12.671 2.235c1.368-11.022 2.237-15.204-5.453-19.283-11.737-7.775-22.609-8.486-34.075-9.114-12.42 3.523-13.872 13.181 5.13 22.331z" fill="#213b78"/><path d="M34.42 238.467c-1.015-1.979-.572-2.776 0-3.468l51.187 4.086c-.084-.019-3.254 1.891-3.063 4.444-35.91-2.119-32.083-3.375-48.125-5.062z" fill="#520"/><path d="M35.66 207.735l7.564 13.744 4.066 10.856 9.336-.142c-2.843-13.302-13.077-29.977-7.74-44.82 5.193-14.437 3.522-19.21-5.747-13.635-9.778 10.766-13.224 25.913-7.48 33.997z" fill="#3771c8"/><path d="M34.42 234.999c-4.614.014 4.084-47.368 10.254-59.071l6.888-3.418c6.19 4.575 10.488 5.987 18.143 5.112 2.53-.29 5.406-1.898 8.434-2.278l11.3 9.234c2.711 18.964 8.907 55.272-7.45 55.236z" fill="#3771c8"/><path d="M90.985 240.075c.931-12.462-13.407-30.895-9.933-50.285.414-2.144-2.657-4.25 5.728-8.35 1.894-.927-7.243-8.125-9.076-6.44-7.877 7.242-22.072 15.217-26.324 3.87-2.415-6.444 3.357-9.475-7.296-6.481-15.856 22.261-2.602 50.746 17.29 65.338 6.588 4.834 24.46 2.667 29.611 2.348z" fill="#ef4f13"/><path d="M79.963 186.225c-5.773 10.08-2.352 39.227 10.622 54.588l9.336-.141c-2.843-13.302-7.68-29.047-7.74-44.82-.054-14.312-5.952-20.485-12.218-9.627z" fill="#5f8dd3"/><path d="M81.938 240.82c.753-10.08-1.1-19.813-5.502-39.158.335-1.734 2.122-16.696 7.978-20.387 1.444-.91-6.29-7.1-7.558-5.533-3.934 4.863-24.8 9.804-25.792.053-.513-5.045-.966-4.032-7.607-2.335-5.135 4.595-7.243 16.243-8.842 22.178-3.908 14.496-7.62 25.402-6.382 37.311 1.04 7.2 39.534 10.039 53.705 7.872z" fill="#db3e0c"/><path d="M28.045 226.906c-.26-1.32-.537-4.662.326-6.277l57.542 9.698 2.797 5.264c-20.444-1.92-40.65-4.881-60.665-8.685z" fill="#ffd42a"/><path d="M78.528 187.036c-5.774 10.079-.328 39.403 12.646 54.765l7.311-.319c-2.842-13.302-9.42-29.15-9.48-44.923-.055-14.312-4.211-20.381-10.477-9.523z" fill="#3771c8"/><path d="M54.491 169.37l-2.19 1.873c4.326 4.27 19.314 8.317 26.191 3.623-7.553-7.842 5.068-4.1 5.122-9.147a3.996 3.996 0 00-.014-.36c.021.097.103-1.58.103-1.58l.185-1.667c.571.958 1.729-.012 1.559-1.175-.203-2.137-1.055-5.942-1.243-9.41.986-12.954-4.885-12.213-13.944-12.698-4.242-.227-11.583 6.471-13.793 11.571-1.947 5.62 1.285 12.267.983 15.006-.301 2.74-1.345 4.402-2.959 3.964z" fill="#a05a2c"/><path d="M77.281 172.645c-.194.059-6.975 1.294-7.164 1.35-6.804 1.988-16.51-.35-14.713-4.198.78-1.671 2.87-3.82 1.9-6.283-.73-1.856 9.11-7.492 9.357-8.276.139.296.741 4.354 1.625 4.749 1.028.458 1.526-.546 1.863.05.332.587-.611 3.282-.393 3.658.78 1.342 2.019 2.818 4.425 4.386 1.604 1.045 2.248.749 4.988.942-2.038.409-4.705 1.597-1.888 3.622z" fill="#8a4e20"/><path d="M55.636 168.518c-1.713.553-4.089 1.237-5.15 3.572 2.305 1.44 6.792 7.513 21.254 5.732l7.64-2.816-1.754-3.035-4 .838c-8.959.845-11.782-.514-17.99-4.291z" fill="#77a0e6"/><path d="M50.485 172.054c6.787 6.83 16.851 6.838 21.383 5.765l5.057-1.874-3.97-3.071c-.469-.106-3.04.608-6.812-.227-4.398-.973-9.635-3.374-10.596-4.229-4.37 1.156-4.81 2.754-5.062 3.636z" fill="#5f8dd3"/><path d="M77.25 153.134c-1.417.014-.7-5.535 4.048-6.079 2.708.31 2.421 7.84 2.09 10.358-.692.776-3.004-1.135-3.343-1.541-1.719-2.066-2.29-1.787-2.796-2.738z" fill="#8a4e20"/><path d="M82.579 152.46c-1.458-.429-3.023.014-3.748.623-.917.77-2.104-.756-.404-1.767 1.352-.83 2.508-.636 3.837-.488 1.33.148 1.161 1.881.315 1.632zM57.016 162.627c.897 2.815 10.183 3.435 10.638-.65-.243-1.792-.493-3.3-.654-4.547-.432-3.342-.23-4.819 2.434-4.892l1.036.974 1.263 3.83c.294.934 2.308.144 1.939-.802l-3.103-6.267c6.137-.44 10.639-5.408 13.538-9.37-27.736-8.012-20.754 3.45-31.241 5.347z" fill="#1a1a1a"/><path d="M78.483 162.873c3.165-3.212.088-5.803-4.416-5.461 1.114 2.678 3.822 3.08 4.416 5.461z" fill="#a86231"/><path d="M57.417 159.366c-2.92.368-5.336.568-5.064-1.412.066-.482.58-.916.395-1.472-1.5-4.49-4.035-9.258-1.983-13.982 3.578-8.237 9.185-11.151 14.754-11.917 7.155-.985 10.358.97 13.268 3.713.363.342 3.04 4.128 3.194 4.569.135.388 2.116.142 3.597-.195 1.808-.693 1.755.084 1.882.418.186.492-4.068 2.704-6.05 4.612-3.33 3.203-15.23 14.56-23.993 15.666z" fill="#ffd42a" paint-order="stroke markers fill"/><ellipse cx="82.042" cy="155.372" rx=".658" ry="1.377" paint-order="stroke markers fill"/><path d="M80.62 165.361c-1.666.84-1.342-.875-.685-1.39 1.621-1.273 3.745-1.452 4.057-.118-.006 1.547-1.517.288-3.371 1.508z" fill="#1a1a1a"/><path d="M87.46 139.088c.236.93-26.424 24.175-33.844 20.44-1.317-.316-1.828-1.13-.868-3.046 2.08.264 7.563.878 12.925-2.823 2.36-1.452 15.106-9.355 16.308-14.794 1.312.489 3.877-.35 4.514-.455.807-.252.973.526.965.678z" fill="#ffb915"/><path d="M87.7 238.04l2.656 3.609 9.91-1.031-.204-3.955z" fill="#77a0e6"/><path d="M90.388 244.296c1.434.584 2.885.703 4.404.823 1.933.238 3.311.786 5.257 1.058 1.437-1.529-.534-2.305-.73-4.532l-.044-.927-8.621.874.23 1.31c-.603.278-.848.763-.496 1.394z" fill="#a05a2c"/><path d="M90.333 241.719c.312.223 8.664-.93 8.985-1.027l-1.854-3.728c-5.192.143-9.255.99-9.817 1.076.505.808 2.068 2.739 2.686 3.679z" fill="#5f8dd3"/><path d="M90.613 241.695c1.91-.25 2.543-.235 7.291-.779.86 1.174 1.823 2.643 1.492 5.16-.213-.034-7.117-1.057-7.828-1.386-.124-.057-.926-.202-1.177-.403-.155-.176-.156-.393-.154-.658.002-.399.63-.705.636-.713-.003-.346-.185-.863-.26-1.22z" fill="#8a4e20"/><path d="M80.149 266.653c4.369-.821 8.91-.214 13.561.59 2.672.462 5.172.945 8.2 1.446 3.284.543 4.935.873 11.108 1.958 1.224.216 2.401 1.326 2.78-1.08.254-1.605-.778-4.6.362-9.938-8.647-6.143-23.557-15.853-33.66-16.085l-48.055-5.129c-7.647 7.53-3.387 24.524-.704 25.176 11.167 2.713 34.993 6.081 46.408 3.062z" fill="#162d50"/><path d="M45.16 172.092c1.226-.554 3.034-.791 4.305-.862-.321 20.24 4.898 39.57 8.828 58.89l-5.402.568c-3.186-19.151-6.92-38.38-7.731-58.596z" fill="#ffd42a"/><path d="M84.755 178.054a6.927 6.927 0 00-3.853-2.612l-48.828 46.694 2.861 3.697z" fill="#ffd42a"/><path d="M46.076 282.89l.707 2.86c1.06.006 11.45-.003 15.601 0-4.624-.838-13.414-2.461-16.308-2.86z" fill="#162d50"/><path d="M159.9 278.951s5.343.975 8.371 1.476c1.187.198 8.96 1.802 15.291 2.696 1.05.149-.4-5.343-.624-7.104-1.979-8.512-3.391-12.58-9.57-15.815-1.504-.225-15.99-7.655-17.328-12.146l-40.724-3.35c-16.262 15.322-7.387 30.624-5.86 31.712 9.36 6.667 34.993 6.081 42.885 4.16z" fill="#1a1a1a"/><path d="M170.736 246.62c-1.199-15.76-8.46-38.12-8.687-52.319-.08-4.975 3.187-14.571 3.405-18.462-8.042 2.436-9.74 5.203-10.923 7.303-5.25 9.321-19.723 15.781-24.773 4.766-2.868-6.255 1.812-7.318-7.04-9.82-14.229 23.336.325 54.679 21.206 67.815 6.917 4.351 21.695 1.403 26.812.718z" fill="#ef4f13"/><path d="M164.657 247.274c.032-10.108-2.51-19.685-8.28-38.667.177-1.478.269-14.117 4.03-21.537.701-1.382 2.026-7.58 4.03-10.91-3.4 1.28-7.753 4.097-9.906 6.982-3.74 5.014-23.622 11.13-25.307 1.474-.871-4.996-2.18-4.884-5.359-6.188-4.794 4.949-8.46 21.12-9.633 27.153-2.863 14.739-5.788 25.882-3.704 37.672 1.552 7.108 40.149 7.193 54.13 4.021z" fill="#db3e0c"/><path d="M123.865 178.428c1.62.12 3.179 1.304 3.179 1.304 1.123 20.212 7.027 40.063 12.326 59.052l-5.348.952c-4.545-18.875-7.906-41.202-10.157-61.308z" fill="#ffd42a"/><path d="M164.438 176.16c-3.526 1.158-4.41 1.765-5.706 2.534l-45.79 53.618 3.117 3.483z" fill="#ffd42a"/><path d="M110.113 237.843c-.354-1.297-.868-4.612-.122-6.284l59.325 4.488c.376 2.25.768 4.502 1.03 6.74-20.528-.457-39.998-2.578-60.233-4.944z" fill="#ffd42a"/><path d="M196.684 132.189c-1.403.149.887 6.092-.13 8.987-.314-3.042-.857-9.75-2.467-7.512-.638 2.552 1.028 5.844-.522 8.746-2.855.213-.243-3.253-2.722-3.349-1.018 2.567.153 5.019-.065 7.34.54 1.515 1.26 1.899 1.91 2.729l-9.24 20.441c-3.95 1.615-7.98 4.142-11.848 4.846l2.307 11.473 16.589-8.03 8.651-29.749 2.279-4.526c.75-1.217 1.937-6.892.92-6.466-.848.355-.768 1.807-1.42 3.723-.337-3.9-.688-7.643-2.478-8.069-1.066-.253 1.482 3.854.376 8.139-.208-2.992-.89-8.856-2.14-8.723z" fill="#502d16"/><path d="M201.923 142.355c-.995 2.225-1.325 2.646-2.776 5.756-1.872 6.073-5.594 20.292-8.651 29.75l-16.589 8.03-1.821-9.351 12.934-6.714c3.476-9.32 8.495-16.217 8.925-26.113 2.117-2.476 5.874-.821 7.978-1.358z" fill="#422111"/><path d="M162.586 200.113l13.051-12.507-2.713-13.496-7.47 1.73c-2.583 7.4-4.665 23.37-2.868 24.273z" fill="#161650"/><path d="M108.264 123.272c1.234.684-3.19 5.265-3.382 8.328 1.475-2.68 4.589-8.646 5.2-5.957-.407 2.599-3.224 4.982-2.928 8.258 2.546 1.31 1.49-2.901 3.811-2.023-.062 2.76-2.096 4.562-2.8 6.785-1.087 1.184-1.9 1.257-2.822 1.769l.545 22.426c4.274 4.085 7.922 8.791 12.926 12.154l-9.603 7.407-13.044-14.673 3.624-30.77-.334-5.056c-.217-1.413.9-7.102 1.672-6.313.642.657.003 1.963-.143 3.982 1.83-3.46 3.611-6.771 5.426-6.465 1.08.182-2.866 2.971-3.518 7.348 1.358-2.674 4.27-7.809 5.37-7.2z" fill="#502d16"/><path d="M99.457 131.92c.084 1.822.273 4.128.334 5.057-.667 6.424-1.934 16.425-3.624 30.769l13.044 14.673 8.268-6.377-12.904-11.745c-3.475-9.32-1.996-22.03.16-29.941-2.116-2.476-3.175-1.9-5.278-2.436z" fill="#422111"/><path d="M115.062 201.631l-6.727-17.602 6.576-12.092 7.807 6.15c-1.015 7.773-6.215 17.659-7.656 23.544zM129.436 187.15l-1.111-6.064 4.734-.06c2.15 6.72 13.645 4.648 16.715-.435l6.726-.155c-2.388 4.222-5.6 5.78-8.01 6.745-4.418 2.365-15.714 4.691-19.054-.031z" fill="#161650"/><path d="M124.2 159.48l.746 5.483 4.06 5.52 5.116 2.696-1.063 7.846c2.075 6.617 13.527 4.988 16.715-.433-2.335-1.375-2.772-2.488-2.55-4.744 1.825.53 3.335.155 4.635-.067 2.314-1.503 1.696-2.327 1.54-4.263-3.982 1.836-3.773-2.283-2.236-1.85 4.597.586 1.483-1.418 3.349-2.46 4.629-2.32 1.56-2.096.049-9.656l-1.812-6.055c-17.732.163-22.897 1.328-28.55 7.982z" fill="#502d16"/><path d="M140.723 185.563c-6.804 1.989-16.511-.35-14.713-4.197.78-1.671 2.87-3.82 1.9-6.283-.73-1.856 9.11-7.492 9.357-8.276.138.296 1.713 2.545 2.597 2.94 1.028.458 1.655.197 1.992.794.332.587 2.141 2.346 2.36 2.722.779 1.342 2.252 1.5 2.765 2.446-.838 1.336-.023 5.195 2.552 5.251-1.44 1.644-2.54 2.709-3.818 3.114-4.189 1.948-4.803 1.434-4.992 1.49zM147.473 158.164c-1.416.014-.7-5.535 4.049-6.079 2.708.31 2.42 7.84 2.09 10.358-.692.776-3.004-1.134-3.343-1.541-1.72-2.066-2.29-1.787-2.796-2.738z" fill="#422111"/><path d="M150.322 168.25c3.165-3.212.089-5.803-4.416-5.461 1.976 1.13 4.48 1.896 4.416 5.461z" fill="#5d361c"/><path d="M119.048 190.57c-2.09 7.958 19.474 13.397 24.027 2.258-.243-1.79-.493-3.298-.654-4.546-.432-3.342-5.447-24.4-2.783-24.474l1.036.975 1.262 3.83c.294.934 2.308.144 1.939-.802l-3.103-6.268c2.977-.213 4.917 3.435 7.128 1.723 2.347-1.818 5.304-11.284 6.797-13.325-27.736-8.01-21.14 5.682-31.628 7.579l3.373 13.214z" fill="#1a1a1a"/><path d="M153.304 157.178c-1.518-.059-2.927.754-3.48 1.521-.702.97-2.226-.218-.825-1.614 1.108-1.135 2.276-1.23 3.601-1.413 1.325-.182 1.586 1.54.704 1.506z" fill="#1a1a1a"/><ellipse ry="1.377" rx=".658" cy="160.118" cx="152.028" fill="#1a1a1a" paint-order="stroke markers fill"/><path d="M177.254 260.42c-6.458 6.36-6.136 18.097-4.212 25.33H277.98c-10.208-8.052-19.836-22.479-31.845-22.755z" fill="#162d50"/><path d="M255.783 261.082c1.176-15.744-15.398-31.14-11.22-55.592-.157-10.381 1.326-12.757 7.035-15.643 2.406-1.177-9.196-10.316-11.524-8.175-10 9.194-28.025 19.32-33.423 4.913-3.066-8.182 4.262-12.031-9.264-8.23-20.133 28.266-3.303 64.434 21.953 82.961 8.366 6.138 18.385 4.31 36.443-.234z" fill="#ef4f13"/><path d="M241.15 217.611c.436-2.262-1.393-24.94 7.63-26.25 2.203-.32-8.099-10.794-9.752-8.75-5.133 6.345-33.575 11.981-33.199.107.251-7.924-8.442-4.363-10.63-1.02-6.701 5.995-10.75 22.444-12.837 30.188-5.097 18.914-9.941 33.143-8.326 48.682 1.358 9.394 30.46 8.529 65.894 3.996-8.222-9.162 6.962-21.713 1.22-46.953z" fill="#db3e0c"/><path d="M245.989 216.354l15.56.956c.521-8.145 3.416-18.028-3.552-26.11-24.037-14.75-12.097 16.116-12.008 25.154z" fill="#917c6f"/><path d="M235.143 215.688c-.124 16.716 1.365 46.589 25.564 62.179l11.751 2.993c2.358-3.224 2.886-8.348-1.034-9.46-10.02-18.277-10.565-37.367-9.875-54.09z" fill="#deaa87"/><path d="M240.074 181.672c-2.754 2.511-4.998 5.042-11.982 7.394-7.49 2.69-14.712 4.696-19.65.888-3.896-5.89-2.84-8.76-2.741-12.596l2.372-.007c9.058 8.44 16.414 5.888 27.088 2.53z" fill="#917c6f"/><path d="M208.073 177.35c1.195 7.438 23.126 7.51 27.088 2.53-2.19-1.814-5.814-5.967-.113-4.249 2.417.2 2.107-1.963 2.32-3.894l.191-2.357s.06-1.758 2.089-2.427c3.68.184 1.663-2.248 1.948-8.174.048-2.404.263-4.79.506-7.18.763-17.392-8.604-15.765-14.977-15.594-9.504.165-14.9 3.157-17.4 6.922-3.01 4.534-6.989 9.193-.195 25.865-.039 4.338.319 5.183-1.457 8.559z" fill="#deaa87"/><path d="M234.062 156.712c-1.401-.207.174-5.576 4.95-5.37 2.626.73 1.165 8.122.444 10.556-.805.66-2.79-1.59-3.06-2.045-1.376-2.308-1.984-2.122-2.334-3.14z" fill="#cc8e68"/><path d="M208.073 177.35c.781-1.67 1.167-11.757.197-14.22-.73-1.856 12.373-2.625 12.621-3.409 2.502 3.648 7.794 8.356 9.995 12.049-.316 5.228 10.916 6.197 1.2 10.085-9.598 3.936-25.497-.214-24.013-4.504z" fill="#d09775"/><path d="M208.987 168.83c.897 2.814 10.183 3.435 10.638-.65.915-.862 2.514-5.253 2.404-6.945-.114-1.763-1.486-.406-2.193-4.08-.97-5.036 1.042-4.508 3.229-4.12 1.959.572 1.848 3.556 2.32 5.312.294.934 2.308.144 1.94-.802l-3.103-6.267c6.136-.44 15.66-3.19 19.187-13.752-27.736-8.01-28.486 8.069-38.974 9.966 1.053 6.72 1.954 13.313 4.552 21.338z" fill="#ff4f00"/><path d="M235.55 166.56c3.166-3.211.09-5.803-4.416-5.461 1.976 1.13 4.481 1.896 4.417 5.461z" fill="#ecb794"/><path d="M241.298 177.653c-.944 3.05-1.298 2.615-4.709 2.615-3.411 0-8.93-6.691-10.45-12.187-2.626-9.5.135-13.268 1.185-10.536 1.422 3.7 6.48 6.651 8.26 8.014 3.064 2.345 8.587 2.81 5.714 12.094z" fill="#ff4f00" paint-order="stroke markers fill"/><path d="M237.56 169.38c-1.668.84-1.343-.875-.687-1.39 1.622-1.274 3.745-1.452 4.057-.119-.006 1.548-1.517.289-3.37 1.509z" fill="#e73a00"/><path d="M240.868 153.936c-1.458-.43-3.023.014-3.747.622-.917.77-2.105-.755-.404-1.767 1.352-.829 2.507-.635 3.837-.488 1.329.148 1.161 1.882.314 1.633z" fill="#ff4f00"/><ellipse cx="238.692" cy="156.145" rx=".658" ry="1.377" fill="#1a1a1a" paint-order="stroke markers fill"/><path d="M225.385 158.347c4.396 7.99 8.17 16.881 15.328 20.872-2.981 4.459-9.16-.47-12.946-7.218-1.962-3.724-3.59-8.52-2.382-13.654z" fill="#e73a00"/><path d="M174.386 253.302c-.447-1.297-1.094-4.612-.154-6.284l74.78 4.488c.474 2.25.968 4.502 1.3 6.74-25.878-.457-50.42-2.577-75.926-4.944z" fill="#ffd42a"/><path d="M235.143 215.688c-.244 14.18 1.463 27.374 6.33 38.975 4.725 10.67 11.25 18.208 19.234 23.204l10.999 2.801-23.36-64.169z" fill="#d09775"/><path d="M246.469 183.703c.005-.003-1.305-1.101-3.776-2.017-25.362 20.932-45.727 44.624-67.313 67.64l3.117 3.484c15.06-14.408 5.94-12.696 67.972-69.107z" fill="#ffd42a"/><path d="M199.003 177.911c1.556-.466 3.764-.87 3.764-.87 7.877 41.48 11.107 63.01 14.5 77.554l-5.347.952c-4.545-18.874-10.666-57.53-12.917-77.636z" fill="#ffd42a"/><path d="M249.256 187.431c-3.757 23.784-2.324 26.387-.91 29.068l-13.203-.81c1.378-9.717-2.06-28.701 14.113-28.258zM205.615 178.985c.802.51 1.77-.979 2.478-.442 10.779 8.163 18.446 3.819 27.068 1.337l3.867 2.73c-8.318 11.117-37.264 16.256-33.413-3.625z" fill="#6c5d53"/><path d="M73.529 130.97c-14.027 2.308-14.954 6.616-21.85 17.938 5.554-.993 4.178-10.524 25.566-15.943-.87-.599-2.337-1.799-3.716-1.995z" fill="#ffb119"/><path d="M128.757 167.163c-2.921.369-5.336.569-5.065-1.411.066-.483.581-.916.395-1.473-1.499-4.49-4.034-9.258-1.983-13.981 3.578-8.238 9.186-11.152 14.754-11.918 7.156-.984 10.359.97 13.268 3.713.363.342 3.041 4.128 3.195 4.57.135.387 2.115.14 3.597-.195 1.808-.694 1.754.084 1.881.418.187.491-4.067 2.703-6.05 4.611-3.329 3.204-15.23 14.56-23.992 15.666z" fill="#ffd42a" paint-order="stroke markers fill"/><path d="M158.8 146.886c.235.93-26.425 24.174-33.844 20.44-1.317-.317-1.828-1.13-.869-3.047 2.08.264 7.563.879 12.926-2.823 2.36-1.452 15.106-9.355 16.308-14.794 1.312.49 3.876-.35 4.513-.455.807-.251.973.526.965.679z" fill="#ffb915"/><path d="M144.868 138.767c-14.026 2.308-14.954 6.616-21.849 17.938 5.553-.992 4.178-10.523 25.566-15.943-.87-.598-2.337-1.798-3.717-1.995z" fill="#ffb119"/><path d="M207.65 157.457c-3.562.074-6.492.01-5.915-2.338.14-.573.814-1.03.66-1.722-1.235-5.592-3.683-11.65-.618-17.073 5.346-9.46 12.46-12.256 19.257-12.474 8.734-.28 12.34 2.477 15.495 6.144.393.457 3.137 5.35 3.266 5.901.114.484 2.528.438 4.353.22 2.262-.605 2.1.323 2.21.741.163.615-5.235 2.738-7.862 4.784-4.41 3.434-20.164 15.594-30.846 15.817z" fill="#ffd42a" paint-order="stroke markers fill"/><path d="M246.358 136.856c.167 1.15-34.847 25.747-43.302 20.316-1.545-.547-2.057-1.59-.66-3.775 2.47.58 8.988 2.012 15.908-1.763 3.023-1.449 19.358-9.347 21.491-15.739 1.517.754 4.708.07 5.488.023 1.003-.2 1.104.756 1.075.938z" fill="#ffb915"/><path d="M230.623 125.328c-17.168 1.004-18.828 6.07-28.555 18.82 6.807-.491 6.356-12.132 32.774-15.95-.971-.83-2.584-2.46-4.22-2.87z" fill="#ffb119"/></g></svg>