<svg xmlns="http://www.w3.org/2000/svg" viewBox="0 0 223.204 245.75" height="928.819" width="843.607"><g transform="translate(-284.796 -40)"><path d="M345.948 228l-14.178 2.5v55.25h28.356V230.5z" fill="#371318"/><path d="M331.77 238.5v47.25h5.671V239.5z" fill="#280b0a"/><path d="M331.77 235.5v3l5.671 1 8.507-1.5z" fill="#561f26"/><path d="M345.948 233v5l-14.178-2.5v-5z" fill="#280b0a"/><path d="M345.948 233l-14.178-2.5 14.178-2.5 14.178 2.5z" fill="#561f26"/><path d="M402.661 226l-14.178 2.5v57.25h22.685V227.5z" fill="#371318"/><path d="M396.99 230l-8.507-1.5 14.178-2.5 8.507 1.5z" fill="#561f26"/><path d="M388.483 228.5v57.25h8.507V230z" fill="#280b0a"/><path d="M382.812 222.5l-11.343 2v61.25h14.178V227z" fill="#371318"/><path d="M382.812 222.5l-11.343 2v5l14.178-2.5z" fill="#561f26"/><path d="M411.168 232.5L396.99 235l11.342 2 5.672 10v38.75h12.76l4.254-.75v-41l-5.672-10z" fill="#371318"/><path d="M414.004 247l-5.672-10-11.342-2 14.178-2.5 14.178 1.5 5.671 10z" fill="#561f26"/><path d="M396.99 235v50l4.253.75h12.76V247l-5.67-10z" fill="#280b0a"/><path d="M385.647 242l-8.507 3.5v23l8.507 1.5 14.178-2.5v-23z" fill="#371318"/><path d="M385.647 247l-8.507-1.5 8.507-3.5 14.178 2.5z" fill="#561f26"/><path d="M377.14 245.5v23l8.507 1.5v-23z" fill="#280b0a"/><path d="M368.633 241l-11.342 2-5.51 42.75h13.476l9.048-16.75-2.836-23.5z" fill="#371318"/><path d="M357.29 243l2.836 4.5 11.343-2-2.836-4.5z" fill="#561f26"/><path d="M357.29 243l-5.51 42.75h10.898l-2.552-38.25z" fill="#280b0a"/><path d="M396.99 254l-14.178 2.5v29.25h28.356V256.5z" fill="#371318"/><path d="M396.99 254l-14.178 2.5 14.178 2.5 14.178-2.5z" fill="#561f26"/><path d="M402.661 255l-5.671 1-2.836-.5v2l2.836.5 5.671-1z" fill="#371318"/><path d="M396.99 253l-14.178 2.5v1l14.178 2.5 14.178-2.5v-1zm0 1l11.341 2-11.341 2-11.342-2z" fill="#371318"/><path d="M396.99 253l-1.418.25-4.254.75-5.67 1-2.836.5 5.67 1 1.419-.25-4.255-.75 1.418-.25h.001l5.671-1 4.254-.75 4.253.75 5.671 1h.001l1.417.25-1.417.25-2.835.5-2.837.5-4.253.75-4.254-.75-1.417.25 4.253.75 1.418.25 1.418-.25 4.253-.75 2.836-.5 2.835-.5 1.418-.25 1.418-.25-1.417-.25h-.001l-1.418-.25-2.835-.5-2.836-.5-4.254-.75z" fill="#561f26"/><path d="M382.812 255.5v30.25h14.178V258z" fill="#280b0a"/><path d="M309.085 173.5l-11.342 15-12.947 97.25h54.25l-12.948-97.25-11.342-15h-2.835z" fill="#1c1c24"/><path d="M453.703 55l-27.844 230.75H508V55z" opacity=".999" fill="#373748"/><path d="M453.703 55l-1.81 15H508V55z" opacity=".999" fill="#28283a"/><path d="M451.892 70l-2.715 22.5H508V70zm-3.318 27.5l-2.717 22.521 62.143.065V97.5zM445.256 125l-2.715 22.5H508V125zm-3.318 27.5l-2.724 22.577 68.786.044v-22.62zM438.62 180l-2.716 22.5H508V180zm-3.319 27.5l-2.725 22.583 75.424.044V207.5zM431.983 235l-2.715 22.5H508V235zm-3.319 27.5l-2.725 22.589 82.061.043V262.5z" opacity=".999" fill="#45465e" paint-order="stroke markers fill"/><path d="M503.326 70l-26.033 215.75h7.089L508 90.017V69.999z" opacity=".999" fill="#28283a"/><path d="M466.958 70h15.94c-2.149 1.815-9.815 12.276-9.656 22.5h-14.097c5.517-6.302 4.976-12.962 7.813-22.5zM489.665 70h9.3c-2.147 1.815-5.76 17.208-7.522 22.5h-12.854c5.258-8.847 9.863-14.925 11.076-22.5zM491.745 97.5h5.078c-2.148 1.815-5.244 11.899-9.673 22.5l-8.02.056c5.516-6.301 12.644-17.913 12.615-22.556zM470.335 97.5c-3.74 8.255-8.754 14.66-13.232 22.5h9.664c-.158-10.224 9.372-20.685 11.52-22.5z" opacity=".999" fill="#5f5c70"/><path d="M489.665 70h9.3c-2.147 1.815-5.76 17.208-7.522 22.5h-12.854c5.258-8.847 9.863-14.925 11.076-22.5zM490.531 125h5.079c-2.148 1.815-5.245 11.899-9.674 22.5l-8.02.056c5.517-6.301 12.645-17.913 12.615-22.556zM468.658 125h7.97c-2.148 1.815-7.741 12.277-7.582 22.5h-13.96c5.516-6.301 10.736-12.962 13.572-22.5zM457.45 152.5h9.3c-2.148 1.815-5.761 17.21-7.523 22.5h-12.854c5.258-8.846 9.864-14.924 11.077-22.5zM482.006 152.599c-3.738 8.255-8.753 14.66-13.232 22.5h9.665c-.159-10.224 9.372-20.685 11.52-22.5zM473.31 180h9.3c-2.148 1.815-5.761 17.209-7.523 22.5h-12.854c5.258-8.846 9.864-14.925 11.077-22.5zM449.477 180h11.632c-2.148 1.815-7.914 12.276-7.755 22.5h-7.862c5.517-6.302 3.526-18.307 3.985-22.5zM469.105 207.627h15.94c-2.149 1.815-15.712 12.277-15.553 22.5h-13.96c5.517-6.301 10.736-12.962 13.573-22.5zM450.803 207.592c-3.95 8.944-9.649 12.83-8.606 22.497l7.296.004c-.158-10.224 7.114-20.686 9.262-22.502zM469.61 235c-3.74 8.255-8.754 14.66-13.233 22.5h9.665c-.159-10.223 9.372-20.685 11.52-22.5zM460.362 262.5h15.94c-2.148 1.815-15.711 12.277-15.552 22.5h-13.96c5.516-6.301 10.736-12.962 13.572-22.5zM450.251 235h15.94c-2.148 1.815-15.711 12.277-15.553 22.5h-13.96c5.517-6.301 10.737-12.962 13.573-22.5zM444.853 262.5h5.079c-2.148 1.815-5.245 11.899-9.674 22.5l-8.02.056c5.517-6.301 12.645-17.913 12.615-22.556z" opacity=".999" fill="#5f5c70"/><path d="M461.171 55h-7.468l-27.844 230.75h5.23z" opacity=".999" fill="#ec8600" fill-opacity=".406"/><path d="M482.059 40v15H508V40z" opacity=".999" fill="#6f7c91"/><path d="M482.059 55V40h1.837l-.214 15z" opacity=".999" fill="#a37e5b"/><path d="M476.592 45v10h14.179V45z" opacity=".999" fill="#6f7c91"/><rect width="1.26" height="2.704" x="483.635" y="41.5" ry=".63" opacity=".999" fill="#1c1f24" fill-opacity=".998" paint-order="stroke markers fill"/><rect ry=".63" y="41.5" x="486.47" height="2.704" width="1.26" opacity=".999" fill="#1c1f24" fill-opacity=".998" paint-order="stroke markers fill"/><rect width="1.26" height="2.704" x="489.306" y="41.5" ry=".63" opacity=".999" fill="#1c1f24" fill-opacity=".998" paint-order="stroke markers fill"/><path d="M496.237 40c.294 5.9.548 12.629-8.074 15H508V40z" opacity=".999" fill="#535d6c"/><path d="M476.592 55V45h1.838l-.215 10z" opacity=".999" fill="#a37e5b"/><rect ry=".63" y="-480.575" x="46.448" height="2.704" width="1.052" transform="rotate(90)" opacity=".999" fill="#1c1f24" fill-opacity=".998" paint-order="stroke markers fill"/><rect transform="rotate(90)" width="1.052" height="2.704" x="48.448" y="-480.575" ry=".63" opacity=".999" fill="#1c1f24" fill-opacity=".998" paint-order="stroke markers fill"/><rect ry=".63" y="-480.575" x="50.448" height="2.704" width="1.052" transform="rotate(90)" opacity=".999" fill="#1c1f24" fill-opacity=".998" paint-order="stroke markers fill"/><rect transform="rotate(90)" width="1.052" height="2.704" x="52.448" y="-480.575" ry=".63" opacity=".999" fill="#1c1f24" fill-opacity=".998" paint-order="stroke markers fill"/><path d="M493.402 45v10h-11.343c2.836-1.5 7.596-2.555 5.671-10z" opacity=".999" fill="#535d6c"/><path d="M311.92 173.5v112.25h27.125c-4.315-32.417-8.63-64.834-12.947-97.25l-11.342-15z" fill="#373748"/><path d="M294.88 209.995l-.129.978 17.17 3.027 17.169-3.027-.13-.978L311.92 213z" fill="#0f0f17"/><path d="M309.085 173.5l-11.343 15L311.92 214l14.179-25.5-11.343-15z" fill="#53536c"/><path d="M309.085 175.5l-8.507 12.5 8.507 17.5h5.671l8.507-17.5-8.507-12.5z" fill="#292b3a"/><path d="M308.376 155.5v34h1.418v-34z" fill="#1c1c24"/><path d="M313.338 173.5h1.418l11.342 15-.81 1.46z" opacity=".999" fill="#ec8600" fill-opacity=".406"/><path d="M314.047 161.5v28h1.418v-28z" fill="#1c1c24"/><path d="M308.376 159.5v2h1.418v-2zM314.047 162.5v2h1.418v-2z" fill="#53536c"/><path d="M308.376 155.5v1h1.418v-1z" fill="maroon"/><path d="M314.047 165.5v2h1.418v-2z" fill="#53536c"/><path d="M314.047 161.5v1h1.418v-1z" fill="maroon"/><path d="M308.376 156.5v2h1.418v-2z" fill="#53536c"/><path d="M293.385 221.231l-.13.978 18.666 3.29 18.665-3.29-.13-.978-18.535 3.269zM291.954 231.98l-.13.976 20.097 3.544 20.096-3.544-.13-.976-19.966 3.52zM290.523 242.727l-.13.977 21.528 3.796 21.527-3.796-.13-.977-21.397 3.773zM289.092 253.475l-.13.977 22.959 4.048 22.958-4.048-.13-.977-22.828 4.025zM287.662 264.223l-.13.977 24.389 4.3 24.389-4.3-.13-.977-24.26 4.277zM286.23 274.97l-.13.978 25.82 4.552 25.82-4.552-.13-.978-25.69 4.53z" fill="#0f0f17"/><path d="M325.287 189.96l.812-1.46 12.946 97.25h-5.23z" opacity=".999" fill="#ec8600" fill-opacity=".406"/><path d="M317.592 249v1l11.342-2v-1zM314.756 243.5v1l8.507-1.5v-1zM314.756 237.5v1l5.671-1v-1zM314.756 253.5v1l2.836-.5v-1zM317.592 270v1l2.835-.5v-1zM314.756 263.5v1l8.507-1.5v-1zM314.756 274.5v1l11.343-2v-1zM320.427 280.5v1l5.672-1v-1zM326.099 282.5v1l5.671-1v-1zM323.263 238v1l2.836-.5v-1zM314.756 227.5v1l8.507-1.5v-1zM320.427 230.5v1l5.672-1v-1zM323.263 214v1l2.836-.5v-1zM314.756 218.5v1l8.507-1.5v-1zM309.085 217.5v1l-11.343-2v-1z" fill="#0f0f17"/><path d="M303.414 219.5v1l-8.507-1.5v-1z" fill="#ec8600"/><path d="M306.25 226v1l-8.508-1.5v-1zM300.578 228v1l-5.671-1v-1z" fill="#0f0f17"/><path d="M309.085 232.5v1l-11.343-2v-1z" fill="#ec8600"/><path d="M297.742 235.5v1l-2.835-.5v-1zM306.25 239v1l-8.508-1.5v-1zM303.414 241.5v1l-11.343-2v-1zM306.25 248v1l-8.508-1.5v-1z" fill="#0f0f17"/><path d="M303.414 250.5v1l-11.343-2v-1z" fill="#ec8600"/><path d="M306.25 254v1l-5.672-1v-1z" fill="#0f0f17"/><path d="M294.907 251v1l-2.836-.5v-1z" fill="#ec8600"/><path d="M297.742 257.5v1l-5.671-1v-1zM303.414 261.5v1l-11.343-2v-1z" fill="#0f0f17"/><path d="M306.25 265v1l-5.672-1v-1zM303.414 269.5v1l-11.343-2v-1z" fill="#ec8600"/><path d="M297.742 274.5v1l-8.507-1.5v-1z" fill="#0f0f17"/><path d="M300.578 280v1l-11.343-2v-1z" fill="#ec8600"/><path d="M303.414 283.5v1l-5.672-1v-1zM292.071 281.5v1l-2.836-.5v-1zM323.263 258v1l5.671-1v-1z" fill="#0f0f17"/><path d="M368.633 260l-14.178 2.5v23.25h28.357V262.5z" fill="#371318"/><path d="M368.633 260l-14.178 2.5 14.178 2.5 14.179-2.5z" fill="#561f26"/><path d="M374.305 261l-5.672 1-2.835-.5v2l2.835.5 5.672-1z" fill="#371318"/><path d="M368.633 259l-14.178 2.5v1l14.178 2.5 14.178-2.5v-1zm0 1l11.342 2-11.342 2-11.341-2z" fill="#371318"/><path d="M368.633 259l-1.417.25-4.254.75-5.671 1-2.836.5 5.671 1 1.418-.25-4.254-.75 1.418-.25 5.67-1 4.254-.75 4.254.75 5.67 1 1.417.25-1.417.25-2.835.5-2.836.5-4.253.75-4.254-.75-1.417.25 4.253.75 1.418.25 1.418-.25 4.253-.75 2.836-.5 2.834-.5 1.418-.25 1.418-.25-1.417-.25-1.418-.25-2.835-.5-2.835-.5-4.254-.75z" fill="#561f26"/><path d="M354.455 261.5v24.25h14.178V264z" fill="#280b0a"/><path d="M388.483 274.5l-14.179 2.5v8.75h28.357V277z" fill="#371318"/><path d="M388.483 274.5l-14.179 2.5 14.179 2.5 14.178-2.5z" fill="#561f26"/><path d="M394.154 275.5l-5.671 1-2.836-.5v2l2.836.5 5.671-1z" fill="#371318"/><path d="M388.483 273.5l-14.178 2.5v1l14.178 2.5 14.177-2.5h.001v-1zm0 1l11.341 2-11.341 2-11.342-2z" fill="#371318"/><path d="M388.483 273.5l-1.418.25-4.254.75-5.67 1-2.836.5 5.67 1 1.419-.25-4.255-.75 1.418-.25h.001l5.671-1 4.254-.75 4.253.75 5.671 1h.001l1.416.25-1.417.25-2.835.5-2.836.5-4.254.75-4.253-.75-1.417.25 4.252.75 1.418.25 1.418-.25 4.253-.75h.001l2.836-.5 2.834-.5 1.419-.25 1.418-.25-1.418-.25-1.418-.25-2.836-.5-2.835-.5-4.254-.75z" fill="#561f26"/><path d="M374.304 276v9.75h14.178v-7.25z" fill="#280b0a"/><path d="M362.253 232v11.937h.709V232zM365.089 235.5v7.937h.709V235.5zM391.318 244l-5.67 1-2.836-.5v1l2.835.5 5.672-1zM414.004 234l-5.672 1-2.835-.5v1l2.835.5 5.672-1zM382.812 225.5l-5.672 1-2.835-.5v1l2.835.5 5.672-1zM373.95 217.063V225h.71v-7.937zM402.66 227l-5.67 1-2.836-.5v1l2.836.5 5.671-1zM351.62 230l-5.672 1-2.835-.5v1l2.835.5 5.672-1zM339.922 222.063V230h.71v-7.937z" fill="#371318"/></g></svg>