<svg xmlns="http://www.w3.org/2000/svg" viewBox="0 0 508.097 206.375" height="780" width="1920.366"><path fill="#d05d42" paint-order="stroke markers fill" d="M.097 97.896h508v108.479h-508z"/><path d="M508.097 95.365l-95.871 27.858c-8.092 1.584-6.755 3.578-1.69 5.922 2.353 1.09.938 2.654-.032 2.719 0 0-17.378 2.735-14.79 3.745 6.949 2.713-1.475 3.496-9.814 3.659-6.025.117-33.594 2.052-26.264 3.524 20.742 4.168-62.05 9.233-79.986 14.606C252.148 165.638-1.472 196.1.097 206.375h508zM366.545 93.927l2.646-10.583 2.645 10.583z" fill="#220c0f"/><path d="M109 3.244C85.296-5.21.096 60.07.096 60.07c-.218 49.043 0 89.476 0 89.476s73.817-3.018 172.775-15.564c49.352-6.257 101.841-11.882 158.043-19.118 31.166-2.487 34.377-1.843 40.504-3.146 6.127-1.304-41.59-13.557-8.071-12.61 8.704.247 39.985 1.289 26.722-2.65-38.774-11.518-59.931-13.589-77.966-21.771-29.527-13.397-41.204-11.813-69.636-20.378C198.07 40.932 197.053 34.653 109 3.244z" fill="#3c1a1a"/><path d="M291.955 81.085S203.69 38.862 156.4 39.402C96.017 46.142 56.822 95.628.097 110.65v77.793s69.939-5.393 168.897-17.94c49.352-6.256 108.452-17.112 164.653-24.348 2.308-.297 21.296-.875 23.017-2.005 1.776-1.165-10.464-3.72.334-5.06 7.826-.971 16.452-1.326 24.266-1.572 2.901-.09 6.764-.416 10.02-.307 4.486.15-5.227-3.081-1.954-3.485 8.643-1.065 24.99-3.527 11.727-7.467-38.774-11.517-73.49-27.836-109.102-45.173z" fill="#220c0f"/><path d="M277.248 95.25l2.646-10.583 2.645 10.583zM271.295 116.417l2.646-10.584 2.645 10.584zM284.524 108.48l2.646-10.584 2.646 10.583zM348.024 121.708l2.646-10.583 2.646 10.583zM338.763 134.937l2.646-10.583 2.646 10.583zM366.545 129.646l2.646-10.583 2.645 10.583zM259.388 84.667l2.646-10.584 2.646 10.584zM276.586 137.583L279.232 127l2.646 10.583zM165.461 60.854l2.646-10.583 2.646 10.583zM144.295 58.208l2.646-10.583 2.645 10.583zM170.753 76.73l2.646-10.584 2.646 10.583z" fill="#561f26"/><path d="M70.211 42.333l2.646-10.583 2.646 10.583zM121.805 23.812l2.646-10.583 2.646 10.583zM152.232 31.75l2.646-10.583 2.646 10.583zM70.211 18.52l2.646-10.583 2.646 10.584zM91.378 21.167l2.646-10.584 2.646 10.584zM345.378 95.25l2.646-10.583 2.646 10.583zM330.826 85.99l2.646-10.584 2.646 10.584zM296.43 78.052l2.646-10.583 2.646 10.583zM271.295 66.146l2.646-10.584 2.645 10.584zM190.597 39.687l2.646-10.583 2.645 10.583zM115.19 10.583L117.837 0l2.646 10.583z" fill="#220c0f"/></svg>