<svg xmlns="http://www.w3.org/2000/svg" viewBox="0 0 26.458 26.458" height="100" width="100"><path d="M9.878.946c1.24 1.064-3.961 3.166-4.747 3.973-.785.807-2.522 4.662-4.4 2.311-.747-.936.533-2.845 2.306-4.617C5.731.156 8.97.165 9.878.946zM4.437 23.377c-.856-.732-2.311-2.396-1.59-3.354.982-1.305 2.17.15 3.026.881.856.732 3.813 1.1 1.588 3.125-.887.806-2.168.08-3.024-.652" opacity=".999" fill="#b7b7c8"/><path d="M5.456 8.444c-.517 2.302-3.726 6.24.037 8.974 3.763 2.735 2.842 2.736 5.526 4.157 2.64 1.399 8.818.552 10.647-.904 1.589-1.266-4.437-7.043-.86-10.521C29.23 1.962 7.317.168 5.457 8.444z" fill="#b7b7c8" stroke="#b7b7c8" stroke-width=".203"/><path opacity=".999" fill="#f9f9f9" d="M15.994 15.208l.776-.423L20.7 22l-.777.423zM4.811 4.892l.54-.7 6.5 5.024-.54.699z"/><path opacity=".999" fill="#f9f9f9" d="M11.664 9.389l.734-.493 4.578 6.82-.734.493z"/><g transform="translate(-2.013 -8.046)"><ellipse cy="12.965" cx="7.408" rx="1.918" ry="1.984" fill="#0055d4" stroke="#80b3ff" stroke-width=".193"/><circle cx="7.408" cy="12.965" r="1.587" fill="#2a7fff"/><path d="M8.202 13.23v-1.06c0-.264 0-.528-.794-.528-.793 0-.793.264-.793.529v1.058l.793-.264zM6.88 13.494l-.3.825c.26.209.674.232.828.233.154 0 .569-.024.828-.233l-.299-.825h-.529z" fill="#deaa87"/><path d="M6.88 13.494l-.3.825c.256.194.55.22.828.233v-1.058z" fill="#d38d5f"/><path d="M6.701 11.82a4.288 4.288 0 00-.086.955c0 .032-.009.403.03.636.255.194.485.598.763.612V12.7L7.4 11.56z" fill="#d38d5f"/><path d="M7.408 14.023c.54.035.788-.448.794-.794l-.53-.264h-.528l-.53.264c.076.592.306.794.794.794z" fill="#d45500"/><path d="M7.408 13.23c-.264 0-.793.264-1.058 0 .265-.265.794-.53 1.058-.265.265-.265.794 0 1.059.264-.265.265-.794 0-1.059 0z" fill="#f60"/><path d="M6.77 11.761c.237-.265 1.611-.387 1.49.362-.31.019-1.011.135-1.49-.362z" fill="#d45500"/><path d="M6.77 11.761c-.19.031-.204.57-.155.858.064-.007.084-.042.217-.339.092-.206.23-.476-.061-.519z" fill="#f60"/><ellipse cx="7.144" cy="12.535" rx=".084" ry=".1" opacity=".999" fill="#1a1a1a"/><ellipse ry=".1" rx=".084" cy="12.535" cx="7.673" opacity=".999" fill="#1a1a1a"/><path d="M6.896 12.428c.006.063.341.056.436.034.094-.022.067-.159-.047-.186-.114-.027-.406-.025-.39.152z" fill="#d45500"/><path d="M7.986 12.428c-.006.063-.342.056-.436.034-.095-.022-.067-.159.047-.186.114-.027.406-.025.389.152z" fill="#f60"/></g><path d="M18.403 6.595c-2.29-.758-.94-3.67.845-2.351 2.337 1.726 2.783 4.165 1.875 4.75-.909.585-.429-1.642-2.72-2.4z" fill="#9393ac"/><path opacity=".999" fill="#f9f9f9" d="M19.765 4.096l.85.25-3.549 12.077-.85-.25z"/><path opacity=".999" fill="#f9f9f9" d="M21.367 3.47l.463.755-10.729 6.583-.463-.755z"/><g transform="translate(2.857 -2.505)"><ellipse ry="1.984" rx="1.918" cx="17.428" cy="7.377" fill="#2ca02c" stroke="#87de87" stroke-width=".193"/><circle r="1.587" cy="7.377" cx="17.428" fill="#37c837"/><path d="M17.828 6.023c-.216-.18.035-.619-.263-.51-.23.083-.183.67-.002 1.005z" fill="#1a1a1a"/><path d="M17.958 8.038c.264-.264.264-.264.264-.529 0-1.058 0-1.058-.794-1.19-.31.353-.521.517-.786.65l.257 1.07.53.264c.176-.088.264 0 .529-.265z" fill="#784421"/><path d="M16.9 7.906c.09.58.013.89-.3.825.26.209.674.233.828.233.154 0 .569-.024.828-.233-.278.042-.409-.178-.298-.825h-.53z" fill="#784421"/><path d="M16.9 7.774c-.011.414.17 1.033-.3.957.256.195.55.22.828.233V7.906z" fill="#502d16"/><path d="M16.635 7.51c0 .264 0 .264.264.528.265.265.53.265.53.265V6.318c-.794.133-.794.133-.794 1.191z" fill="#502d16"/><ellipse ry=".1" rx=".084" cy="7.212" cx="17.164" opacity=".999" fill="#1a1a1a"/><ellipse cx="17.693" cy="7.212" rx=".084" ry=".1" opacity=".999" fill="#1a1a1a"/><path d="M16.837 7.053c.004.051.095-.06.284-.077.123-.01.221.089.243.03.076-.298-.62-.116-.527.047zM18.06 7.053c-.005.051-.096-.06-.285-.077-.123-.01-.221.089-.243.03-.076-.298.62-.116.527.047z" fill="#1a1a1a"/><path d="M17.073 7.784l.62-.01s-.04.289-.438.264c-.207-.013-.157-.23-.182-.254z" fill="#c8beb7"/><path d="M16.9 6.715l-.265.53c-.005-.385-.114-.82 0-1.059.161-.34 1.192-.475 1.587 0 .055.067.15.228 0 1.059l-.264-.53c-.265-.264-.794-.264-1.059 0z" fill="#1a1a1a"/><path d="M18.098 7.005c.276.058.259.563.472.327.163-.18-.153-.677-.469-.888z" fill="#1a1a1a"/><path d="M18.336 6.693c.22-.177.6.157.552-.157-.036-.241-.62-.312-.984-.201z" fill="#1a1a1a"/><path d="M18.29 6.417c.052-.278.557-.271.317-.48-.184-.159-.674.168-.878.489z" fill="#1a1a1a"/><path d="M18.096 6.16c-.09-.268.353-.51.041-.574-.239-.048-.505.477-.526.856zM17.061 6.094c.159-.234-.204-.585.113-.563.243.016.36.594.279.965z" fill="#1a1a1a"/><path d="M16.892 6.24c-.054-.277-.56-.268-.32-.477.184-.16.675.164.88.484z" fill="#1a1a1a"/><path d="M16.645 6.453c-.219-.179-.6.152-.551-.162.038-.24.623-.307.986-.193zM16.797 6.909c-.282.012-.349.512-.52.245-.13-.206.263-.643.61-.799z" fill="#1a1a1a"/><path d="M16.612 6.744c-.264-.101-.524.332-.575.019-.039-.24.496-.487.877-.492z" fill="#1a1a1a"/></g><path d="M7.926 13.759c-.868-3.568-3.461.188-2.319 2.09 1.497 2.49 5.931 4.772 7.244 4.253 1.312-.519-4.057-2.776-4.925-6.343z" fill="#9393ac"/><path opacity=".999" fill="#f9f9f9" d="M5.841 13.848l.807-.362 3.364 7.495-.806.362z"/><path opacity=".999" fill="#f9f9f9" d="M11.956 8.814l.606.643-5.976 5.636-.607-.643z"/><g transform="translate(-2.487 -4.457)"><ellipse ry="1.984" rx="1.918" cx="8.731" cy="19.182" fill="#d4aa00" stroke="#ffe680" stroke-width=".193"/><circle r="1.587" cy="19.182" cx="8.731" fill="#d3bc5f"/><path d="M8.202 19.844c.125.763-.145.59-.299.693.256.194.55.219.828.233.278-.014.573-.039.828-.233-.153-.104-.424.07-.299-.693h-.529z" fill="#c87a25"/><path d="M9.26 19.844c-.125.763.146.59.3.693-.256.194-.55.219-.829.233v-.926z" fill="#cf853d"/><path d="M9.525 19.315v-.662c0-.264 0-.529-.794-.529-.793 0-.793.265-.793.53l.793 1.454c.793 0 .113-.305.794-.793z" fill="#cf853d"/><path d="M8.024 18.302a4.82 4.82 0 00-.087 1.013c0 .264 0 .793.794.793v-1.984c-.483.002-.604.088-.707.178z" fill="#c87a25"/><path d="M8.094 18.244c-.264.138-.191.815-.156 1.07.064-.006.084-.255.217-.552.092-.205.23-.476-.061-.518z" fill="#1a1a1a"/><ellipse ry=".1" rx=".084" cy="19.017" cx="8.467" opacity=".999" fill="#1a1a1a"/><ellipse cx="8.996" cy="19.017" rx=".084" ry=".1" opacity=".999" fill="#1a1a1a"/><path d="M8.184 18.923c-.001-.001.204-.171.433-.06.088-.042-.01-.123-.127-.125-.116-.002-.361.016-.306.185zM9.389 18.257c.221.083.14.8.136 1.058-.064-.007-.064-.242-.197-.539-.092-.205-.23-.476.06-.519z" fill="#1a1a1a"/><path d="M7.937 19.05c-.264.794 0 .794.265 1.058.265.265.794.265 1.058 0 .248-.193.53-.264.265-1.058l-.343.514a1.198 1.198 0 00-.446-.072c-.21 0-.365.034-.457.07zm.41.614c.275.003.529-.001.769 0l-.12.18h-.53zM9.254 18.923c.002-.001-.204-.171-.433-.06-.087-.042.01-.123.127-.125.117-.002.361.016.306.185z" fill="#1a1a1a"/></g><g transform="translate(-3.85 2.542)"><ellipse ry="1.984" rx="1.918" cx="20.638" cy="13.064" fill="#214478" stroke="#87aade" stroke-width=".193"/><circle r="1.587" cy="13.064" cx="20.638" fill="#2c5aa0"/><path d="M19.315 13.494c.264 1.323 2.38 1.323 2.645 0 0-.265.427-.503 0-1.356-.529-1.059-2.116-1.059-2.645 0-.427.853 0 1.091 0 1.356z" fill="#1a1a1a"/><path d="M20.108 13.758c.265 0 .264.804-.178.727.215.164.473.155.707.166.235-.011.493-.002.708-.166-.443.067-.443-.727-.178-.727-.265-.264-.353.075-.53.112-.145-.07-.264-.376-.529-.112z" fill="#502d16"/><path d="M21.167 13.758c-.265 0-.265.794.178.727-.215.164-.473.155-.707.166v-.781c.17-.038.264-.376.529-.112z" fill="#784421"/><path d="M21.431 12.932v-.397c0-.265 0-.926-.793-.926-.794 0-.736.545-.736.81l.736 1.57c.237-.003.682-.02.793-1.057z" fill="#784421"/><path d="M19.93 12.184a3.046 3.046 0 00-.086.748c-.003.854.551 1.11.793 1.058V11.609z" fill="#502d16"/><path d="M19.844 12.667c-.372-1.582 2.065-1.629 1.587-.014a.829.829 0 00-1.587.014z" fill="#1a1a1a"/><ellipse ry=".1" rx=".084" cy="12.899" cx="20.373" opacity=".999" fill="#1a1a1a"/><ellipse cx="20.902" cy="12.899" rx=".084" ry=".1" opacity=".999" fill="#1a1a1a"/><path d="M20.094 12.827c-.001-.002.162-.2.401-.083.045-.033.015-.111-.069-.132-.113-.027-.35.038-.332.215zM21.133 12.827a.33.33 0 00-.402-.083c-.044-.033-.014-.111.07-.132.113-.027.349.038.332.215z" fill="#1a1a1a"/><g fill="#a02c2c"><path d="M20.637 13.46c-.132 0-.264.064-.264.064h.529s-.132-.063-.265-.063z"/><path d="M20.373 13.524a.357.357 0 00.53 0z"/></g></g><g transform="translate(7.269 -1.085)"><ellipse cy="23.416" cx="13.229" rx="1.918" ry="1.984" fill="#5a2ca0" stroke="#e3d7f4" stroke-width=".193"/><circle cx="13.229" cy="23.416" r="1.587" fill="#7137c8"/><path d="M12.7 24.077c.125.763-.145.59-.299.693.255.194.55.22.828.233.278-.014.573-.039.828-.233-.153-.103-.424.07-.299-.693h-.529z" fill="#d38d5f"/><path d="M13.758 24.077c-.125.763.146.59.299.693-.255.194-.55.22-.828.233v-.926z" fill="#deaa87"/><path d="M14.023 23.548v-.662c0-.264 0-.529-.794-.529s-.794.265-.794.53l.794 1.455c.794 0 .794-.53.794-.794z" fill="#deaa87"/><path d="M12.435 22.754c-.013.272-.005.493 0 .794 0 .264 0 .794.794.794v-1.059l-.01-1.007c-.116.113-.744.021-.784.478z" fill="#d38d5f"/><path d="M12.965 22.754c0-.264 0-.794.264-.794.265 0 .265.53.265.794h-.53z" fill="#502d16"/><ellipse cx="12.965" cy="23.251" rx=".084" ry=".1" opacity=".999" fill="#1a1a1a"/><ellipse ry=".1" rx=".084" cy="23.251" cx="13.494" opacity=".999" fill="#1a1a1a"/><path d="M12.729 23.18c-.001-.002.216-.158.436-.032.09-.035.043-.167-.074-.177-.116-.01-.405.035-.362.209zM12.644 23.27l-.213.037c.002.425-.1.765.269 1.035.265.264.794.264 1.058 0 .325-.325.303-.577.265-1.059h-.265c-.005.343.104.442-.264.53h-.53c-.332-.092-.287-.225-.32-.544zm1 .627s-.061.276-.415.276c-.277 0-.38-.23-.414-.263z" fill="#502d16"/><path d="M12.92 23.952l.62-.01s-.046.135-.31.135c-.208 0-.286-.1-.31-.125z" fill="#c8beb7"/><path d="M13.744 23.18c.001-.002-.216-.158-.436-.032-.09-.035-.043-.167.074-.177.116-.01.405.035.362.209z" fill="#784421"/></g><ellipse cx="24.04" cy="2.36" rx="1.167" ry="1.097" opacity=".999" fill="#b7b7c8"/><path d="M24.814 13.793c0 1.126-.32 3.314-1.515 3.389-1.63.101-1.298-1.747-1.298-2.873 0-1.126-1.642-3.613 1.343-3.237 1.189.15 1.47 1.595 1.47 2.72" opacity=".999" fill="#b7b7c8"/><ellipse ry=".789" rx=".839" cy="19.352" cx="24.183" opacity=".999" fill="#b7b7c8"/><ellipse cx="11.572" cy="24.34" rx=".839" ry=".789" opacity=".999" fill="#b7b7c8"/><ellipse cx="1.881" cy="10.01" rx=".839" ry=".789" opacity=".999" fill="#b7b7c8"/><ellipse cx="2.489" cy="16.776" rx=".678" ry=".637" opacity=".999" fill="#b7b7c8"/><ellipse ry=".637" rx=".678" cy="10.839" cx="7.22" opacity=".999" fill="#9393ac"/><ellipse cx="15.795" cy="5.663" rx=".678" ry=".637" opacity=".999" fill="#9393ac"/><g transform="translate(-1.3 -4.437)"><ellipse cy="13.891" cx="13.229" rx="1.918" ry="1.984" fill="#53676c" stroke="#b7c4c8" stroke-width=".193"/><circle cx="13.229" cy="13.891" r="1.587" fill="#6f8a91"/><path d="M12.7 14.552c.125.763-.145.59-.299.693.255.194.55.22.828.233.278-.014.573-.039.828-.233-.153-.103-.424.07-.299-.693h-.529z" fill="#c87137"/><path d="M13.758 14.552c-.125.763.146.59.299.693-.255.194-.55.22-.828.233v-.926z" fill="#dc8443"/><path d="M14.023 14.023v-.662c0-.264 0-.529-.794-.529s-.794.265-.794.53l.794 1.455c.794 0 .794-.53.794-.794z" fill="#dc8443"/><path d="M12.522 13.01a4.82 4.82 0 00-.087 1.013c0 .264 0 .794.794.794v-1.059l-.01-1.007z" fill="#c87137"/><path d="M12.592 12.952c.236-.265 1.61-.387 1.49.362-.31.018-1.013.135-1.49-.362z" fill="#1a1a1a"/><path d="M12.592 12.952c-.191.03-.205.57-.157.857.065-.006.085-.042.218-.338.092-.206.229-.477-.061-.52z" fill="#333"/><ellipse cx="12.965" cy="13.726" rx=".084" ry=".1" opacity=".999" fill="#1a1a1a"/><ellipse ry=".1" rx=".084" cy="13.726" cx="13.494" opacity=".999" fill="#1a1a1a"/><path d="M12.717 13.619c-.001-.002.236-.124.436.034.094-.022.066-.16-.047-.186-.114-.027-.407-.026-.39.152zM13.23 14.287c-.17.007-.321-.003-.465 0-.11-.003 0-.172.232-.172s.353.154.232.172zM13.757 13.619c0-.002-.237-.124-.436.034-.095-.022-.067-.16.047-.186.113-.027.406-.026.389.152z" fill="#1a1a1a"/><path d="M13.23 14.287c.168.007.32-.003.463 0 .11-.003 0-.172-.232-.172s-.353.154-.232.172z" fill="#1a1a1a"/></g><g transform="translate(-8.097 2.658)"><ellipse cy="18.918" cx="17.198" rx="1.918" ry="1.984" fill="#a02c2c" stroke="#e9afaf" stroke-width=".193"/><circle cx="17.198" cy="18.918" r="1.587" fill="#c83737"/><path d="M15.875 19.58c.794 1.058 1.852 1.058 2.646 0-.53 0 .529-1.06-.53-1.853-.264-.53-1.322-.53-1.587 0-1.058.794 0 1.852-.529 1.852z" fill="#1a1a1a"/><path d="M16.703 19.478c.125.763-.18.69-.333.794.255.194.55.22.828.233.278-.014.573-.039.828-.233-.154-.103-.424.07-.299-.693h-.53z" fill="#c87137"/><path d="M17.727 19.58c-.125.762.145.589.299.692-.255.194-.55.22-.828.233v-.926z" fill="#dc8443"/><path d="M17.992 18.785v-.396c0-.265 0-.53-.794-.53s-.735.149-.735.413l.735 1.572c.265 0 .794 0 .794-1.059z" fill="#dc8443"/><path d="M16.491 18.038a3.046 3.046 0 00-.087.747c0 1.059.53 1.059.794 1.059v-1.059l-.01-1.007z" fill="#c87137"/><path d="M16.446 18.26c-.188-.822 1.662-.76 1.541-.01-.334-.25-1.022-.407-1.541.01z" fill="#1a1a1a"/><ellipse cx="16.933" cy="18.753" rx=".084" ry=".1" opacity=".999" fill="#1a1a1a"/><ellipse ry=".1" rx=".084" cy="18.753" cx="17.462" opacity=".999" fill="#1a1a1a"/><path d="M16.654 18.681c0-.002.162-.2.402-.083.044-.033.014-.111-.07-.132-.113-.027-.35.038-.332.215z" fill="#1a1a1a"/><path d="M16.888 19.32l.62-.01s-.045.27-.31.27c-.207 0-.285-.236-.31-.26z" fill="#c8beb7"/><path d="M17.693 18.681a.33.33 0 00-.401-.083c-.045-.033-.015-.111.069-.132.113-.027.35.038.332.215z" fill="#1a1a1a"/></g></svg>