<svg xmlns="http://www.w3.org/2000/svg" viewBox="0 0 39.688 52.917" height="200" width="150"><path d="M5.557 35.5l3.174-5.988 16.855-9.03s6.835-4.528 7.31-.588c.475 3.94-8.031 4.094-8.031 4.094l.887.198 4.483-.254-2.162 6.513 4.12.085.058 4.971-3.434.442c-.08.147 1.572 1.045 2.14 1.048.337.159.872.32 1.535.326.516.815-.72 1.473-1.031 2.188l-.155.358c-1.484 3.456-2.525 6.549-6.17 9.085 0 0-5.147 3.056-7.938 2.646z" fill="#ae6641"/><path d="M11.906 46.831h15.875c1.323 0 3.175-1.058 3.175-3.175V9.26c0-2.116-1.852-3.175-3.175-3.175H11.906c-1.323 0-3.175 1.323-3.175 3.175v34.396c0 2.117 1.852 3.175 3.175 3.175z" fill="#1a1a1a"/><path d="M9.26 10.583v31.75c0 2.646 1.323 3.97 3.97 3.97h13.228c2.646 0 3.97-1.324 3.97-3.97v-31.75c0-2.646-1.324-3.968-3.97-3.968H13.23c-2.646 0-3.969 1.322-3.969 3.968z" fill="#3771c8"/><circle r=".926" cy="9.525" cx="12.171"/><circle r=".661" cx="12.171" cy="9.525" fill="#1a1a1a"/><circle r=".397" cy="9.525" cx="12.171" fill="#333"/><path d="M26.995 6.634C21.18 10.847 15.52 16.142 9.26 17.198v5.292c8.37-6.208 14.44-8.498 21.167-11.907a5.848 5.848 0 00-.152-1.403c-.56-2.216-2.293-2.457-3.28-2.546zM9.26 30.922v6.024c6.84-3.491 13.797-10.87 21.167-11.726V18.51c-7.151 4.419-14.2 10.537-21.167 12.413zM16.013 46.302L30.427 34.64v6.106l-7.865 5.556z" fill="#5f8dd3"/><path d="M7.938 52.917v-5.292h13.229c7.937 1.323-3.97 5.292-3.97 5.292z" fill="#d38d5f"/><path d="M7.938 47.625c-1.784-1.74-2.307-5.574-2.646-7.937-.203-1.41-.103-4.356.855-5.274 4.05-3.879 6.357-6.087 8.507-6.481 2.93-.537 4.242-3.757 5.437-1.943 1.05 1.593.702 3.829-3.763 6.938-1.692 1.17-3.514 3.783-4.32 4.616 2.089 1.967 2.779 4.217 5.012 10.327zM30.962 37.526c-.054.237-.01.75-.053 1.113-.647 1.841-.22 4.013 1.135 3.169l.736-.443c1.309-.807 1.332-2.088.754-3.074-.121-.207-.75-.99-1.042-.974-.943-.038-1.146.027-1.53.209z" fill="#d38d5f"/><path d="M17.198 51.594v1.323h8.467l-.53-3.97z" fill="#ae6641"/><path d="M16.107 27.417c.987.756.845 2.16.748 3.174l2.529-2.438c.616-.977.364-2.908-.548-2.601-.69.202-1.756 1.059-2.73 1.865z" fill="#deaa87"/><path d="M16.922 29.644c.037-.344-.13-1.646-.677-2.11.036.01.498-.498.89.209.498.898.09 1.35-.213 1.9z" fill="#e9c6af"/><path d="M30.884 32.105c-.07.302-.036.567-.09 1.03-.824 2.343-.28 5.106 1.443 4.031l.937-.563c1.664-1.026 1.686-3.424.474-4.6-.219-.212-.547-.129-.92-.109z" fill="#d38d5f"/><path d="M30.956 25.248c-.038.344-.198 1.403-.178 1.567-.758 1.975-.604 3.914.081 4.8.192.247.723.615 1.197.63.278.008.728-.353.982-.766l.814-1.086c1.562-2.213-.077-4.968-1.638-5.12a9.206 9.206 0 00-1.258-.025z" fill="#d38d5f"/><path d="M30.743 31.446c-.352-3.276 2.307-5.852.153-5.734-.048.346-.112.692-.118 1.103-.32.729-.428 1.437-.486 2.12-.037.428-.1 1.592.451 2.51z" fill="#ae6641"/><path d="M31.789 28.843c1.019-.22 2.201 1.302 1.767 1.963l-.828 1.088c-.977.616-2.208-.83-1.901-1.741 0 0 .42-.881.962-1.31z" fill="#deaa87"/><path d="M32.511 28.942c.664.243.924.81 1.044 1.1-.01.036-.173.213-.62-.235-.417-.421-.424-.865-.424-.865z" fill="#e9c6af"/><path d="M32.27 34.543c1.027.147 1.554 1.686.904 2.06l-1.194.704c-1.137.17-1.719-1.449-1.093-2.054 0 0 .72-.548 1.383-.71z" fill="#deaa87"/><path d="M32.862 34.81c.217.192.53.484.597 1.198-.023.03-.213-.07-.365-.408-.242-.539-.232-.79-.232-.79z" fill="#e9c6af"/><path d="M32.055 39.714c.824.118 1.246 1.351.725 1.65l-.957.565c-.911.137-1.378-1.161-.876-1.647 0 0 .577-.438 1.108-.568z" fill="#deaa87"/><path d="M32.535 39.905c.152.138.45.498.474.972-.023.03-.208.06-.392-.389-.136-.332-.082-.583-.082-.583z" fill="#e9c6af"/><path d="M30.526 36.302c.082-3.158 3.122-4.298.332-4.056-.048.346-.043.478-.065.89a4.916 4.916 0 00-.327 1.392s-.155 1.223.06 1.774zM30.652 40.891c.083-3.157 2.472-3.12.285-3.137-.049.347-.007.474-.028.885a4.916 4.916 0 00-.328 1.393s0 .309.071.86zM12.776 36.647c.742-1.07 1.757-1.764 3.072-3.353 2.398-1.723 4.72-3.483 4.737-5.765-.815 2.24-2.669 2.85-4.2 4.11-.332.272-2.67 3.53-3.61 5.008z" fill="#ae6641"/></svg>