<svg xmlns="http://www.w3.org/2000/svg" viewBox="0 0 508 286.094" height="1081.298" width="1920"><path fill="#a73108" paint-order="stroke markers fill" d="M0 .344h508v285.75H0z"/><g fill="#6b364d" paint-order="stroke markers fill"><path d="M0 116.76h508v169.334H0z"/><path d="M429.948 57.229v34.396l-.794 2.646v1.323h-1.058V94.27l-.794-2.646V79.719h-1.323l-7.937-17.198h-1.323l-7.938 17.198h-1.323v21.166h-1.323V74.427l-2.645-1.323h-1.059l-6.879-3.969h-3.969v-1.323h-1.587v-5.027h-.53v5.027h-.793V60.14h-.53v7.673h-.528v1.323h-1.323v1.323l-2.646 1.323v55.563h89.958v-31.75h-2.646V71.78l-3.968-3.969h-1.323V66.49h-3.97v1.323h-2.645l-6.614 3.969v23.813h-2.646V58.552h-3.97v2.646h-2.645v-2.646h-1.323v-1.323h-5.291v1.323h-5.293v-1.323zM247.385 59.875v1.323h-5.291v1.323l-1.323 1.323v23.812h-1.323l-5.292-2.646h-1.323l-2.645-1.323v-1.323H228.6v-3.968h-.53v3.968h-.528v1.323l-3.97 1.323v15.875h-.528v-5.291l-.53-1.323v-.53h-1.322v.53l-2.382 1.323v5.291h-.529V85.01l-3.968-1.323v-1.323h-2.646v2.646h-1.323v-2.646c0-1.323-1.323-1.323-1.323-1.323s-1.323 0-1.323 1.323v18.521h-2.646V83.687l-2.646-1.323h-.529v-.529h-2.646v.53h-.793v-.53h-1.059v.53h-.264l-2.646 1.322v13.23h-2.646v-13.23H190.5V79.72h-3.969v1.322h-3.968v2.646h-1.323v9.26h-2.646v-9.26l-1.323-1.323v-3.968h-3.969v1.323l-5.292 3.968v43.657h178.594V79.719h-2.646l-5.291-2.91v-1.06h-3.97v2.647h-2.645l-3.969 1.323h-1.323v2.645h-1.322l-3.97-3.968v-1.323h-2.645v1.323h-2.646v3.968h-1.323v-1.323l-3.969-9.26-3.968 9.26v7.673h-.53l-1.587-1.058h-1.323v1.058h-.53v-7.673l-3.968-3.968v3.968l-3.969-3.968v3.968l-3.968-3.968v5.291h-1.323v-3.968l-2.646-1.323-3.969 1.323v10.583h-2.646v-9.26h-1.323v-1.323h-.793v-3.97h-.53v3.97h-.529V75.75h-.529v2.646h-1.058v-7.938h-.53v7.938h-2.645v1.323h-1.323l-10.583 2.645v13.23h-1.323v-35.72h-2.646v2.647h-5.292v-1.323h-1.323v-1.323zM133.615 67.812v2.646l-1.323 1.323v7.938h-3.97v2.645H127v-9.26h-2.646V127.344h33.073V71.78l-14.023-1.323v-2.646zM26.458 58.552l-1.323 1.323h-1.322L22.49 62.52V85.01h-1.323V74.427l-5.292-2.646v-3.969l-1.323-2.646h-3.969L9.26 67.812v2.646l-3.968 3.969V85.01H3.969v-6.614L0 77.073v50.271h104.51V78.396l-3.968-3.97v-2.645l-3.97-3.969V66.49l-3.968-3.968h-1.323l-3.968 3.968v1.323l-3.97 3.969v5.292h-1.322v-9.26l-1.323-3.97-7.673 3.97h-.265v9.26h-1.322V66.489l-13.23-3.968v-1.323H51.33v1.422L41.01 66.49v7.937h-1.322V62.52l-1.323-2.646v-1.323h-5.292v1.323H31.75l-1.323-1.323-1.323 1.323h-1.323z"/></g><g fill="#572d3d" paint-order="stroke markers fill"><path d="M0 174.969h508v111.125H0z"/><path d="M500.063 49.291l-17.198 3.97v6.614l-9.26 3.969v34.395h-3.97v-3.968h-6.614l-9.26 3.968v35.72l-5.292 3.968v3.969h-1.323V126.02l-2.646-3.97h-3.969l-2.646 3.97v11.906l-2.645-3.969V120.73l-2.646-3.969h-3.969v1.323h-2.646v-1.323h-3.969v3.969h-1.322l-2.646-5.292v-13.229c-.53-1.323-1.323-2.117-2.646-2.646-.159-.529-.397-.846-.794-1.058h-.264v-5.556h-.53v5.556h-.264c-.397.212-.635.53-.794 1.058-1.323.53-2.117 1.323-2.646 2.646v21.899h-2.684v-15.284h-.49V107.5l-.795-1.323v-.53l-1.322-1.322v-.794l-2.646-2.646h-5.292l-5.292 2.646v2.646l-2.645 2.646v71.437H508V63.844l-2.646-3.97V53.26zM259.027 76.544V88.45l-.53.529h-.528l-1.323 1.323v1.323l-1.323 1.323v87.312h92.604v-58.208l-6.614-5.292v-9.26l-2.646-5.292V98.24l-2.646-2.645h-1.323l-1.323-1.323V90.3l-.53-.793h-.793l-1.323.794v1.323h-2.646l-11.906 2.646v37.041h-2.646V111.47l-2.646-2.646h-2.645l-5.292-1.323v-.794l-1.058-1.236v-11.2h-.53v11.2l-1.058 1.236v.794h-2.646v1.323l-1.323 2.646v26.987l-.529 1.588v.264l-.264.265v1.323h-1.059v-1.323l-.264-.265v-.264l-.53-1.588v-12.435l-2.645-18.521h-7.938l-2.646 18.52v3.97h-3.968V91.624l-1.323-1.323h-2.646l-10.583 1.323v-1.323l-1.323-1.323h-.53l-.529-.53V76.545zM205.581 80.512l-.491 11.551c-.946.319-1.775 1.371-1.93 3.166-.785.604-1.32 1.542-1.33 2.811-.462.75-.747 1.695-.747 2.845v.53a5.203 5.203 0 00-.793 2.116v.265l-.794 1.058v6.615l-1.323 1.322v.53h-.265v-2.646l-.264-.53-.265-.529v-.793l-.264-.53h-.53v-2.91h-.264v2.91h-.265l-1.058.53v3.175l-.53-.53v-9.26l-.528-1.323V98.24l-.794-1.323h-5.292l-1.323-1.322h-1.323l-1.323 1.322v1.323l-1.322 1.323h-1.323l-1.323-1.323v-1.323h-3.97v2.646l-2.645 2.646v7.938l-1.323 2.645-1.323 1.323v-2.645l-.793-1.323v-3.97h-3.175v74.084h56.885v-70.11l-11.642-2.65v-2.646l-.793-1.058v-.265a5.203 5.203 0 00-.794-2.117v-.529c0-1.15-.285-2.095-.747-2.845-.01-1.27-.545-2.207-1.33-2.811-.155-1.795-.983-2.847-1.93-3.166l-.491-11.55zM131.498 89.244v2.91h-.265l-1.058.794V94.8l-1.058.794v3.968l-1.323 1.323v3.969l-.794 1.323v74.083h9.26v-74.083l-.793-1.323v-3.969l-1.323-1.323v-3.968l-1.059-.794v-1.852l-1.058-.794h-.264v-2.91zM84.931 96.916l-1.323 1.323v5.292h-2.91v76.73H95.25v-74.084l-5.292-2.646h-1.323v-5.292l-1.322-1.323zM15.875 122.052l-1.323 1.323v2.646l-11.906 1.323v15.875H0v37.041h18.52V123.374l-1.322-1.322z"/></g><path d="M96.398.344c11.203 28.05 37.157 49.713 66.759 55.718 14.927 3.029 30.682 2.235 45.061-2.787 14.38-5.022 27.315-14.322 36.231-26.67 1.51-2.092 2.916-4.278 4.718-6.124s4.075-3.359 6.631-3.707c1.79-.244 3.635.1 5.285.837 1.65.736 3.112 1.852 4.375 3.145 2.524 2.584 4.242 5.826 6.136 8.904 4.694 7.628 10.722 14.527 18.131 19.56 7.41 5.032 16.254 8.129 25.21 8.036 10.232-.105 19.964-4.263 29.087-8.897 9.122-4.634 18.085-9.868 27.995-12.417a55.157 55.157 0 0112.66-1.728" fill="none" stroke="#1b638b" stroke-width="1.852" stroke-dasharray="11.1125,1.85208"/><path d="M402.805 35.133c.026.636-.354.913-.686 1.067l-.369 1.346c1.173.3 2.921.462 3.386 1.47.12-.43.413-2.168.597-1.6.006.707-.255 1.374-.441 2.049.069.155.096.248.044.418-.041.155-.125.213-.217.32l-.098.289c-.138.385-.775 3.017-.946 2.471.194-.948.548-1.66.738-2.518-1.072.5-2.261.324-3.456.308.107.32.1.33-.186.465.03.283.052.44.14.728-.165 1.758-2.241 1.186-2.262.135.055-.293.11-.49.43-.845-.096-.4-.413-.431-.786-.593-.55-.314-3.208-.34-2.112-1.068-3.11-1.484-5.681-2.834-8.645-4.372-.034-.142.046-.171.147-.26l-.68-.32c-.004-.31.656-.143.916-.115l.509-2.358c1.871.007 2.368 1.75 2.704 3.145l3.267.512c.252.56.9.683 1.236.112l1.725.527.315-1.147c-.358-.425-1.094-1.031-.365-1.25 1.75.288 3.527.235 5.095 1.084zm-.992 1.155c-1.19-.173-2.338-.524-3.466-.948l-.322 1.179 3.466.948z" fill="#1b638b"/><g transform="translate(0 .344)" paint-order="stroke markers fill"><path fill="#44232f" d="M0 206.375h508v79.375H0z"/><path fill="#44232f" d="M18.521 96.573h66.146V222.25H18.521zM0 166.688h9.26v46.302H0zM34.396 70.115v1.852h-7.938l-7.937 23.812h66.146l-7.938-23.812h-7.937v-1.852h-3.175v1.852H37.57v-1.852zM20.637 87.312l-1.587-9.26h4.762zM82.55 87.312l1.587-9.26h-4.762z"/><g fill="#a73108"><path d="M68.792 80.698v2.646h3.704v-2.646zm4.233 0v2.646h3.704v-2.646zm-4.233 2.91v3.44h3.704v-3.44zm4.233 0v3.44h3.704v-3.44zm-4.233 3.705v3.704h3.704v-3.704zm4.233 0v3.704h3.704v-3.704zm-4.233 3.968v2.646h3.704v-2.646zm4.233 0v2.646h3.704v-2.646zM72.496 77.803c-.793.058-3.26.412-3.704 2.63h3.704zm.529 0v2.63h3.704c-.444-2.218-2.911-2.572-3.704-2.63z"/></g><g fill="#1b638b"><path d="M58.208 80.698v2.646h3.705v-2.646zm4.234 0v2.646h3.704v-2.646zm-4.234 2.91v3.44h3.705v-3.44zm4.234 0v3.44h3.704v-3.44zm-4.234 3.705v3.704h3.705v-3.704zm4.234 0v3.704h3.704v-3.704zm-4.234 3.968v2.646h3.705v-2.646zm4.234 0v2.646h3.704v-2.646zM61.913 77.803c-.793.058-3.26.412-3.705 2.63h3.705zm.529 0v2.63h3.704c-.444-2.218-2.912-2.572-3.704-2.63z"/></g><g fill="#a73108"><path d="M47.625 80.698v2.646h3.704v-2.646zm4.233 0v2.646h3.705v-2.646zm-4.233 2.91v3.44h3.704v-3.44zm4.233 0v3.44h3.705v-3.44zm-4.233 3.705v3.704h3.704v-3.704zm4.233 0v3.704h3.705v-3.704zm-4.233 3.968v2.646h3.704v-2.646zm4.233 0v2.646h3.705v-2.646zM51.33 77.803c-.793.058-3.261.412-3.705 2.63h3.704zm.528 0v2.63h3.705c-.444-2.218-2.912-2.572-3.705-2.63z"/></g><g fill="#a73108"><path d="M37.042 80.698v2.646h3.704v-2.646zm4.233 0v2.646h3.704v-2.646zm-4.233 2.91v3.44h3.704v-3.44zm4.233 0v3.44h3.704v-3.44zm-4.233 3.705v3.704h3.704v-3.704zm4.233 0v3.704h3.704v-3.704zm-4.233 3.968v2.646h3.704v-2.646zm4.233 0v2.646h3.704v-2.646zM40.746 77.803c-.793.058-3.26.412-3.704 2.63h3.704zm.529 0v2.63h3.704c-.444-2.218-2.911-2.572-3.704-2.63z"/></g><g fill="#1b638b"><path d="M26.458 80.698v2.646h3.705v-2.646zm4.234 0v2.646h3.704v-2.646zm-4.234 2.91v3.44h3.705v-3.44zm4.234 0v3.44h3.704v-3.44zm-4.234 3.705v3.704h3.705v-3.704zm4.234 0v3.704h3.704v-3.704zm-4.234 3.968v2.646h3.705v-2.646zm4.234 0v2.646h3.704v-2.646zM30.163 77.803c-.793.058-3.26.412-3.705 2.63h3.705zm.529 0v2.63h3.704c-.444-2.218-2.912-2.572-3.704-2.63z"/></g><path fill="#a73108" d="M23.813 101.865h6.35v10.583h-6.35z"/><path fill="#1b638b" d="M73.025 101.865h6.35v10.583h-6.35z"/><path fill="#a73108" d="M53.975 101.865h6.35v10.583h-6.35zM42.862 101.865h6.35v10.583h-6.35zM73.025 116.417h6.35V127h-6.35zM63.5 116.417h6.35V127H63.5zM42.862 116.417h6.35V127h-6.35zM33.338 116.417h6.35V127h-6.35zM63.5 130.969h6.35v10.583H63.5zM53.975 130.969h6.35v10.583h-6.35zM33.338 130.969h6.35v10.583h-6.35z"/><path fill="#1b638b" d="M42.862 130.969h6.35v10.583h-6.35z"/><path fill="#a73108" d="M73.025 145.521h6.35v10.583h-6.35zM53.975 145.521h6.35v10.583h-6.35zM42.862 145.521h6.35v10.583h-6.35zM33.338 145.521h6.35v10.583h-6.35z"/><path fill="#1b638b" d="M23.813 145.521h6.35v10.583h-6.35z"/><path fill="#a73108" d="M73.025 160.073h6.35v10.583h-6.35zM33.338 160.073h6.35v10.583h-6.35zM63.5 174.625h6.35v10.583H63.5zM42.862 174.625h6.35v10.583h-6.35zM33.338 174.625h6.35v10.583h-6.35zM23.813 174.625h6.35v10.583h-6.35zM73.025 189.177h6.35v10.583h-6.35z"/><path fill="#1b638b" d="M63.5 189.177h6.35v10.583H63.5z"/><path fill="#a73108" d="M53.975 189.177h6.35v10.583h-6.35zM33.338 189.177h6.35v10.583h-6.35zM42.863 189.177h6.35v10.583h-6.35zM73.025 203.729h6.35v10.583h-6.35zM63.5 203.729h6.35v10.583H63.5z"/><path fill="#1b638b" d="M53.975 203.729h6.35v10.583h-6.35z"/><path fill="#a73108" d="M33.338 203.729h6.35v10.583h-6.35z"/><path fill="#1b638b" d="M23.813 203.729h6.35v10.583h-6.35z"/><path d="M116.417 44.98l-10.584 2.645v34.396l-2.116 2.646-5.821 7.937v33.073l-5.292 6.615v80.698h187.854v-56.886l-5.291-18.52h-2.646v-22.49h-2.646v-13.23l-6.615-2.645h-27.78l-9.261 3.969v6.614l-2.646 3.969v6.614l-2.646 3.97v9.26l-3.969 3.968v42.334h-1.323v-31.75l-6.614-1.323v-1.323l-5.292-1.323h-3.175v-1.323h-2.116v29.104h-1.323v-52.916l-18.521-7.938h-3.969v31.75l-5.292 7.938V79.375l-6.614-3.969h-19.844l-6.615 3.969v84.667h-1.322v-17.198l-2.646-6.615v-7.937L127 125.677v-41.01l-1.323-6.615V47.625zM312.208 152.135l-3.968 9.26-1.323 1.324v3.969h-2.646v15.875h-1.323v-13.23l-9.26-15.875-10.584 15.875v6.615h-1.323v37.042h58.209v-46.302l-7.938-2.646v-2.646h-5.292v2.646l-2.645 2.646v10.583h-1.323v-10.583l-2.646-2.646v-1.323l-1.323-1.323-3.969-9.26zM356.394 23.813v22.49l-1.852 1.322h-7.938l-2.646 5.292V212.99h52.917C415.395 166.072 381 91.555 370.417 52.917l-2.646-5.292h-7.938l-1.852-1.323v-22.49zM408.781 127v85.99h72.76v-56.886l-2.645-5.291h-1.323v-1.323h-5.292v1.323h-13.229l-19.844 5.291v31.75h-2.645v-48.948h-5.292v-1.323l-2.646-5.291-2.646-5.292zM492.125 148.167l-2.646 2.646v7.937l-2.646 6.615v47.625H508v-31.75h-5.292v-15.875l-1.323-6.615v-7.937l-2.645-2.646zM9.26 166.688l5.292 5.291H9.26zM9.26 171.979h5.292v41.01H9.26zM1.323 164.042h5.292v2.646H1.323zM14.552 197.115h3.969v15.875h-3.969zM84.667 193.146h2.646v19.844h-2.646zM87.313 201.083h2.646v11.906h-2.646z" fill="#44232f"/><path fill="#44232f" d="M89.958 193.146h2.646v19.844h-2.646zM84.667 187.854l2.646 5.292h-2.646z"/><path fill="#1b638b" d="M53.975 160.073h6.35v10.583h-6.35z"/><path fill="#a73108" d="M108.479 58.208h2.646V63.5h-2.646zM119.063 64.823h2.646v5.292h-2.646zM120.385 51.594h2.646v5.292h-2.646z"/><path fill="#1b638b" d="M108.479 71.438h2.646v5.292h-2.646z"/><path fill="#a73108" d="M113.771 71.438h2.646v5.292h-2.646z"/><path fill="#1b638b" d="M119.063 71.438h2.646v5.292h-2.646z"/><path fill="#a73108" d="M108.479 78.052h2.646v5.292h-2.646zM113.771 84.667h2.646v5.292h-2.646zM108.479 84.667h2.646v5.292h-2.646zM108.479 111.125h2.646v5.292h-2.646zM99.219 111.125h6.615v5.292h-6.615zM99.219 104.51h6.615v5.292h-6.615zM113.771 111.125h2.646v5.292h-2.646z"/><path fill="#1b638b" d="M99.219 117.74h6.615v5.292h-6.615z"/><path fill="#a73108" d="M93.927 134.938h11.906v5.292H93.927zM93.927 144.198h11.906v5.292H93.927z"/><path fill="#1b638b" d="M93.927 153.458h11.906v5.292H93.927z"/><path fill="#a73108" d="M93.927 162.719h11.906v5.292H93.927zM108.479 134.938h2.646v5.292h-2.646zM113.771 144.198h2.646v5.292h-2.646zM119.063 144.198h2.646v5.292h-2.646zM113.771 153.458h2.646v5.292h-2.646z"/><path fill="#1b638b" d="M119.063 153.458h2.646v5.292h-2.646z"/><path fill="#a73108" d="M124.354 162.719H127v5.292h-2.646zM129.646 162.719h2.646v5.292h-2.646z"/><path fill="#a73108" d="M129.646 162.719h2.646v5.292h-2.646zM124.354 144.198H127v5.292h-2.646zM124.354 134.938H127v5.292h-2.646z"/><path fill="#1b638b" d="M113.771 134.938h2.646v5.292h-2.646zM137.583 84.667h9.26v2.646h-9.26z"/><path fill="#a73108" d="M148.167 84.667h9.26v2.646h-9.26zM137.583 89.958h3.969v2.646h-3.969zM145.521 89.958h21.167v2.646h-21.167zM137.583 95.25h21.167v2.646h-21.167zM160.073 95.25h6.615v2.646h-6.615z"/><path fill="#1b638b" d="M144.198 100.542h21.167v2.646h-21.167z"/><path fill="#a73108" d="M137.583 100.542h3.969v2.646h-3.969zM157.427 105.833h9.26v2.646h-9.26zM144.198 105.833h3.969v2.646h-3.969z"/><path fill="#1b638b" d="M137.583 111.125h9.26v2.646h-9.26z"/><path fill="#a73108" d="M150.813 111.125h6.615v2.646h-6.615zM138.906 129.646h21.167v2.646h-21.167z"/><path fill="#1b638b" d="M145.521 134.938h21.167v2.646h-21.167z"/><path fill="#a73108" d="M138.906 140.229h3.969v2.646h-3.969zM145.521 140.229h3.969v2.646h-3.969zM152.135 140.229h9.26v2.646h-9.26zM137.583 145.521h21.167v2.646h-21.167zM183.885 121.708h13.229v2.646h-13.229zM183.885 128.323h13.229v2.646h-13.229z"/><path fill="#1b638b" d="M183.885 134.938h13.229v2.646h-13.229z"/><path fill="#a73108" d="M183.885 141.552h13.229v2.646h-13.229z"/><path fill="#1b638b" d="M199.76 154.781h3.969v2.646h-3.969zM210.344 162.719h3.969v2.646h-3.969z"/><path fill="#a73108" d="M209.021 152.135h3.969v2.646h-3.969zM199.76 165.365h3.969v2.646h-3.969zM210.344 168.01h3.969v2.646h-3.969zM205.052 171.979h3.969v2.646h-3.969zM203.729 160.073h3.969v2.646h-3.969zM199.76 148.167h3.969v2.646h-3.969z"/><path fill="#1b638b" d="M219.604 149.49h22.49v2.646h-22.49z"/><path fill="#a73108" d="M220.927 127h13.229v2.646h-13.229z"/><path fill="#1b638b" d="M260.615 121.708h11.906v2.646h-11.906z"/><path fill="#a73108" d="M227.542 121.708h11.906v2.646h-11.906zM248.708 121.708h6.615v2.646h-6.615zM260.615 127h11.906v2.646h-11.906zM240.771 127h6.615v2.646h-6.615z"/><circle r="1.984" cy="105.172" cx="230.717" fill="#a73108"/><circle cx="247.385" cy="105.172" r="1.984" fill="#a73108"/><circle cx="236.361" cy="105.172" r="1.984" fill="#1b638b"/><circle cx="241.873" cy="105.172" r="1.984" fill="#1b638b"/><circle cx="252.898" cy="105.172" r="1.984" fill="#a73108"/><circle cx="258.41" cy="105.172" r="1.984" fill="#1b638b"/><circle r="1.984" cy="105.172" cx="263.922" fill="#a73108"/><path fill="#a73108" d="M260.615 132.292h11.906v2.646h-11.906z"/><path fill="#1b638b" d="M227.542 132.292h23.812v2.646h-23.812z"/><path fill="#a73108" d="M219.604 138.906h30.427v2.646h-30.427zM234.156 144.198h33.073v2.646h-33.073zM219.604 154.781h42.333v2.646h-42.333zM232.833 160.073h44.979v2.646h-44.979z"/><path fill="#1b638b" d="M219.604 165.365h44.979v2.646h-44.979z"/><path fill="#a73108" d="M232.833 170.656h44.979v2.646h-44.979zM289.719 177.271h1.323v3.969h-1.323zM285.75 170.656h1.323v3.969h-1.323z"/><path fill="#1b638b" d="M289.719 170.656h1.323v3.969h-1.323z"/><path fill="#a73108" d="M298.979 170.656h1.323v3.969h-1.323zM289.719 183.885h1.323v3.969h-1.323z"/><path fill="#1b638b" d="M285.75 190.5h1.323v3.969h-1.323z"/><path fill="#a73108" d="M289.719 197.115h1.323v3.969h-1.323zM295.01 177.271h1.323v3.969h-1.323z"/><path fill="#1b638b" d="M298.979 183.885h1.323v3.969h-1.323z"/><path fill="#a73108" d="M295.01 190.5h1.323v3.969h-1.323zM298.979 197.115h1.323v3.969h-1.323zM285.75 203.465h1.323v3.969h-1.323z"/><path fill="#1b638b" d="M295.01 203.729h1.323v3.969h-1.323z"/><path fill="#a73108" d="M306.917 170.656h1.323v3.969h-1.323z"/><path fill="#1b638b" d="M310.885 170.656h1.323v3.969h-1.323z"/><circle r="1.984" cy="160.78" cx="313.413" fill="#a73108"/><path fill="#a73108" d="M318.823 170.656h1.323v3.969h-1.323zM306.917 177.271h1.323v3.969h-1.323zM314.854 177.271h1.323v3.969h-1.323z"/><path fill="#1b638b" d="M310.885 183.885h1.323v3.969h-1.323zM318.823 190.5h1.323v3.969h-1.323z"/><path fill="#a73108" d="M306.917 190.5h1.323v3.969h-1.323zM314.854 197.115h1.323v3.969h-1.323zM310.885 197.115h1.323v3.969h-1.323zM306.917 203.729h1.323v3.969h-1.323z"/><path fill="#1b638b" d="M330.729 170.656h1.323v3.969h-1.323z"/><path fill="#a73108" d="M333.375 170.656h1.323v3.969h-1.323zM336.021 170.656h1.323v3.969h-1.323zM325.438 170.656h1.323v3.969h-1.323zM328.083 177.271h1.323v3.969h-1.323zM336.021 177.271h1.323v3.969h-1.323zM330.729 183.885h1.323v3.969h-1.323z"/><path fill="#1b638b" d="M333.375 183.885h1.323v3.969h-1.323z"/><path fill="#a73108" d="M325.438 183.885h1.323v3.969h-1.323zM336.021 190.5h1.323v3.969h-1.323zM330.729 190.5h1.323v3.969h-1.323zM325.438 190.5h1.323v3.969h-1.323z"/><path fill="#1b638b" d="M328.083 195.792h1.323v3.969h-1.323z"/><path fill="#a73108" d="M333.375 195.792h1.323v3.969h-1.323z"/><rect ry="1.323" y="56.885" x="346.604" height="2.646" width="22.49" fill="#a73108"/><rect width="9.26" height="2.646" x="346.604" y="62.177" ry="1.323" fill="#1b638b"/><rect ry="1.323" y="66.146" x="358.51" height="2.646" width="10.583" fill="#a73108"/><rect width="13.229" height="2.646" x="346.604" y="71.438" ry="1.323" fill="#a73108"/><rect ry="1.323" y="76.729" x="359.833" height="2.646" width="9.26" fill="#1b638b"/><rect width="9.26" height="2.646" x="346.604" y="76.729" ry="1.323" fill="#a73108"/><rect width="22.49" height="2.646" x="346.604" y="82.021" ry="1.323" fill="#a73108"/><rect width="9.26" height="2.646" x="346.604" y="87.313" ry="1.323" fill="#a73108"/><rect ry="1.323" y="92.604" x="355.865" height="2.646" width="11.906" fill="#a73108"/><rect width="11.906" height="2.646" x="346.604" y="97.896" ry="1.323" fill="#1b638b"/><rect width="23.813" height="2.646" x="350.573" y="103.188" ry="1.323" fill="#a73108"/><rect ry="1.323" y="108.479" x="346.604" height="2.646" width="14.552" fill="#a73108"/><rect ry="1.323" y="108.479" x="363.802" height="2.646" width="9.26" fill="#a73108"/><rect ry="1.323" y="113.771" x="346.604" height="2.646" width="23.813" fill="#1b638b"/><rect width="11.906" height="2.646" x="362.479" y="119.063" ry="1.323" fill="#a73108"/><rect ry="1.323" y="82.021" x="346.604" height="2.646" width="22.49" fill="#a73108"/><rect width="15.875" height="2.646" x="346.604" y="124.354" ry="1.323" fill="#a73108"/><rect ry="1.323" y="119.063" x="346.604" height="2.646" width="9.26" fill="#a73108"/><rect width="39.688" height="2.646" x="351.896" y="129.646" ry="1.323" fill="#1b638b"/><rect width="9.26" height="2.646" x="346.604" y="134.938" ry="1.323" fill="#a73108"/><rect ry="1.323" y="134.937" x="362.479" height="2.646" width="11.906" fill="#a73108"/><rect width="37.042" height="2.646" x="346.604" y="140.229" ry="1.323" fill="#a73108"/><rect ry="1.323" y="146.844" x="357.187" height="2.646" width="37.042" fill="#a73108"/><rect width="33.073" height="2.646" x="346.604" y="152.135" ry="1.323" fill="#1b638b"/><rect width="11.906" height="2.646" x="382.323" y="152.135" ry="1.323" fill="#a73108"/><rect ry="1.323" y="157.427" x="346.604" height="2.646" width="9.26" fill="#a73108"/><rect ry="1.323" y="157.427" x="361.156" height="2.646" width="33.073" fill="#a73108"/><rect ry="1.323" y="162.719" x="346.604" height="2.646" width="29.104" fill="#a73108"/><rect width="9.26" height="2.646" x="384.969" y="162.719" ry="1.323" fill="#a73108"/><rect width="33.073" height="2.646" x="353.219" y="168.01" ry="1.323" fill="#1b638b"/><rect ry="1.323" y="173.302" x="346.604" height="2.646" width="33.073" fill="#a73108"/><rect width="9.26" height="2.646" x="384.969" y="173.302" ry="1.323" fill="#a73108"/><rect ry="1.323" y="178.594" x="346.604" height="2.646" width="26.458" fill="#a73108"/><rect ry="1.323" y="178.594" x="377.031" height="2.646" width="17.198" fill="#a73108"/><path fill="#a73108" d="M411.427 138.906h3.969v3.969h-3.969zM411.427 145.521h3.969v3.969h-3.969zM418.042 152.135h3.969v3.969h-3.969zM418.042 158.75h3.969v3.969h-3.969z"/><path fill="#1b638b" d="M411.427 145.521h3.969v3.969h-3.969z"/><path fill="#a73108" d="M418.042 138.906h3.969v3.969h-3.969zM424.656 145.521h3.969v3.969h-3.969zM411.427 158.75h3.969v3.969h-3.969z"/><path fill="#1b638b" d="M424.656 158.75h3.969v3.969h-3.969z"/><path fill="#a73108" d="M411.427 165.365h3.969v3.969h-3.969z"/><path fill="#1b638b" d="M411.427 171.979h3.969v3.969h-3.969z"/><path fill="#a73108" d="M424.656 165.365h3.969v3.969h-3.969z"/><path fill="#1b638b" d="M424.656 171.979h3.969v3.969h-3.969z"/><path fill="#a73108" d="M418.042 178.594h3.969v3.969h-3.969zM418.042 185.208h3.969v3.969h-3.969zM411.427 178.594h3.969v3.969h-3.969zM424.656 185.208h3.969v3.969h-3.969zM411.427 191.823h3.969v3.969h-3.969zM441.854 158.75h13.229v2.646h-13.229zM456.406 164.042h21.167v2.646h-21.167z"/><path fill="#1b638b" d="M463.021 158.75h14.552v2.646h-14.552z"/><path fill="#a73108" d="M441.854 164.042h7.938v2.646h-7.938z"/><path fill="#1b638b" d="M441.854 169.333h18.521v2.646h-18.521z"/><path fill="#a73108" d="M466.99 169.333h10.583v2.646H466.99zM441.854 174.625h25.135v2.646h-25.135zM469.635 174.625h7.938v2.646h-7.938zM441.854 179.917h15.875v2.646h-15.875z"/><path fill="#1b638b" d="M461.698 179.917h15.875v2.646h-15.875z"/><path fill="#a73108" d="M441.854 185.208h22.49v2.646h-22.49zM469.635 185.208h7.938v2.646h-7.938zM455.083 190.5h22.49v2.646h-22.49zM494.771 164.042h1.323v3.969h-1.323z"/><path fill="#1b638b" d="M497.417 164.042h1.323v3.969h-1.323z"/><path fill="#a73108" d="M497.417 157.427h1.323v3.969h-1.323zM497.417 150.813h1.323v3.969h-1.323zM492.125 150.813h1.323v3.969h-1.323z"/><path fill="#1b638b" d="M492.125 157.427h1.323v3.969h-1.323z"/><path fill="#a73108" d="M492.125 164.042h1.323v3.969h-1.323zM489.479 164.042h1.323v3.969h-1.323zM492.125 170.656h1.323v3.969h-1.323zM497.417 170.656h1.323v3.969h-1.323z"/><path fill="#1b638b" d="M489.479 177.271h1.323v3.969h-1.323z"/><path fill="#a73108" d="M494.771 177.271h1.323v3.969h-1.323zM492.125 183.885h1.323v3.969h-1.323z"/><path fill="#1b638b" d="M497.417 183.885h1.323v3.969h-1.323z"/><path fill="#a73108" d="M489.479 190.5h1.323v3.969h-1.323zM497.417 190.5h1.323v3.969h-1.323zM492.125 197.115h1.323v3.969h-1.323z"/></g><g paint-order="stroke markers fill"><path d="M67.872 19.719c-2.863.003-5.182 1.78-5.182 3.974 0 .082.004.165.01.248-2.963.46-5.128 2.767-5.128 5.465 0 3.064 2.77 5.548 6.185 5.548.648 0 1.29-.09 1.907-.27 1.386 2.74 4.17 4.07 6.856 3.28 1.593-.47 2.976-1.64 3.853-3.263 1.961.63 4.086.14 5.492-1.264 2.056-2.055 1.958-5.396-.218-7.462-4.415-3.51-7.572-5.836-13.767-6.256h-.008z" fill="#44232f"/><path d="M70.327 17.877c-2.863.003-5.182 1.782-5.182 3.974L78.828 32.86c1.961.63 4.086.14 5.492-1.265 2.056-2.054 1.959-5.395-.218-7.461a5.675 5.675 0 00-2.254-1.311c-.229-2.274-2.015-3.707-4.199-3.368-.84.131-1.674.518-2.401 1.116-.716-1.611-2.692-2.694-4.913-2.694h-.007z" fill="#6c81be"/><path d="M68.957 18.24a5.19 3.974 0 00-5.182 3.975 5.19 3.974 0 00.01.248 6.186 5.548 0 00-5.128 5.465 6.186 5.548 0 006.185 5.548 6.186 5.548 0 001.907-.27 6.261 7.272 3.445 006.856 3.28 6.261 7.272 3.445 003.853-3.263 5.458 5.237 24.516 005.492-1.264 5.458 5.237 24.516 00-.218-7.462 5.458 5.237 24.516 00-2.254-1.31 4.112 5.044 32.949 00-4.2-3.368 4.112 5.044 32.949 00-2.4 1.115 5.19 3.974 0 00-4.913-2.693 5.19 3.974 0 00-.008 0z" fill="#d4d4d4"/><path d="M157.9 14.753c-3.95-.248-7.646 1.428-9.415 4.271-4.224.791-7.253 3.743-7.476 7.284-.28 4.467 3.945 8.368 9.438 8.713 2.135.134 4.248-.294 6.027-1.22 1.714 1.334 3.934 2.145 6.271 2.292 2.753.173 5.44-.59 7.424-2.105 1.242.539 2.603.863 3.994.95 5.493.346 10.174-2.996 10.455-7.463C173.937 16.517 157.9 14.753 157.9 14.753z" fill="#44232f"/><path d="M174.736 10.131c-2.632-.152-5.203.551-7.15 1.954a11.994 11.994 0 00-3.68-.819c-3.95-.248-7.646 1.428-9.415 4.272l25.678 15.914c5.493.345 10.174-2.996 10.455-7.464.232-3.684-2.628-7.095-6.955-8.297-1.355-3.112-4.853-5.304-8.87-5.556a12.485 12.485 0 00-.063-.004z" fill="#6c81be"/><path d="M171.67 11.168a9.966 8.104 3.597 00-7.151 1.955 9.966 8.104 3.597 00-3.68-.82 9.966 8.104 3.597 00-9.415 4.272 9.966 8.104 3.597 00-7.475 7.283 9.966 8.104 3.597 009.438 8.713 9.966 8.104 3.597 006.027-1.22 9.966 8.104 3.597 006.271 2.292 9.966 8.104 3.597 007.423-2.105 9.966 8.104 3.597 003.995.95 9.966 8.104 3.597 0010.454-7.462 9.966 8.104 3.597 00-6.955-8.298 9.966 8.104 3.597 00-8.869-5.556 9.966 8.104 3.597 00-.064-.004z" fill="#d4d4d4"/><path d="M240.108 22.486a8.148 8.148 0 00-.529-.017c-3.787 0-6.858 2.583-6.858 5.77 0 .576.103 1.15.306 1.7-.71.93-1.088 2.013-1.088 3.118 0 3.186 3.07 5.77 6.858 5.77 1.544 0 3.042-.439 4.253-1.245 1.23 1.77 3.484 2.857 5.92 2.857 1.538 0 3.03-.434 4.239-1.234 1.47 1.216 3.447 1.897 5.508 1.897 1.903 0 3.741-.581 5.173-1.636 1.179.73 2.603 1.123 4.066 1.123 2.765 0 5.26-1.397 6.327-3.543a8.11 8.11 0 001.378.118c3.446 0 6.357-2.153 6.8-5.028z" fill="#44232f"/><path d="M256.432 10.523c-2.837.018-5.368 1.503-6.368 3.736-3.122.286-5.614 2.32-6.05 4.936a8.148 8.148 0 00-.53-.018c-3.787 0-6.858 2.584-6.857 5.77l41.561 8.807a8.11 8.11 0 001.378.118c3.447 0 6.358-2.152 6.8-5.028a4.456 4.456 0 002.427-3.974 4.455 4.455 0 00-1.919-3.671 3.73 3.73 0 00.101-.86c0-2.777-3.07-5.029-6.858-5.029a8.83 8.83 0 00-3.5.704c-.966-.994-2.331-1.56-3.762-1.56-1.156 0-2.277.37-3.18 1.048-1.292-1.123-3.07-1.757-4.928-1.757-.67 0-1.336.082-1.978.245-1.09-2.105-3.558-3.467-6.287-3.467a8.2 8.2 0 00-.05 0z" fill="#6c81be"/><path d="M253.952 12.092a6.858 5.77 0 00-6.368 3.736 6.858 5.77 0 00-6.05 4.935 6.858 5.77 0 00-.53-.017 6.858 5.77 0 00-6.857 5.77 6.858 5.77 0 00.305 1.701 6.858 5.77 0 00-1.088 3.117 6.858 5.77 0 006.858 5.77 6.858 5.77 0 004.254-1.244 6.858 5.77 0 005.92 2.857 6.858 5.77 0 004.238-1.234 7.856 6.609 0 005.508 1.896 7.856 6.609 0 005.174-1.636 6.858 5.77 0 004.066 1.124 6.858 5.77 0 006.327-3.544 6.858 5.77 0 001.377.118 6.858 5.77 0 006.8-5.028 4.456 4.456 0 002.427-3.974 4.455 4.455 0 00-1.919-3.671 6.858 5.03 0 00.102-.86 6.858 5.03 0 00-6.858-5.029 6.858 5.03 0 00-3.5.704 5.1 4.802 0 00-3.763-1.56 5.1 4.802 0 00-3.18 1.048 6.858 5.77 0 00-4.928-1.757 6.858 5.77 0 00-1.978.245 6.858 5.77 0 00-6.287-3.467 6.858 5.77 0 00-.05 0z" fill="#d4d4d4"/><path d="M415.25 17.127a6.38 6.38 0 00-3.212-.863c-3.415 0-6.182 2.655-6.182 5.931 0 .35.032.698.096 1.043-1.24 1.12-1.944 2.683-1.944 4.318 0 3.275 2.768 5.93 6.182 5.93.433 0 .865-.043 1.29-.13 1.102 2.834 3.923 4.712 7.076 4.712 2.375 0 4.612-1.072 6.039-2.894a7.808 7.808 0 003.607.88c1.83 0 3.598-.637 4.975-1.794 1.13.736 2.627 1.146 4.185 1.146 1.139 0 2.255-.22 3.22-.633 1.347 2.25 3.846 3.638 6.551 3.638 2.606 0 5.028-1.289 6.408-3.41.386.058.776.087 1.167.087 4.172 0 7.554-3.245 7.554-7.247z" fill="#44232f"/><path d="M422.808 11.662c-2.229.004-4.223 1.187-5.01 2.972a6.38 6.38 0 00-3.212-.864c-3.415 0-6.182 2.656-6.182 5.932l47.685 12.805s.776.087 1.167.087c4.172 0 7.554-3.244 7.554-7.247 0-3.208-2.198-6.034-5.404-6.948-.87-3.188-3.872-5.411-7.307-5.411a7.756 7.756 0 00-4.736 1.6c-1.415-1.35-3.33-2.107-5.325-2.107-2.476 0-4.794 1.164-6.206 3.116a6.322 6.322 0 00-4.304-1.674 6.364 6.364 0 00-3.547 1.073c-.658-1.973-2.764-3.334-5.162-3.334h-.01z" fill="#6c81be"/><path d="M421.49 13.134a5.369 4.596 0 00-5.01 2.972 6.182 5.931 0 00-3.212-.864 6.182 5.931 0 00-6.182 5.932 6.182 5.931 0 00.096 1.042 6.182 5.931 0 00-1.944 4.318 6.182 5.931 0 006.182 5.931 6.182 5.931 0 001.29-.13 7.554 7.247 0 007.076 4.712 7.554 7.247 0 006.039-2.894 7.554 7.247 0 003.607.88 7.554 7.247 0 004.975-1.794 6.075 4.165 0 004.185 1.146 6.075 4.165 0 003.22-.634 7.554 7.247 0 006.551 3.639 7.554 7.247 0 006.408-3.41 7.554 7.247 0 001.167.086 7.554 7.247 0 007.554-7.247 7.554 7.247 0 00-5.404-6.948 7.554 7.247 0 00-7.307-5.411 7.554 7.247 0 00-4.736 1.6 7.554 7.247 0 00-5.325-2.107 7.554 7.247 0 00-6.206 3.116 6.182 5.931 0 00-4.304-1.674 6.182 5.931 0 00-3.547 1.073 5.369 4.596 0 00-5.162-3.334 5.369 4.596 0 00-.01 0z" fill="#d4d4d4"/><path d="M209.27 16.07c-1.341.002-2.427.835-2.427 1.862 0 .039.001.077.004.116-1.388.216-2.401 1.296-2.401 2.56 0 1.434 1.297 2.598 2.896 2.598.303 0 .605-.043.893-.127.65 1.283 1.953 1.906 3.21 1.536.747-.22 1.394-.768 1.805-1.528.919.295 1.913.066 2.572-.592.963-.962.917-2.527-.102-3.494-2.067-1.644-3.546-2.734-6.447-2.93h-.004z" fill="#44232f"/><path d="M210.42 15.209c-1.342 0-2.428.834-2.428 1.86l6.408 5.156c.918.295 1.913.066 2.572-.592.962-.963.917-2.527-.102-3.495a2.658 2.658 0 00-1.056-.614c-.107-1.064-.944-1.735-1.966-1.576a2.364 2.364 0 00-1.125.522c-.335-.754-1.26-1.262-2.3-1.261h-.004z" fill="#6c81be"/><path d="M209.777 15.379a2.43 1.861 0 00-2.426 1.86 2.43 1.861 0 00.005.117 2.897 2.598 0 00-2.402 2.56 2.897 2.598 0 002.896 2.597 2.897 2.598 0 00.893-.126 2.932 3.405 3.445 003.21 1.536 2.932 3.405 3.445 001.805-1.528 2.556 2.453 24.516 002.572-.592 2.556 2.453 24.516 00-.102-3.494 2.556 2.453 24.516 00-1.056-.614 1.926 2.362 32.949 00-1.966-1.577 1.926 2.362 32.949 00-1.125.522 2.43 1.861 0 00-2.3-1.261 2.43 1.861 0 00-.004 0z" fill="#d4d4d4"/><g><path d="M288.662 45.173c-1.674-.105-3.24.606-3.989 1.81-1.79.335-3.072 1.585-3.167 3.086-.118 1.892 1.672 3.544 3.998 3.69.905.058 1.8-.124 2.554-.516.726.565 1.666.909 2.656.97 1.166.074 2.305-.249 3.145-.89a5.06 5.06 0 001.692.402c2.328.146 4.31-1.27 4.43-3.162-4.525-4.642-11.32-5.39-11.32-5.39z" fill="#44232f"/><path d="M295.794 43.216c-1.115-.065-2.204.233-3.03.828a5.081 5.081 0 00-1.558-.348c-1.673-.105-3.239.606-3.988 1.81l10.878 6.742c2.327.146 4.31-1.27 4.429-3.162.098-1.56-1.113-3.006-2.947-3.515-.573-1.318-2.055-2.247-3.757-2.354l-.027-.001z" fill="#6c81be"/><path d="M294.495 43.655a4.222 3.433 3.597 00-3.03.828 4.222 3.433 3.597 00-1.558-.347 4.222 3.433 3.597 00-3.988 1.81 4.222 3.433 3.597 00-3.167 3.085 4.222 3.433 3.597 003.998 3.691 4.222 3.433 3.597 002.553-.517 4.222 3.433 3.597 002.657.971 4.222 3.433 3.597 003.145-.892 4.222 3.433 3.597 001.692.403 4.222 3.433 3.597 004.429-3.162 4.222 3.433 3.597 00-2.947-3.515 4.222 3.433 3.597 00-3.757-2.353 4.222 3.433 3.597 00-.027-.002z" fill="#d4d4d4"/></g><g><path d="M108.127 17.774a3.014 3.014 0 00-.196-.006c-1.401 0-2.537.955-2.537 2.134 0 .214.038.426.113.63a1.897 1.897 0 00-.403 1.153c0 1.179 1.136 2.135 2.537 2.135.572 0 1.126-.163 1.574-.46.455.654 1.289 1.056 2.19 1.056.57 0 1.121-.16 1.569-.456.543.45 1.275.701 2.037.701.705 0 1.385-.215 1.915-.605.435.27.963.416 1.504.416 1.023 0 1.946-.517 2.34-1.311a3 3 0 00.51.043c1.276 0 2.353-.796 2.517-1.86z" fill="#44232f"/><path d="M114.166 13.348c-1.05.006-1.986.556-2.356 1.382-1.155.106-2.077.858-2.238 1.826a3.014 3.014 0 00-.196-.006c-1.402 0-2.538.955-2.538 2.134l15.378 3.259a3 3 0 00.51.043c1.275 0 2.352-.796 2.515-1.86.534-.274.898-.827.898-1.47 0-.565-.28-1.06-.71-1.359a1.38 1.38 0 00.038-.317c0-1.028-1.136-1.861-2.538-1.861-.455 0-.903.09-1.295.26a1.943 1.943 0 00-1.392-.577c-.427 0-.842.137-1.176.388-.478-.416-1.136-.65-1.824-.65-.247 0-.494.03-.731.09-.403-.778-1.317-1.282-2.326-1.282h-.019z" fill="#6c81be"/><path d="M113.249 13.928a2.537 2.135 0 00-2.356 1.383 2.537 2.135 0 00-2.239 1.826 2.537 2.135 0 00-.196-.007 2.537 2.135 0 00-2.537 2.135 2.537 2.135 0 00.113.63 2.537 2.135 0 00-.402 1.153 2.537 2.135 0 002.537 2.134 2.537 2.135 0 001.574-.46 2.537 2.135 0 002.19 1.057 2.537 2.135 0 001.568-.457 2.906 2.445 0 002.038.702 2.906 2.445 0 001.914-.605 2.537 2.135 0 001.504.415 2.537 2.135 0 002.341-1.31 2.537 2.135 0 00.51.043 2.537 2.135 0 002.516-1.86c.533-.274.898-.828.898-1.47 0-.565-.281-1.061-.71-1.359a2.537 1.86 0 00.037-.318 2.537 1.86 0 00-2.537-1.86 2.537 1.86 0 00-1.295.26 1.887 1.777 0 00-1.392-.577 1.887 1.777 0 00-1.177.387 2.537 2.135 0 00-1.823-.65 2.537 2.135 0 00-.732.09 2.537 2.135 0 00-2.326-1.282 2.537 2.135 0 00-.018 0z" fill="#d4d4d4"/></g><g><path d="M195.663 48.208c-1.975-.124-3.821.713-4.706 2.134-2.11.396-3.624 1.87-3.736 3.64-.14 2.233 1.972 4.182 4.717 4.355 1.067.067 2.123-.147 3.012-.61.857.667 1.966 1.072 3.134 1.146 1.376.086 2.719-.295 3.71-1.053a5.97 5.97 0 001.996.476c2.746.172 5.085-1.498 5.225-3.73-5.338-5.477-13.352-6.358-13.352-6.358z" fill="#44232f"/><path d="M204.077 45.898c-1.316-.076-2.6.275-3.574.977a5.994 5.994 0 00-1.839-.41c-1.974-.124-3.82.714-4.705 2.135l12.833 7.953c2.745.173 5.085-1.497 5.225-3.73.116-1.841-1.313-3.546-3.476-4.146-.677-1.556-2.425-2.651-4.432-2.777a6.24 6.24 0 00-.032-.002z" fill="#6c81be"/><path d="M202.544 46.416a4.98 4.05 3.597 00-3.573.977 4.98 4.05 3.597 00-1.84-.41 4.98 4.05 3.597 00-4.705 2.135 4.98 4.05 3.597 00-3.735 3.64 4.98 4.05 3.597 004.716 4.355 4.98 4.05 3.597 003.012-.61 4.98 4.05 3.597 003.134 1.145 4.98 4.05 3.597 003.71-1.052 4.98 4.05 3.597 001.997.475 4.98 4.05 3.597 005.224-3.73 4.98 4.05 3.597 00-3.476-4.146 4.98 4.05 3.597 00-4.432-2.777 4.98 4.05 3.597 00-.032-.002z" fill="#d4d4d4"/></g><g><path d="M18.018 35.877a3.204 3.204 0 00-1.613-.433c-1.714 0-3.105 1.334-3.105 2.979 0 .175.017.35.049.523a2.923 2.923 0 00-.977 2.17c0 1.644 1.39 2.978 3.105 2.978.218 0 .435-.022.648-.065.554 1.423 1.97 2.366 3.554 2.366a3.85 3.85 0 003.033-1.453c.556.29 1.18.442 1.812.442.92 0 1.807-.32 2.499-.901.567.37 1.32.575 2.102.575.572 0 1.132-.11 1.617-.318.677 1.13 1.931 1.828 3.29 1.828 1.31 0 2.526-.648 3.219-1.713.194.029.39.043.586.043 2.095 0 3.794-1.63 3.794-3.64z" fill="#44232f"/><path d="M21.815 33.133c-1.12.002-2.121.596-2.517 1.492a3.204 3.204 0 00-1.613-.433c-1.715 0-3.105 1.333-3.105 2.979l23.95 6.431s.39.044.587.044c2.095 0 3.793-1.63 3.793-3.64 0-1.611-1.104-3.03-2.714-3.49-.437-1.6-1.945-2.718-3.67-2.718-.865 0-1.704.284-2.378.805a3.877 3.877 0 00-2.675-1.059c-1.243 0-2.408.585-3.117 1.565a3.175 3.175 0 00-2.162-.84c-.637 0-1.259.187-1.78.538-.331-.99-1.39-1.674-2.593-1.674h-.006z" fill="#6c81be"/><path d="M21.153 33.872a2.696 2.308 0 00-2.517 1.493 3.105 2.979 0 00-1.613-.434 3.105 2.979 0 00-3.105 2.979 3.105 2.979 0 00.049.524 3.105 2.979 0 00-.977 2.168 3.105 2.979 0 003.105 2.98 3.105 2.979 0 00.648-.066 3.794 3.64 0 003.554 2.366 3.794 3.64 0 003.033-1.453 3.794 3.64 0 001.812.442 3.794 3.64 0 002.499-.901 3.051 2.092 0 002.101.575 3.051 2.092 0 001.618-.318 3.794 3.64 0 003.29 1.828 3.794 3.64 0 003.218-1.713 3.794 3.64 0 00.587.043 3.794 3.64 0 003.794-3.64 3.794 3.64 0 00-2.715-3.49 3.794 3.64 0 00-3.67-2.717 3.794 3.64 0 00-2.378.804 3.794 3.64 0 00-2.675-1.059 3.794 3.64 0 00-3.117 1.565 3.105 2.979 0 00-2.161-.84 3.105 2.979 0 00-1.782.539 2.696 2.308 0 00-2.592-1.675 2.696 2.308 0 00-.006 0z" fill="#d4d4d4"/></g><g><path d="M17.406 9.105c-1.974-.124-3.821.714-4.705 2.135-2.111.395-3.625 1.87-3.736 3.64-.14 2.232 1.971 4.182 4.716 4.354 1.067.067 2.123-.147 3.012-.61.857.667 1.967 1.072 3.134 1.146 1.376.086 2.72-.295 3.71-1.052a5.97 5.97 0 001.997.475c2.745.172 5.084-1.497 5.224-3.73-5.337-5.476-13.352-6.358-13.352-6.358z" fill="#44232f"/><path d="M25.82 6.795c-1.315-.076-2.6.276-3.574.977a5.994 5.994 0 00-1.838-.41c-1.975-.124-3.822.714-4.706 2.135l12.833 7.953c2.746.173 5.085-1.497 5.225-3.73.116-1.84-1.313-3.546-3.476-4.146-.677-1.555-2.425-2.65-4.432-2.777a6.24 6.24 0 00-.032-.002z" fill="#6c81be"/><path d="M24.287 7.313a4.98 4.05 3.597 00-3.573.977 4.98 4.05 3.597 00-1.839-.41 4.98 4.05 3.597 00-4.705 2.135 4.98 4.05 3.597 00-3.736 3.64 4.98 4.05 3.597 004.716 4.355 4.98 4.05 3.597 003.013-.61 4.98 4.05 3.597 003.134 1.146 4.98 4.05 3.597 003.71-1.052 4.98 4.05 3.597 001.996.475 4.98 4.05 3.597 005.225-3.73 4.98 4.05 3.597 00-3.476-4.147 4.98 4.05 3.597 00-4.433-2.777 4.98 4.05 3.597 00-.032-.002z" fill="#d4d4d4"/></g><g><path d="M391.87 47.288c-1.674-.105-3.24.605-3.99 1.81-1.789.335-3.072 1.585-3.166 3.085-.12 1.892 1.67 3.545 3.998 3.691.904.057 1.8-.124 2.553-.517.726.565 1.667.91 2.657.971 1.166.074 2.304-.25 3.144-.891a5.06 5.06 0 001.693.402c2.327.147 4.31-1.269 4.429-3.161-4.525-4.643-11.319-5.39-11.319-5.39z" fill="#44232f"/><path d="M399.001 45.33c-1.115-.064-2.204.234-3.029.828a5.081 5.081 0 00-1.558-.347c-1.674-.105-3.24.605-3.99 1.81l10.88 6.741c2.326.146 4.31-1.27 4.428-3.161.098-1.561-1.113-3.007-2.946-3.515-.574-1.319-2.056-2.247-3.758-2.354l-.027-.002z" fill="#6c81be"/><path d="M397.702 45.77a4.222 3.433 3.597 00-3.029.827 4.222 3.433 3.597 00-1.559-.347 4.222 3.433 3.597 00-3.988 1.81 4.222 3.433 3.597 00-3.167 3.085 4.222 3.433 3.597 003.998 3.692 4.222 3.433 3.597 002.553-.517 4.222 3.433 3.597 002.657.97 4.222 3.433 3.597 003.145-.891 4.222 3.433 3.597 001.692.403 4.222 3.433 3.597 004.429-3.162 4.222 3.433 3.597 00-2.946-3.515 4.222 3.433 3.597 00-3.758-2.354 4.222 3.433 3.597 00-.027-.002z" fill="#d4d4d4"/></g><g><path d="M481.51 13.88c-1.189 0-2.15.738-2.15 1.648 0 .034 0 .069.003.103-1.23.191-2.128 1.148-2.128 2.268 0 1.271 1.15 2.302 2.567 2.302.269 0 .535-.038.791-.112.575 1.136 1.73 1.69 2.845 1.36.661-.194 1.235-.68 1.599-1.353.814.261 1.695.058 2.279-.525.853-.852.812-2.238-.09-3.096-1.833-1.457-3.143-2.422-5.714-2.596h-.003z" fill="#44232f"/><path d="M482.528 13.115c-1.188.001-2.15.74-2.15 1.649l5.677 4.568c.814.261 1.696.058 2.28-.525.852-.852.812-2.239-.091-3.096a2.355 2.355 0 00-.935-.544c-.095-.944-.837-1.538-1.743-1.397a2.094 2.094 0 00-.996.463c-.297-.669-1.117-1.118-2.039-1.118h-.003z" fill="#6c81be"/><path d="M481.96 13.266a2.153 1.649 0 00-2.15 1.649 2.153 1.649 0 00.004.103 2.567 2.302 0 00-2.128 2.268 2.567 2.302 0 002.566 2.302 2.567 2.302 0 00.791-.112 2.598 3.017 3.445 002.845 1.36 2.598 3.017 3.445 001.599-1.353 2.265 2.173 24.516 002.279-.525 2.265 2.173 24.516 00-.09-3.096 2.265 2.173 24.516 00-.936-.544 1.706 2.093 32.949 00-1.742-1.397 1.706 2.093 32.949 00-.997.462 2.153 1.649 0 00-2.038-1.117 2.153 1.649 0 00-.003 0z" fill="#d4d4d4"/></g><g><path d="M324.177 15.375c-1.34.002-2.427.835-2.427 1.861 0 .04.002.078.005.116-1.388.216-2.402 1.297-2.402 2.56 0 1.435 1.297 2.598 2.897 2.598.303 0 .604-.042.893-.126.649 1.282 1.952 1.906 3.21 1.536.746-.22 1.394-.769 1.804-1.528.92.294 1.914.065 2.572-.593.963-.962.918-2.526-.101-3.494-2.068-1.644-3.547-2.733-6.448-2.93h-.003z" fill="#44232f"/><path d="M325.327 14.513c-1.341.001-2.427.834-2.427 1.861l6.407 5.155c.919.295 1.914.066 2.572-.592.963-.962.917-2.526-.102-3.494a2.658 2.658 0 00-1.055-.614c-.107-1.065-.944-1.736-1.967-1.577a2.364 2.364 0 00-1.124.522c-.336-.754-1.26-1.261-2.301-1.26h-.003z" fill="#6c81be"/><path d="M324.685 14.683a2.43 1.861 0 00-2.427 1.861 2.43 1.861 0 00.005.116 2.897 2.598 0 00-2.402 2.56 2.897 2.598 0 002.897 2.598 2.897 2.598 0 00.893-.126 2.932 3.405 3.445 003.21 1.535 2.932 3.405 3.445 001.805-1.528 2.556 2.453 24.516 002.572-.592 2.556 2.453 24.516 00-.102-3.494A2.556 2.453 24.516 00330.08 17a1.926 2.362 32.949 00-1.966-1.577 1.926 2.362 32.949 00-1.125.523 2.43 1.861 0 00-2.3-1.262 2.43 1.861 0 00-.004 0z" fill="#d4d4d4"/></g><g><path d="M367.278 14.826a4.118 4.118 0 00-.268-.008c-1.914 0-3.466 1.305-3.466 2.916 0 .291.052.581.155.86a2.591 2.591 0 00-.55 1.575c0 1.61 1.552 2.916 3.466 2.916a3.9 3.9 0 002.15-.629c.621.895 1.76 1.444 2.992 1.444a3.9 3.9 0 002.142-.623c.743.614 1.742.958 2.784.958.962 0 1.891-.294 2.615-.827a3.92 3.92 0 002.055.568c1.397 0 2.658-.706 3.197-1.79.23.039.463.059.697.059 1.742 0 3.213-1.088 3.437-2.542z" fill="#44232f"/><path d="M375.528 8.78c-1.434.009-2.713.76-3.218 1.888-1.578.145-2.838 1.172-3.058 2.495a4.118 4.118 0 00-.268-.009c-1.914 0-3.466 1.306-3.466 2.916l21.006 4.452c.23.04.463.06.697.06 1.742-.001 3.213-1.089 3.437-2.542a2.252 2.252 0 001.226-2.009c0-.77-.383-1.448-.97-1.855.034-.144.051-.289.051-.434 0-1.404-1.551-2.543-3.466-2.543-.622 0-1.233.123-1.769.356a2.654 2.654 0 00-1.901-.788 2.68 2.68 0 00-1.608.53c-.653-.568-1.551-.889-2.49-.889-.339 0-.676.042-1 .124-.55-1.064-1.798-1.752-3.178-1.752h-.025z" fill="#6c81be"/><path d="M374.275 9.573a3.466 2.916 0 00-3.219 1.888 3.466 2.916 0 00-3.058 2.495 3.466 2.916 0 00-.267-.009 3.466 2.916 0 00-3.466 2.916 3.466 2.916 0 00.154.86 3.466 2.916 0 00-.55 1.575 3.466 2.916 0 003.467 2.917 3.466 2.916 0 002.15-.63 3.466 2.916 0 002.991 1.445 3.466 2.916 0 002.143-.624 3.97 3.34 0 002.783.959 3.97 3.34 0 002.615-.827 3.466 2.916 0 002.055.567 3.466 2.916 0 003.198-1.79 3.466 2.916 0 00.696.06 3.466 2.916 0 003.437-2.542 2.252 2.252 0 001.227-2.009c0-.771-.384-1.448-.97-1.855a3.466 2.542 0 00.051-.435 3.466 2.542 0 00-3.466-2.542 3.466 2.542 0 00-1.769.356 2.578 2.427 0 00-1.902-.788 2.578 2.427 0 00-1.607.53 3.466 2.916 0 00-2.49-.889 3.466 2.916 0 00-1 .124 3.466 2.916 0 00-3.178-1.752 3.466 2.916 0 00-.025 0z" fill="#d4d4d4"/></g></g></svg>